{"glyphs":{"0":{"ha":549,"x_min":45,"x_max":503,"o":"m 267 -16 q 174 15 215 -16 q 104 107 133 46 q 60 258 75 168 q 45 466 45 348 q 106 857 45 725 q 283 989 168 989 q 503 490 503 989 q 487 273 503 367 q 441 114 471 178 q 367 17 411 50 q 267 -16 323 -16 m 279 913 q 155 803 198 913 q 113 473 113 693 q 153 164 113 269 q 275 58 194 58 q 344 86 314 58 q 395 166 374 113 q 426 298 415 220 q 436 479 436 377 q 279 913 436 913 z "},"1":{"ha":391,"x_min":42,"x_max":281,"o":"m 216 0 l 216 869 q 177 830 199 849 q 132 794 155 811 q 85 765 109 778 q 42 743 62 751 l 42 819 q 157 890 102 845 q 263 994 212 935 l 281 994 l 281 0 l 216 0 z "},"2":{"ha":549,"x_min":52,"x_max":484,"o":"m 402 723 q 392 805 402 769 q 362 864 381 840 q 317 901 344 888 q 259 913 291 913 q 165 882 210 913 q 80 800 120 851 l 80 896 q 164 964 119 940 q 268 989 210 989 q 286 987 277 989 q 302 983 294 986 q 371 958 340 978 q 423 906 401 938 q 457 830 445 874 q 469 733 469 787 q 456 621 469 671 q 422 530 444 572 q 368 451 399 488 q 296 377 336 414 q 221 303 253 335 q 170 241 190 271 q 138 183 149 212 q 125 118 127 154 q 121 99 122 109 q 121 78 121 90 l 484 78 l 484 0 l 52 0 l 52 47 q 63 160 52 112 q 99 249 75 208 q 162 332 123 291 q 253 425 200 374 q 317 493 290 460 q 364 561 345 526 q 393 635 383 596 q 402 723 402 675 z "},"3":{"ha":549,"x_min":62,"x_max":470,"o":"m 62 131 q 225 58 141 58 q 292 70 260 58 q 349 106 324 81 q 388 169 373 131 q 403 261 403 208 q 349 414 403 363 q 191 466 296 466 l 133 466 l 133 541 l 186 541 q 329 591 281 541 q 377 736 377 641 q 341 868 377 823 q 235 913 306 913 q 91 846 162 913 l 91 934 q 249 989 168 989 q 323 975 288 989 q 386 931 359 960 q 428 860 412 903 q 444 759 444 817 q 300 510 444 564 l 300 507 q 367 484 336 502 q 420 436 397 466 q 457 364 444 406 q 470 271 470 322 q 451 148 470 201 q 398 58 431 94 q 319 2 364 21 q 223 -17 274 -17 q 62 35 131 -17 l 62 131 z "},"4":{"ha":572,"x_min":25,"x_max":549,"o":"m 435 972 l 435 320 l 549 320 l 549 241 l 435 241 l 435 0 l 371 0 l 371 241 l 25 241 l 25 320 q 123 476 74 393 q 218 645 173 559 q 301 815 263 731 q 366 972 340 899 l 435 972 m 371 320 l 371 833 q 296 672 333 747 q 224 533 259 597 q 157 416 189 469 q 99 320 125 363 l 371 320 z "},"5":{"ha":549,"x_min":81,"x_max":475,"o":"m 81 117 q 227 58 154 58 q 302 75 269 58 q 359 121 336 91 q 396 193 383 151 q 408 286 408 235 q 359 449 408 393 q 214 505 310 505 q 102 497 175 505 l 125 972 l 443 972 l 443 894 l 180 894 l 165 578 q 235 583 210 583 q 338 563 294 583 q 413 505 382 543 q 459 414 444 468 q 475 293 475 361 q 458 167 475 224 q 409 69 441 110 q 330 6 377 28 q 224 -16 283 -16 q 81 22 134 -16 l 81 117 z "},"6":{"ha":549,"x_min":60,"x_max":507,"o":"m 507 309 q 490 178 507 237 q 444 75 473 118 q 373 7 414 32 q 283 -17 332 -17 q 189 13 231 -17 q 119 99 147 42 q 75 239 90 156 q 60 427 60 321 q 80 658 60 554 q 137 835 100 762 q 229 949 175 909 q 350 989 282 989 q 463 963 418 989 l 463 877 q 351 913 410 913 q 258 881 299 913 q 187 789 216 848 q 142 648 158 730 q 127 466 127 566 l 129 466 q 303 608 181 608 q 387 586 349 608 q 451 524 424 564 q 492 429 477 484 q 507 309 507 374 m 439 295 q 429 393 439 349 q 399 468 418 437 q 352 515 380 498 q 288 532 324 532 q 226 515 255 532 q 176 467 197 497 q 144 399 155 437 q 132 318 132 360 q 143 218 132 265 q 175 136 155 171 q 224 80 195 100 q 287 59 252 59 q 348 77 320 59 q 396 126 376 94 q 428 200 416 157 q 439 295 439 243 z "},"7":{"ha":526,"x_min":35,"x_max":490,"o":"m 490 936 q 418 758 451 842 q 357 595 385 673 q 307 444 329 517 q 267 298 284 371 q 236 152 249 226 q 214 0 223 78 l 145 0 q 182 217 157 106 q 242 441 208 328 q 320 669 277 555 q 410 894 363 783 l 35 894 l 35 972 l 490 972 l 490 936 z "},"8":{"ha":549,"x_min":50,"x_max":501,"o":"m 50 271 q 58 348 50 310 q 84 420 67 387 q 127 481 102 454 q 186 524 153 508 q 107 615 136 558 q 78 741 78 671 q 93 840 78 794 q 134 918 108 885 q 197 970 161 951 q 275 989 233 989 q 355 970 318 989 q 418 918 391 951 q 459 839 444 884 q 473 741 473 793 q 466 674 473 706 q 444 614 458 642 q 411 564 430 587 q 367 524 391 541 q 425 481 399 508 q 467 420 450 454 q 492 348 484 387 q 501 271 501 310 q 485 152 501 205 q 438 62 468 99 q 367 4 408 24 q 275 -16 326 -16 q 184 4 226 -16 q 113 62 143 24 q 66 152 83 99 q 50 271 50 205 m 119 273 q 131 185 119 224 q 162 119 142 146 q 212 76 183 91 q 275 61 240 61 q 338 76 309 61 q 387 119 367 92 q 419 185 408 146 q 431 273 431 224 q 420 354 431 315 q 389 421 409 392 q 339 466 368 450 q 275 483 311 483 q 213 467 241 483 q 164 424 184 452 q 131 357 143 396 q 119 273 119 319 m 145 735 q 155 665 145 698 q 183 609 165 633 q 225 571 201 585 q 275 557 249 557 q 327 571 302 557 q 368 609 351 585 q 396 666 386 633 q 407 735 407 699 q 397 806 407 773 q 369 862 387 838 q 327 900 351 886 q 275 913 303 913 q 222 900 247 913 q 181 861 198 886 q 154 804 163 837 q 145 735 145 772 z "},"9":{"ha":549,"x_min":50,"x_max":497,"o":"m 497 547 q 478 308 497 412 q 421 131 458 203 q 330 21 385 58 q 205 -17 275 -17 q 89 12 143 -17 l 89 100 q 207 59 149 59 q 372 173 314 59 q 430 506 430 288 l 428 506 q 257 365 379 365 q 173 387 212 365 q 107 449 135 410 q 65 544 80 489 q 50 666 50 600 q 67 797 50 738 q 114 899 84 857 q 186 965 144 942 q 277 989 228 989 q 369 960 328 989 q 438 876 410 932 q 482 737 467 820 q 497 547 497 654 m 424 646 q 413 754 424 705 q 381 839 401 804 q 332 893 361 873 q 270 913 304 913 q 209 895 237 913 q 161 847 181 878 q 129 773 140 816 q 117 680 117 730 q 128 581 117 625 q 159 506 139 536 q 209 459 180 475 q 272 443 237 443 q 331 459 304 443 q 379 503 359 475 q 412 567 400 530 q 424 646 424 604 z "},"\r":{"ha":0,"x_min":0,"x_max":0,"o":""}," ":{"ha":286,"x_min":0,"x_max":0,"o":""},"!":{"ha":296,"x_min":99,"x_max":197,"o":"m 175 273 l 119 273 l 111 972 l 182 972 l 175 273 m 148 -12 q 113 6 127 -12 q 99 52 99 25 q 113 99 99 80 q 148 117 127 117 q 166 113 157 117 q 182 99 175 108 q 193 78 189 90 q 197 52 197 66 q 193 27 197 39 q 182 6 189 15 q 166 -7 175 -3 q 148 -12 157 -12 z "},"\"":{"ha":378,"x_min":86,"x_max":292,"o":"m 292 669 l 234 669 l 234 972 l 292 972 l 292 669 m 145 669 l 86 669 l 86 972 l 145 972 l 145 669 z "},"#":{"ha":622,"x_min":23,"x_max":589,"o":"m 578 635 l 444 635 l 408 416 l 552 416 l 541 353 l 399 353 l 355 83 l 302 83 l 346 353 l 214 353 l 171 83 l 119 83 l 161 353 l 23 353 l 33 416 l 172 416 l 206 635 l 62 635 l 72 697 l 216 697 l 260 972 l 312 972 l 269 697 l 401 697 l 445 972 l 497 972 l 452 697 l 589 697 l 578 635 m 259 635 l 223 416 l 356 416 l 391 635 l 259 635 z "},"$":{"ha":549,"x_min":82,"x_max":475,"o":"m 300 -142 l 254 -142 l 254 0 q 83 56 153 0 l 83 150 q 121 119 100 133 q 163 96 141 106 q 209 81 186 86 q 254 76 233 76 l 254 452 q 192 499 223 475 q 137 553 161 522 q 97 624 113 583 q 82 722 82 665 q 95 815 82 772 q 131 890 108 858 q 185 944 153 923 q 254 972 216 965 l 254 1095 l 300 1095 l 300 975 q 379 963 345 973 q 436 937 412 953 l 436 848 q 300 898 382 896 l 300 513 q 384 448 351 479 q 438 386 418 417 q 467 320 458 354 q 475 246 475 286 q 464 158 475 199 q 429 86 452 117 q 374 33 407 54 q 300 4 342 12 l 300 -142 m 254 895 q 178 840 206 883 q 149 733 149 798 q 154 679 149 703 q 171 633 159 655 q 203 591 183 612 q 254 547 223 570 l 254 895 m 300 79 q 381 133 355 93 q 408 235 408 174 q 402 286 408 262 q 384 332 397 310 q 351 375 371 354 q 300 418 330 396 l 300 79 z "},"%":{"ha":835,"x_min":41,"x_max":798,"o":"m 208 490 q 139 507 170 490 q 86 557 108 525 q 53 634 64 589 q 41 734 41 679 q 54 842 41 794 q 90 922 67 889 q 145 972 113 955 q 216 989 177 989 q 285 972 254 989 q 337 924 315 956 q 370 846 358 892 q 381 742 381 800 q 369 641 381 687 q 334 561 356 595 q 279 509 311 528 q 208 490 248 490 m 214 924 q 166 911 188 924 q 130 874 144 899 q 106 815 115 850 q 98 736 98 781 q 128 603 98 652 q 212 554 158 554 q 259 567 239 554 q 294 605 280 581 q 316 664 309 629 q 324 741 324 699 q 295 877 324 830 q 214 924 265 924 m 219 -14 l 157 -14 l 611 972 l 672 972 l 219 -14 m 625 -16 q 556 2 587 -16 q 503 52 525 20 q 470 129 481 83 q 458 229 458 174 q 471 336 458 288 q 507 416 484 383 q 562 467 530 450 q 633 485 594 485 q 701 468 671 485 q 753 419 732 451 q 786 341 774 387 q 798 236 798 294 q 785 135 798 181 q 750 55 772 89 q 696 3 728 22 q 625 -16 664 -16 m 631 418 q 583 406 604 418 q 547 369 562 393 q 524 310 532 345 q 515 231 515 275 q 523 155 515 189 q 546 97 531 121 q 581 61 560 74 q 628 49 602 49 q 675 62 654 49 q 711 99 696 75 q 733 158 725 123 q 741 236 741 193 q 712 372 741 326 q 631 418 682 418 z "},"&":{"ha":730,"x_min":66,"x_max":719,"o":"m 625 0 l 536 117 q 295 -17 436 -17 q 200 2 242 -17 q 127 57 157 22 q 82 140 98 92 q 66 245 66 188 q 233 531 66 424 q 153 762 153 663 q 167 852 153 810 q 205 924 180 893 q 264 971 231 954 q 338 989 298 989 q 407 974 376 989 q 459 932 437 959 q 492 869 480 906 q 503 789 503 833 q 494 706 503 743 q 465 635 485 668 q 412 573 444 602 q 334 515 380 544 q 431 382 379 450 q 541 237 483 313 q 566 297 555 264 q 586 366 578 330 q 598 440 594 402 q 604 514 603 477 l 667 514 q 581 180 664 330 q 642 100 608 144 q 719 -1 676 56 l 625 0 m 294 568 q 360 616 333 592 q 405 666 387 640 q 430 720 422 692 q 438 781 438 749 q 430 835 438 810 q 409 878 422 860 q 377 906 395 896 q 337 916 359 916 q 288 904 310 916 q 251 872 267 892 q 228 823 236 851 q 219 761 219 794 q 294 568 219 681 m 497 172 q 381 326 436 251 q 273 475 326 401 q 166 375 200 429 q 133 250 133 321 q 145 172 133 207 q 179 112 157 136 q 230 73 200 87 q 297 59 260 59 q 497 172 412 59 z "},"'":{"ha":231,"x_min":86,"x_max":145,"o":"m 145 669 l 86 669 l 86 972 l 145 972 l 145 669 z "},"(":{"ha":304,"x_min":74,"x_max":293,"o":"m 229 -221 q 74 370 74 19 q 231 972 74 730 l 293 972 q 134 372 134 722 q 292 -221 134 33 l 229 -221 z "},")":{"ha":304,"x_min":11,"x_max":231,"o":"m 13 -221 q 170 372 170 33 q 11 972 170 722 l 74 972 q 231 370 231 730 q 75 -221 231 19 l 13 -221 z "},"*":{"ha":428,"x_min":37,"x_max":391,"o":"m 248 711 l 347 538 l 300 496 l 216 680 l 130 496 l 83 538 l 182 711 l 37 756 l 54 827 l 195 760 l 185 972 l 244 972 l 235 760 l 374 827 l 391 756 l 248 711 z "},"+":{"ha":694,"x_min":113,"x_max":583,"o":"m 375 368 l 375 92 l 320 92 l 320 368 l 113 368 l 113 441 l 320 441 l 320 718 l 375 718 l 375 441 l 583 441 l 583 368 l 375 368 z "},",":{"ha":229,"x_min":22,"x_max":156,"o":"m 71 -174 l 22 -174 l 90 154 l 156 154 l 71 -174 z "},"-":{"ha":416,"x_min":73,"x_max":351,"o":"m 73 359 l 73 434 l 351 434 l 351 359 l 73 359 z "},".":{"ha":229,"x_min":65,"x_max":163,"o":"m 114 -14 q 79 5 94 -14 q 65 52 65 24 q 79 98 65 79 q 114 117 93 117 q 133 112 124 117 q 149 99 142 107 q 159 78 155 90 q 163 52 163 66 q 159 26 163 38 q 149 5 155 14 q 133 -8 142 -3 q 114 -14 124 -14 z "},"/":{"ha":393,"x_min":-15,"x_max":401,"o":"m 47 -161 l -15 -161 l 338 972 l 401 972 l 47 -161 z "},":":{"ha":229,"x_min":65,"x_max":163,"o":"m 114 578 q 95 583 104 578 q 79 597 86 588 q 69 618 73 606 q 65 644 65 630 q 79 689 65 671 q 114 708 94 708 q 132 703 123 708 q 148 690 141 699 q 159 670 155 682 q 163 644 163 658 q 159 617 163 629 q 148 597 155 606 q 132 583 141 588 q 114 578 123 578 m 114 -14 q 79 5 94 -14 q 65 52 65 24 q 79 98 65 79 q 114 117 93 117 q 133 112 124 117 q 149 99 142 107 q 159 78 155 90 q 163 52 163 66 q 159 26 163 38 q 149 5 155 14 q 133 -8 142 -3 q 114 -14 124 -14 z "},";":{"ha":229,"x_min":22,"x_max":166,"o":"m 117 578 q 82 597 96 578 q 68 644 68 616 q 82 690 68 671 q 117 708 96 708 q 152 689 138 708 q 166 644 166 671 q 162 617 166 629 q 151 597 158 606 q 136 583 144 588 q 117 578 127 578 m 71 -174 l 22 -174 l 90 154 l 156 154 l 71 -174 z "},"<":{"ha":694,"x_min":132,"x_max":562,"o":"m 132 386 l 132 412 l 562 734 l 562 651 l 227 402 l 227 399 l 562 180 l 562 96 l 132 386 z "},"=":{"ha":694,"x_min":113,"x_max":583,"o":"m 113 507 l 113 580 l 583 580 l 583 507 l 113 507 m 113 231 l 113 304 l 583 304 l 583 231 l 113 231 z "},">":{"ha":694,"x_min":132,"x_max":562,"o":"m 132 96 l 132 180 l 469 399 l 469 402 l 132 651 l 132 734 l 562 412 l 562 386 l 132 96 z "},"?":{"ha":457,"x_min":64,"x_max":408,"o":"m 181 270 q 172 315 176 288 q 169 370 169 342 q 177 433 169 405 q 198 486 185 461 q 229 534 212 511 q 265 581 247 557 q 295 620 281 600 q 319 662 309 640 q 337 710 330 684 q 343 764 343 735 q 334 827 343 800 q 308 872 324 854 q 269 901 292 891 q 220 911 246 911 q 136 889 174 911 q 64 824 97 867 l 64 920 q 141 972 101 955 q 227 989 181 989 q 298 975 264 989 q 355 934 331 961 q 394 867 380 907 q 408 775 408 827 q 400 705 408 737 q 380 646 393 673 q 351 595 367 619 q 317 550 334 572 q 278 500 295 522 q 251 458 262 478 q 234 416 239 437 q 228 370 228 395 q 233 313 228 338 q 243 270 237 288 l 181 270 m 212 -12 q 194 -7 203 -12 q 179 6 186 -3 q 168 27 172 15 q 164 52 164 39 q 168 78 164 66 q 178 99 172 90 q 194 112 185 107 q 212 117 203 117 q 231 113 222 117 q 247 99 240 108 q 258 78 254 90 q 262 52 262 66 q 258 27 262 39 q 247 6 254 15 q 231 -7 240 -3 q 212 -12 222 -12 z "},"@":{"ha":989,"x_min":86,"x_max":904,"o":"m 587 287 q 439 125 545 125 q 372 145 401 125 q 324 199 343 165 q 295 279 304 233 q 285 377 285 326 q 290 460 285 418 q 307 543 296 503 q 335 617 318 583 q 376 679 353 652 q 430 720 399 705 q 497 734 460 734 q 530 729 513 734 q 560 712 546 723 q 586 684 574 701 q 603 646 597 667 l 605 646 l 610 725 l 664 725 l 639 336 q 708 193 639 193 q 754 206 734 193 q 789 243 774 220 q 815 296 804 266 q 832 359 825 326 q 841 425 838 391 q 844 487 844 458 q 820 667 844 587 q 750 803 795 747 q 642 890 705 860 q 503 920 578 920 q 402 903 449 920 q 315 853 355 885 q 244 775 275 821 q 191 674 212 730 q 157 553 169 618 q 145 416 145 488 q 170 223 145 311 q 241 72 195 135 q 353 -25 288 9 q 500 -60 418 -60 q 715 -2 626 -60 l 715 -76 q 495 -127 623 -127 q 328 -87 404 -127 q 199 24 253 -47 q 116 196 146 96 q 86 414 86 296 q 100 566 86 493 q 140 703 114 639 q 202 819 165 766 q 286 909 239 871 q 388 967 332 946 q 507 987 444 987 q 613 971 562 987 q 708 925 664 955 q 788 851 751 895 q 850 752 824 807 q 890 632 876 697 q 904 493 904 567 q 899 411 904 454 q 884 328 894 369 q 858 250 873 287 q 820 186 842 214 q 770 142 798 158 q 705 125 741 125 q 589 287 593 125 l 587 287 m 495 667 q 426 641 454 667 q 379 573 397 615 q 353 480 361 532 q 345 379 345 429 q 352 302 345 336 q 372 243 359 267 q 405 206 386 219 q 448 193 424 193 q 498 209 477 193 q 536 249 519 224 q 563 307 552 274 q 580 375 573 340 q 589 447 587 411 q 592 514 592 483 q 567 629 592 590 q 495 667 542 667 z "},"A":{"ha":663,"x_min":20,"x_max":642,"o":"m 567 0 l 487 288 l 174 288 l 96 0 l 20 0 l 298 972 l 366 972 l 642 0 l 567 0 m 345 802 q 337 832 341 815 q 331 871 334 849 l 329 871 q 322 832 326 849 q 315 802 318 815 l 197 370 l 464 370 l 345 802 z "},"B":{"ha":582,"x_min":94,"x_max":526,"o":"m 94 0 l 94 972 l 294 972 q 375 956 339 972 q 437 910 412 940 q 477 840 463 881 q 491 749 491 798 q 482 670 491 707 q 457 603 473 633 q 417 551 441 573 q 363 516 393 529 l 363 513 q 430 490 400 509 q 482 440 460 471 q 515 369 503 410 q 526 279 526 328 q 510 166 526 217 q 463 78 493 115 q 390 20 432 41 q 298 0 349 0 l 94 0 m 162 890 l 162 545 l 257 545 q 324 557 294 545 q 375 595 354 570 q 408 654 397 619 q 420 732 420 688 q 272 890 420 890 l 162 890 m 162 463 l 162 82 l 288 82 q 412 133 369 82 q 456 276 456 183 q 265 463 456 463 l 162 463 z "},"C":{"ha":646,"x_min":52,"x_max":585,"o":"m 585 36 q 392 -17 500 -17 q 252 19 315 -17 q 144 120 189 56 q 76 273 100 184 q 52 467 52 362 q 77 673 52 578 q 150 839 102 768 q 266 949 198 909 q 418 989 334 989 q 585 951 511 989 l 585 854 q 418 907 507 907 q 292 874 347 907 q 199 784 237 842 q 142 647 161 726 q 122 474 122 568 q 140 316 122 390 q 192 186 157 241 q 279 98 227 130 q 399 65 331 65 q 585 124 505 65 l 585 36 z "},"D":{"ha":716,"x_min":94,"x_max":665,"o":"m 94 0 l 94 972 l 286 972 q 569 853 473 972 q 665 499 665 733 q 638 294 665 387 q 561 137 611 202 q 439 36 511 71 q 277 0 367 0 l 94 0 m 162 890 l 162 82 l 274 82 q 409 109 349 82 q 509 189 468 136 q 572 319 550 241 q 593 496 593 396 q 281 890 593 890 l 162 890 z "},"E":{"ha":524,"x_min":94,"x_max":467,"o":"m 94 0 l 94 972 l 450 972 l 450 890 l 162 890 l 162 533 l 429 533 l 429 452 l 162 452 l 162 82 l 467 82 l 467 0 l 94 0 z "},"F":{"ha":496,"x_min":94,"x_max":450,"o":"m 162 890 l 162 524 l 429 524 l 429 441 l 162 441 l 162 0 l 94 0 l 94 972 l 450 972 l 450 890 l 162 890 z "},"G":{"ha":705,"x_min":52,"x_max":631,"o":"m 631 67 q 393 -17 518 -17 q 250 19 313 -17 q 143 120 187 56 q 75 275 98 185 q 52 473 52 365 q 63 610 52 544 q 96 733 74 675 q 151 838 119 791 q 224 918 182 884 q 315 970 265 952 q 422 989 365 989 q 616 937 531 989 l 616 838 q 414 907 522 907 q 294 874 348 907 q 202 785 240 842 q 143 650 164 728 q 122 481 123 572 q 139 315 121 391 q 193 183 157 239 q 281 96 229 127 q 402 65 334 65 q 563 117 495 65 l 563 413 l 397 413 l 397 495 l 631 495 l 631 67 z "},"H":{"ha":722,"x_min":94,"x_max":627,"o":"m 560 0 l 560 455 l 162 455 l 162 0 l 94 0 l 94 972 l 162 972 l 162 536 l 560 536 l 560 972 l 627 972 l 627 0 l 560 0 z "},"I":{"ha":257,"x_min":94,"x_max":162,"o":"m 162 0 l 94 0 l 94 972 l 162 972 l 162 0 z "},"J":{"ha":355,"x_min":9,"x_max":265,"o":"m 265 342 q 215 72 265 160 q 72 -16 164 -16 q 39 -13 54 -16 q 9 -3 23 -10 l 9 85 q 73 65 38 65 q 168 133 138 65 q 197 342 197 201 l 197 972 l 265 972 l 265 342 z "},"K":{"ha":576,"x_min":94,"x_max":571,"o":"m 477 0 l 180 455 q 164 483 168 475 l 162 483 l 162 0 l 94 0 l 94 972 l 162 972 l 162 515 l 164 515 q 172 529 168 522 q 180 543 176 536 l 465 972 l 550 972 l 234 503 l 571 0 l 477 0 z "},"L":{"ha":484,"x_min":94,"x_max":455,"o":"m 94 0 l 94 972 l 162 972 l 162 82 l 455 82 l 455 0 l 94 0 z "},"M":{"ha":901,"x_min":94,"x_max":806,"o":"m 740 0 l 740 671 q 746 838 740 723 l 744 838 q 731 785 737 807 q 720 748 725 762 l 466 0 l 437 0 l 182 743 q 159 839 171 777 l 157 839 q 160 768 159 808 q 161 679 161 728 l 161 0 l 94 0 l 94 972 l 174 972 l 422 241 q 437 194 430 218 q 450 143 444 170 l 454 143 q 467 193 460 170 q 481 241 473 215 l 731 972 l 806 972 l 806 0 l 740 0 z "},"N":{"ha":759,"x_min":94,"x_max":664,"o":"m 594 0 l 189 781 q 174 811 182 795 q 162 842 167 827 l 159 842 q 161 808 161 829 q 162 753 162 786 l 162 0 l 94 0 l 94 972 l 170 972 l 568 201 q 584 167 576 183 q 597 138 591 151 l 600 138 q 597 188 598 160 q 596 250 596 216 l 596 972 l 664 972 l 664 0 l 594 0 z "},"O":{"ha":789,"x_min":52,"x_max":737,"o":"m 391 -17 q 250 21 313 -17 q 142 126 186 60 q 75 282 98 193 q 52 475 52 372 q 75 684 52 589 q 144 846 98 779 q 255 951 189 913 q 404 989 320 989 q 543 952 481 989 q 648 849 605 915 q 714 694 691 784 q 737 500 737 605 q 715 295 737 389 q 648 131 692 200 q 540 22 604 62 q 391 -17 475 -17 m 397 907 q 280 873 331 907 q 194 782 229 840 q 141 648 159 725 q 122 484 123 571 q 138 326 121 401 q 188 192 155 250 q 272 100 221 134 q 391 65 323 65 q 511 97 459 65 q 597 184 562 128 q 649 317 631 240 q 667 486 667 395 q 651 648 667 572 q 603 782 635 725 q 519 873 570 840 q 397 907 469 907 z "},"P":{"ha":574,"x_min":94,"x_max":522,"o":"m 162 378 l 162 0 l 94 0 l 94 972 l 283 972 q 385 954 340 972 q 459 899 429 935 q 506 810 490 863 q 522 691 522 758 q 504 566 522 623 q 452 467 486 509 q 371 402 419 425 q 263 378 323 378 l 162 378 m 162 890 l 162 461 l 259 461 q 401 519 353 461 q 450 684 450 578 q 271 890 450 890 l 162 890 z "},"Q":{"ha":789,"x_min":52,"x_max":782,"o":"m 391 -16 q 251 20 314 -16 q 144 120 189 56 q 76 276 100 185 q 52 475 52 366 q 76 687 52 593 q 146 849 100 782 q 257 952 192 916 q 404 989 323 989 q 540 953 479 989 q 645 853 601 918 q 713 698 689 788 q 737 500 737 608 q 696 228 737 342 q 581 52 654 114 l 782 -131 l 659 -131 l 512 9 q 455 -10 485 -3 q 391 -16 425 -16 m 397 907 q 286 876 336 907 q 199 789 235 845 q 142 656 163 734 q 122 484 122 578 q 141 312 122 389 q 196 180 161 235 q 280 95 231 125 q 391 65 330 65 q 505 94 454 65 q 592 176 556 122 q 647 309 628 231 q 667 486 667 387 q 648 664 667 586 q 594 796 629 742 q 509 878 559 850 q 397 907 459 907 z "},"R":{"ha":601,"x_min":94,"x_max":571,"o":"m 492 0 l 382 279 q 350 348 366 320 q 319 392 335 376 q 284 416 302 409 q 243 423 265 423 l 162 423 l 162 0 l 94 0 l 94 972 l 304 972 q 384 956 346 972 q 453 908 422 940 q 501 828 483 876 q 519 716 519 780 q 507 621 519 665 q 474 544 495 578 q 421 487 452 511 q 352 452 391 464 l 352 450 q 379 429 367 441 q 402 397 391 416 q 425 355 414 379 q 448 301 436 332 l 571 0 l 492 0 m 162 890 l 162 505 l 283 505 q 351 519 320 505 q 402 560 381 534 q 436 624 424 587 q 448 708 448 661 q 407 841 448 793 q 289 890 366 890 l 162 890 z "},"S":{"ha":536,"x_min":66,"x_max":479,"o":"m 66 142 q 106 110 84 124 q 152 85 129 95 q 198 70 175 75 q 243 65 222 65 q 367 108 326 65 q 408 231 408 151 q 399 298 408 269 q 369 352 389 327 q 317 402 349 377 q 244 458 286 427 q 164 522 197 492 q 110 584 131 552 q 78 652 88 615 q 68 735 68 688 q 87 841 68 794 q 138 921 106 888 q 213 971 170 954 q 305 989 256 989 q 449 957 391 989 l 449 857 q 298 907 385 907 q 236 896 265 907 q 186 865 208 886 q 152 815 164 845 q 139 745 139 785 q 148 679 139 707 q 175 627 156 652 q 223 579 193 603 q 298 524 254 555 q 377 460 343 491 q 434 396 412 429 q 468 325 456 362 q 479 241 479 287 q 461 129 479 177 q 411 48 444 80 q 335 0 379 16 q 238 -16 291 -16 q 197 -13 220 -16 q 149 -2 173 -9 q 102 15 124 5 q 66 37 80 25 l 66 142 z "},"T":{"ha":539,"x_min":25,"x_max":513,"o":"m 303 890 l 303 0 l 235 0 l 235 890 l 25 890 l 25 972 l 513 972 l 513 890 l 303 890 z "},"U":{"ha":695,"x_min":85,"x_max":610,"o":"m 610 391 q 341 -17 610 -17 q 85 376 85 -17 l 85 972 l 153 972 l 153 384 q 201 144 153 224 q 351 65 250 65 q 542 374 542 65 l 542 972 l 610 972 l 610 391 z "},"V":{"ha":637,"x_min":15,"x_max":623,"o":"m 347 0 l 280 0 l 15 972 l 90 972 l 297 195 q 307 152 302 174 q 314 106 311 130 l 316 106 q 323 148 318 125 q 334 197 328 170 l 550 972 l 623 972 l 347 0 z "},"W":{"ha":953,"x_min":19,"x_max":933,"o":"m 723 0 l 652 0 l 496 721 q 488 770 491 747 q 484 817 484 794 l 481 817 q 467 722 479 777 l 305 0 l 235 0 l 19 972 l 94 972 l 255 210 q 264 162 261 184 q 269 118 267 139 l 271 118 q 288 210 275 149 l 459 972 l 513 972 l 673 207 q 681 162 677 184 q 686 119 684 140 l 688 119 q 693 149 690 132 q 700 187 696 166 l 859 972 l 933 972 l 723 0 z "},"X":{"ha":600,"x_min":22,"x_max":574,"o":"m 492 0 l 324 372 q 312 400 318 385 q 302 429 306 415 l 300 429 q 289 401 294 416 q 277 372 283 387 l 104 0 l 22 0 l 259 490 l 39 972 l 121 972 l 277 618 q 291 586 284 603 q 304 552 297 570 l 306 552 q 319 589 313 572 q 333 620 326 606 l 492 972 l 570 972 l 347 491 l 574 0 l 492 0 z "},"Y":{"ha":569,"x_min":17,"x_max":552,"o":"m 314 364 l 314 0 l 246 0 l 246 362 l 17 972 l 94 972 l 261 518 q 269 494 264 510 q 281 452 274 477 l 283 452 q 291 481 286 465 q 305 517 297 497 l 479 972 l 552 972 l 314 364 z "},"Z":{"ha":593,"x_min":25,"x_max":562,"o":"m 127 82 l 553 82 l 553 0 l 25 0 l 25 26 l 458 890 l 60 890 l 60 972 l 562 972 l 562 949 l 127 82 z "},"[":{"ha":304,"x_min":104,"x_max":278,"o":"m 104 -221 l 104 972 l 278 972 l 278 903 l 164 903 l 164 -152 l 278 -152 l 278 -221 l 104 -221 z "},"\\":{"ha":388,"x_min":-14,"x_max":396,"o":"m 334 -162 l -14 972 l 50 972 l 396 -162 l 334 -162 z "},"]":{"ha":304,"x_min":26,"x_max":200,"o":"m 26 -221 l 26 -152 l 140 -152 l 140 903 l 26 903 l 26 972 l 200 972 l 200 -221 l 26 -221 z "},"^":{"ha":694,"x_min":125,"x_max":570,"o":"m 508 450 l 346 867 l 343 867 l 186 450 l 125 450 l 330 989 l 357 989 l 570 450 l 508 450 z "},"_":{"ha":432,"x_min":0,"x_max":432,"o":"m 0 -191 l 0 -121 l 432 -121 l 432 -191 l 0 -191 z "},"`":{"ha":269,"x_min":40,"x_max":224,"o":"m 170 816 l 40 1038 l 109 1038 l 224 816 l 170 816 z "},"a":{"ha":522,"x_min":50,"x_max":449,"o":"m 384 0 l 384 123 l 382 123 q 313 20 357 57 q 213 -16 269 -16 q 145 -2 176 -16 q 94 38 115 12 q 61 101 73 64 q 50 182 50 138 q 93 332 50 276 q 226 405 137 388 l 384 435 q 267 635 384 635 q 98 547 176 635 l 98 642 q 135 670 115 657 q 179 691 156 682 q 226 706 202 701 q 273 711 250 711 q 405 646 360 711 q 449 452 449 581 l 449 0 l 384 0 m 250 337 q 190 320 214 330 q 149 293 165 310 q 124 250 132 275 q 117 187 117 224 q 124 136 117 159 q 145 95 132 112 q 180 68 159 77 q 225 58 200 58 q 289 76 260 58 q 339 125 318 94 q 372 199 360 156 q 384 294 384 243 l 384 362 l 250 337 z "},"b":{"ha":597,"x_min":84,"x_max":550,"o":"m 149 112 l 149 0 l 84 0 l 84 1028 l 149 1028 l 149 562 l 151 562 q 229 672 180 634 q 338 711 277 711 q 427 687 388 711 q 494 618 467 663 q 536 510 522 573 q 550 370 550 447 q 534 213 550 283 q 487 91 517 142 q 413 12 456 40 q 315 -16 369 -16 q 151 112 205 -16 l 149 112 m 149 289 q 161 200 149 241 q 194 126 173 158 q 246 77 216 95 q 313 58 276 58 q 384 80 352 58 q 437 143 415 102 q 471 241 459 184 q 483 370 483 299 q 472 480 483 431 q 440 564 460 530 q 390 617 420 599 q 325 635 361 635 q 252 615 284 635 q 196 561 219 595 q 161 480 174 526 q 149 381 149 433 l 149 289 z "},"c":{"ha":471,"x_min":47,"x_max":432,"o":"m 430 31 q 290 -17 372 -16 q 189 9 234 -18 q 113 82 144 35 q 64 194 81 130 q 47 333 47 258 q 65 480 47 411 q 117 600 83 549 q 201 681 151 651 q 314 711 250 711 q 432 677 378 711 l 432 585 q 309 635 375 635 q 226 612 262 635 q 165 548 190 589 q 128 454 141 508 q 115 340 115 400 q 126 233 115 284 q 159 143 137 182 q 216 81 182 104 q 298 58 251 58 q 430 117 371 58 l 430 31 z "},"d":{"ha":598,"x_min":47,"x_max":514,"o":"m 449 0 l 449 122 l 447 122 q 373 20 421 56 q 264 -16 325 -16 q 175 8 215 -16 q 106 77 135 32 q 63 187 78 123 q 47 333 47 252 q 64 487 47 417 q 113 606 81 556 q 188 683 144 656 q 286 711 232 711 q 447 591 398 711 l 449 591 l 449 1028 l 514 1028 l 514 0 l 449 0 m 449 419 q 437 504 449 465 q 405 572 426 543 q 355 618 384 602 q 290 635 326 635 q 219 615 252 635 q 163 556 186 595 q 127 463 140 518 q 115 338 115 408 q 126 220 115 273 q 159 132 138 168 q 211 77 181 96 q 277 58 241 58 q 349 77 317 58 q 403 130 381 96 q 437 208 425 163 q 449 303 449 252 l 449 419 z "},"e":{"ha":535,"x_min":47,"x_max":491,"o":"m 115 332 q 127 217 115 268 q 163 131 140 166 q 218 77 186 96 q 292 58 251 58 q 458 140 380 58 l 458 55 q 277 -16 384 -16 q 182 8 225 -16 q 110 79 140 33 q 64 193 80 125 q 47 348 47 261 q 65 492 47 426 q 114 607 83 559 q 189 683 146 656 q 283 711 233 711 q 373 687 334 711 q 438 621 412 664 q 477 515 464 577 q 491 375 491 452 l 491 332 l 115 332 m 424 408 q 386 576 422 516 q 282 635 349 635 q 221 620 249 635 q 171 575 193 604 q 136 503 150 545 q 117 408 122 460 l 424 408 z "},"f":{"ha":307,"x_min":22,"x_max":326,"o":"m 326 946 q 270 965 304 965 q 178 806 178 965 l 178 694 l 308 694 l 308 618 l 178 618 l 178 0 l 113 0 l 113 618 l 22 618 l 22 694 l 113 694 l 113 811 q 123 906 113 863 q 152 978 133 948 q 201 1025 172 1008 q 269 1041 231 1041 q 326 1028 305 1041 l 326 946 z "},"g":{"ha":598,"x_min":47,"x_max":514,"o":"m 514 54 q 448 -233 514 -140 q 245 -326 382 -326 q 83 -275 159 -326 l 83 -187 q 245 -250 168 -250 q 449 37 449 -250 l 449 121 l 447 121 q 264 -16 387 -16 q 176 7 216 -16 q 107 76 136 31 q 63 185 79 121 q 47 330 47 249 q 64 485 47 415 q 112 606 81 555 q 187 683 143 656 q 286 711 231 711 q 447 591 396 711 l 449 591 l 449 694 l 514 694 l 514 54 m 449 422 q 437 504 449 465 q 405 572 426 543 q 355 618 384 601 q 292 635 326 635 q 218 614 251 635 q 162 555 186 593 q 127 461 139 516 q 115 336 115 406 q 126 221 115 273 q 159 134 138 170 q 211 78 180 98 q 278 58 241 58 q 348 77 317 58 q 402 129 380 96 q 437 206 425 161 q 449 302 449 250 l 449 422 z "},"h":{"ha":573,"x_min":84,"x_max":500,"o":"m 435 0 l 435 408 q 404 580 435 525 q 306 635 372 635 q 245 618 274 635 q 196 570 217 602 q 162 492 174 538 q 149 389 149 446 l 149 0 l 84 0 l 84 1028 l 149 1028 l 149 574 l 151 574 q 326 711 212 711 q 457 640 413 711 q 500 429 500 568 l 500 0 l 435 0 z "},"i":{"ha":233,"x_min":70,"x_max":163,"o":"m 116 870 q 83 888 97 870 q 70 932 70 905 q 83 976 70 959 q 116 994 97 994 q 134 989 125 994 q 149 977 143 985 q 159 957 155 968 q 163 932 163 946 q 160 908 163 920 q 150 888 156 897 q 135 875 143 880 q 116 870 126 870 m 84 0 l 84 694 l 149 694 l 149 0 l 84 0 z "},"j":{"ha":233,"x_min":-115,"x_max":163,"o":"m 149 24 q 103 -237 149 -148 q -43 -327 58 -327 q -115 -304 -79 -327 l -115 -220 q -39 -251 -75 -251 q 84 9 84 -251 l 84 694 l 149 694 l 149 24 m 116 870 q 83 888 97 870 q 70 932 70 905 q 83 976 70 959 q 116 994 97 994 q 134 989 125 994 q 149 977 143 985 q 159 957 155 968 q 163 932 163 946 q 160 908 163 920 q 150 888 156 897 q 135 875 143 880 q 116 870 126 870 z "},"k":{"ha":490,"x_min":84,"x_max":483,"o":"m 391 0 l 151 338 l 149 338 l 149 0 l 84 0 l 84 1028 l 149 1028 l 149 371 l 151 371 l 378 694 l 463 694 l 219 359 l 483 0 l 391 0 z "},"l":{"ha":233,"x_min":84,"x_max":149,"o":"m 84 0 l 84 1028 l 149 1028 l 149 0 l 84 0 z "},"m":{"ha":876,"x_min":84,"x_max":804,"o":"m 739 0 l 739 408 q 731 514 739 471 q 709 584 724 557 q 671 623 694 611 q 616 635 648 635 q 562 617 587 635 q 517 568 536 600 q 488 494 498 536 q 477 401 477 451 l 477 0 l 412 0 l 412 417 q 286 635 412 635 q 232 618 257 635 q 188 570 207 601 q 159 495 170 538 q 149 398 149 451 l 149 0 l 84 0 l 84 694 l 149 694 l 149 582 l 151 582 q 311 711 206 711 q 363 700 338 711 q 407 668 387 688 q 440 621 426 648 q 461 559 454 593 q 533 672 489 633 q 632 711 576 711 q 804 429 804 711 l 804 0 l 739 0 z "},"n":{"ha":573,"x_min":84,"x_max":500,"o":"m 435 0 l 435 400 q 307 635 435 635 q 244 617 273 635 q 194 568 215 600 q 161 492 173 536 q 149 397 149 448 l 149 0 l 84 0 l 84 694 l 149 694 l 149 574 l 151 574 q 326 711 209 711 q 456 637 411 711 q 500 423 500 563 l 500 0 l 435 0 z "},"o":{"ha":597,"x_min":47,"x_max":550,"o":"m 297 -16 q 193 9 239 -16 q 115 82 147 35 q 65 195 82 130 q 47 341 47 261 q 66 496 47 428 q 118 613 84 565 q 199 686 151 661 q 306 711 247 711 q 408 686 363 711 q 485 614 453 661 q 533 500 516 568 q 550 348 550 433 q 532 200 550 267 q 482 85 515 133 q 403 10 450 37 q 297 -16 356 -16 m 302 635 q 224 616 259 635 q 165 558 190 596 q 128 466 141 521 q 115 342 115 412 q 128 225 115 277 q 165 136 141 173 q 224 78 189 98 q 301 58 258 58 q 378 78 345 58 q 435 134 412 97 q 471 224 458 171 q 483 347 483 278 q 436 561 483 487 q 302 635 389 635 z "},"p":{"ha":597,"x_min":84,"x_max":550,"o":"m 149 112 l 149 -319 l 84 -319 l 84 694 l 149 694 l 149 562 l 151 562 q 229 672 180 634 q 338 711 277 711 q 427 687 388 711 q 494 618 467 663 q 536 511 522 574 q 550 370 550 448 q 534 213 550 283 q 487 91 517 142 q 413 12 456 40 q 315 -16 370 -16 q 151 112 205 -16 l 149 112 m 149 289 q 161 200 149 241 q 194 126 173 158 q 246 77 216 95 q 313 58 276 58 q 384 80 352 58 q 437 143 415 102 q 471 241 459 184 q 483 370 483 299 q 472 480 483 431 q 440 564 460 530 q 390 617 420 599 q 325 635 361 635 q 252 615 284 635 q 196 561 219 595 q 161 480 174 526 q 149 381 149 433 l 149 289 z "},"q":{"ha":598,"x_min":47,"x_max":514,"o":"m 449 -319 l 449 123 l 447 123 q 264 -16 391 -16 q 174 8 214 -16 q 106 78 134 33 q 63 188 78 123 q 47 334 47 253 q 65 490 47 420 q 114 609 82 559 q 189 684 145 658 q 287 711 233 711 q 447 590 398 711 l 449 590 l 449 694 l 514 694 l 514 -319 l 449 -319 m 449 415 q 437 502 449 462 q 405 572 426 543 q 355 618 385 602 q 290 635 326 635 q 219 615 251 635 q 163 557 186 595 q 127 464 140 519 q 115 336 115 408 q 126 220 115 271 q 159 132 138 168 q 210 77 180 96 q 275 58 239 58 q 349 78 317 58 q 404 130 381 97 q 437 208 426 163 q 449 304 449 253 l 449 415 z "},"r":{"ha":353,"x_min":84,"x_max":342,"o":"m 342 606 q 283 628 319 628 q 237 615 257 628 q 203 579 218 602 q 177 527 188 557 q 160 466 167 498 q 151 401 154 434 q 149 340 149 369 l 149 0 l 84 0 l 84 694 l 149 694 l 149 546 l 151 546 q 174 614 159 584 q 206 665 188 644 q 246 696 224 686 q 292 707 267 707 q 320 705 307 707 q 342 696 332 702 l 342 606 z "},"s":{"ha":423,"x_min":54,"x_max":377,"o":"m 54 125 q 86 97 69 109 q 122 76 104 85 q 159 63 140 67 q 194 58 178 58 q 310 174 310 58 q 302 220 310 201 q 278 255 294 239 q 242 285 263 271 q 194 313 220 298 q 132 353 157 333 q 89 398 106 374 q 64 451 72 422 q 56 516 56 479 q 71 598 56 562 q 112 659 86 634 q 170 697 137 684 q 240 711 203 711 q 358 677 308 711 l 358 585 q 232 635 300 635 q 188 627 208 635 q 153 604 168 619 q 131 569 139 589 q 123 523 123 548 q 129 478 123 497 q 148 443 135 458 q 182 413 161 427 q 232 382 202 399 q 297 342 269 362 q 342 299 324 322 q 369 247 360 275 q 377 180 377 218 q 363 96 377 133 q 323 35 349 60 q 262 -3 297 9 q 187 -16 228 -16 q 54 28 109 -16 l 54 125 z "},"t":{"ha":331,"x_min":17,"x_max":308,"o":"m 308 8 q 235 -14 274 -14 q 109 180 109 -14 l 109 618 l 17 618 l 17 694 l 109 694 l 109 869 l 174 898 l 174 694 l 308 694 l 308 618 l 174 618 l 174 193 q 191 92 174 123 q 249 60 208 60 q 308 85 279 60 l 308 8 z "},"u":{"ha":574,"x_min":73,"x_max":490,"o":"m 425 0 l 425 118 l 422 118 q 258 -16 370 -16 q 73 286 73 -16 l 73 694 l 138 694 l 138 302 q 171 118 138 178 q 273 58 204 58 q 334 76 307 58 q 382 124 362 93 q 413 200 402 156 q 425 298 425 244 l 425 694 l 490 694 l 490 0 l 425 0 z "},"v":{"ha":485,"x_min":8,"x_max":477,"o":"m 269 0 l 208 0 l 8 694 l 80 694 l 224 165 q 241 81 237 117 l 243 81 q 258 163 249 130 l 408 694 l 477 694 l 269 0 z "},"w":{"ha":729,"x_min":15,"x_max":713,"o":"m 554 0 l 489 0 l 379 510 q 371 572 374 534 l 369 572 q 365 547 368 562 q 358 511 363 532 l 237 0 l 173 0 l 15 694 l 85 694 l 199 156 q 206 96 204 132 l 210 96 q 214 123 212 108 q 220 157 216 139 l 347 694 l 400 694 l 513 155 q 521 95 517 132 l 525 95 q 527 122 524 106 q 534 155 530 137 l 648 694 l 713 694 l 554 0 z "},"x":{"ha":458,"x_min":15,"x_max":444,"o":"m 267 342 l 438 0 l 360 0 l 254 230 q 242 256 248 243 q 229 286 235 270 l 227 286 q 219 268 224 279 q 206 239 214 256 l 92 0 l 15 0 l 191 340 l 21 694 l 96 694 l 205 451 q 219 418 213 433 q 229 394 225 404 l 231 394 q 243 420 238 407 q 255 447 249 433 l 370 694 l 444 694 l 267 342 z "},"y":{"ha":488,"x_min":9,"x_max":481,"o":"m 235 -126 q 164 -277 204 -228 q 68 -326 125 -326 q 21 -317 41 -326 l 21 -236 q 44 -244 33 -241 q 67 -247 56 -247 q 123 -220 99 -247 q 163 -139 146 -193 l 209 3 l 9 694 l 81 694 l 230 144 q 236 120 233 134 q 241 92 239 106 l 243 92 q 249 116 246 104 q 255 142 251 127 l 413 694 l 481 694 l 235 -126 z "},"z":{"ha":477,"x_min":23,"x_max":450,"o":"m 122 76 l 443 76 l 443 0 l 23 0 l 23 29 l 350 618 l 50 618 l 50 694 l 450 694 l 450 670 l 122 76 z "},"{":{"ha":304,"x_min":47,"x_max":269,"o":"m 269 -221 q 162 -170 198 -218 q 127 -17 127 -121 l 127 185 q 106 300 127 260 q 47 345 86 340 l 47 406 q 127 562 127 418 l 127 767 q 162 921 127 871 q 269 972 198 970 l 269 901 q 208 863 227 897 q 189 753 189 829 l 189 555 q 113 377 189 408 l 113 374 q 189 192 189 343 l 189 1 q 193 -66 189 -39 q 207 -113 197 -94 q 232 -140 216 -131 q 269 -150 247 -149 l 269 -221 z "},"|":{"ha":242,"x_min":90,"x_max":152,"o":"m 90 -326 l 90 1062 l 152 1062 l 152 -326 l 90 -326 z "},"}":{"ha":304,"x_min":35,"x_max":257,"o":"m 257 345 q 178 185 178 334 l 178 -17 q 142 -170 178 -121 q 35 -221 106 -218 l 35 -150 q 71 -141 56 -149 q 96 -116 86 -133 q 111 -70 106 -98 q 116 1 116 -41 l 116 192 q 191 374 116 342 l 191 377 q 116 555 116 409 l 116 753 q 111 821 116 793 q 96 866 106 848 q 71 891 86 883 q 35 901 56 899 l 35 972 q 142 921 106 970 q 178 767 178 872 l 178 562 q 257 406 178 416 l 257 345 z "},"~":{"ha":694,"x_min":115,"x_max":580,"o":"m 580 495 q 542 357 576 406 q 450 308 508 308 q 331 374 397 308 q 245 425 279 425 q 170 311 174 425 l 115 311 q 126 389 117 355 q 153 448 136 424 q 193 486 170 473 q 246 498 217 498 q 355 441 297 498 q 387 413 373 425 q 412 394 400 401 q 433 384 423 387 q 452 380 443 380 q 504 410 485 380 q 526 495 523 440 l 580 495 z "},"Ä":{"ha":663,"x_min":20,"x_max":642,"o":"m 567 0 l 487 288 l 174 288 l 96 0 l 20 0 l 298 972 l 366 972 l 642 0 l 567 0 m 345 802 q 337 832 341 815 q 331 871 334 849 l 329 871 q 322 832 326 849 q 315 802 318 815 l 197 370 l 464 370 l 345 802 m 420 1052 q 390 1068 403 1052 q 377 1109 377 1084 q 390 1151 377 1135 q 418 1166 402 1166 q 450 1150 437 1166 q 463 1109 463 1134 q 451 1068 463 1085 q 420 1052 439 1052 m 237 1052 q 221 1056 229 1052 q 207 1068 213 1061 q 197 1087 201 1076 q 193 1109 193 1097 q 206 1151 193 1135 q 236 1166 219 1166 q 254 1162 245 1166 q 268 1150 262 1158 q 277 1132 274 1143 q 281 1109 281 1122 q 268 1068 281 1085 q 237 1052 256 1052 z "},"Å":{"ha":663,"x_min":20,"x_max":642,"o":"m 567 0 l 487 288 l 174 288 l 96 0 l 20 0 l 287 933 q 227 1048 227 965 q 235 1101 227 1077 q 258 1142 243 1125 q 291 1169 272 1160 q 332 1179 310 1179 q 373 1169 354 1179 q 405 1143 391 1160 q 426 1103 418 1126 q 434 1050 434 1079 q 376 935 434 969 l 642 0 l 567 0 m 330 1128 q 286 1106 303 1128 q 269 1050 269 1085 q 286 993 269 1013 q 330 972 302 972 q 375 994 357 972 q 393 1050 393 1016 q 388 1082 393 1068 q 375 1107 383 1097 q 355 1122 366 1117 q 330 1128 344 1128 m 351 781 q 340 820 345 800 q 331 871 336 840 l 329 871 q 322 832 326 849 q 315 802 318 815 l 197 370 l 464 370 l 351 781 z "},"Ç":{"ha":646,"x_min":52,"x_max":585,"o":"m 585 36 q 392 -17 500 -17 q 252 19 315 -17 q 144 120 189 56 q 76 273 100 184 q 52 467 52 362 q 77 673 52 578 q 150 839 102 768 q 266 949 198 909 q 418 989 334 989 q 585 951 511 989 l 585 854 q 418 907 507 907 q 292 874 347 907 q 199 784 237 842 q 142 647 161 726 q 122 474 122 568 q 140 316 122 390 q 192 186 157 241 q 279 98 227 130 q 399 65 331 65 q 585 124 505 65 l 585 36 m 484 -176 q 349 -294 484 -294 q 313 -292 331 -294 l 313 -236 q 353 -240 337 -240 q 429 -178 429 -240 q 359 -123 429 -123 q 347 -123 353 -123 q 333 -125 341 -124 l 333 0 l 378 0 l 378 -75 q 457 -101 429 -75 q 484 -176 484 -127 z "},"É":{"ha":524,"x_min":94,"x_max":467,"o":"m 94 0 l 94 972 l 450 972 l 450 890 l 162 890 l 162 533 l 429 533 l 429 452 l 162 452 l 162 82 l 467 82 l 467 0 l 94 0 m 266 1052 l 211 1052 l 327 1274 l 395 1274 l 266 1052 z "},"Ñ":{"ha":759,"x_min":94,"x_max":664,"o":"m 594 0 l 189 781 q 174 811 182 795 q 162 842 167 827 l 159 842 q 161 808 161 829 q 162 753 162 786 l 162 0 l 94 0 l 94 972 l 170 972 l 568 201 q 584 167 576 183 q 597 138 591 151 l 600 138 q 597 188 598 160 q 596 250 596 216 l 596 972 l 664 972 l 664 0 l 594 0 m 563 1213 q 557 1149 563 1178 q 539 1100 551 1121 q 510 1068 527 1080 q 472 1057 494 1057 q 393 1100 437 1057 q 332 1133 357 1133 q 284 1046 284 1133 l 241 1046 q 248 1109 241 1081 q 266 1158 254 1138 q 295 1190 278 1179 q 333 1201 311 1201 q 411 1159 368 1201 q 473 1124 447 1124 q 507 1146 494 1124 q 519 1213 519 1168 l 563 1213 z "},"Ö":{"ha":789,"x_min":52,"x_max":737,"o":"m 391 -17 q 250 21 313 -17 q 142 126 186 60 q 75 282 98 193 q 52 475 52 372 q 75 684 52 589 q 144 846 98 779 q 255 951 189 913 q 404 989 320 989 q 543 952 481 989 q 648 849 605 915 q 714 694 691 784 q 737 500 737 605 q 715 295 737 389 q 648 131 692 200 q 540 22 604 62 q 391 -17 475 -17 m 397 907 q 280 873 331 907 q 194 782 229 840 q 141 648 159 725 q 122 484 123 571 q 138 326 121 401 q 188 192 155 250 q 272 100 221 134 q 391 65 323 65 q 511 97 459 65 q 597 184 562 128 q 649 317 631 240 q 667 486 667 395 q 651 648 667 572 q 603 782 635 725 q 519 873 570 840 q 397 907 469 907 m 487 1052 q 457 1068 470 1052 q 444 1109 444 1084 q 457 1151 444 1135 q 486 1166 469 1166 q 517 1150 504 1166 q 530 1109 530 1134 q 518 1068 530 1085 q 487 1052 506 1052 m 304 1052 q 288 1056 296 1052 q 274 1068 280 1061 q 264 1087 268 1076 q 260 1109 260 1097 q 273 1151 260 1135 q 303 1166 286 1166 q 321 1162 313 1166 q 335 1150 329 1158 q 345 1132 341 1143 q 348 1109 348 1122 q 335 1068 348 1085 q 304 1052 323 1052 z "},"Ü":{"ha":695,"x_min":85,"x_max":610,"o":"m 610 391 q 341 -17 610 -17 q 85 376 85 -17 l 85 972 l 153 972 l 153 384 q 201 144 153 224 q 351 65 250 65 q 542 374 542 65 l 542 972 l 610 972 l 610 391 m 446 1052 q 416 1068 429 1052 q 404 1109 404 1084 q 416 1151 404 1135 q 445 1166 429 1166 q 476 1150 463 1166 q 490 1109 490 1134 q 477 1068 490 1085 q 446 1052 465 1052 m 264 1052 q 247 1056 255 1052 q 233 1068 239 1061 q 223 1087 227 1076 q 220 1109 220 1097 q 233 1151 220 1135 q 262 1166 245 1166 q 280 1162 272 1166 q 294 1150 288 1158 q 304 1132 300 1143 q 307 1109 307 1122 q 295 1068 307 1085 q 264 1052 282 1052 z "},"á":{"ha":522,"x_min":50,"x_max":449,"o":"m 384 0 l 384 123 l 382 123 q 313 20 357 57 q 213 -16 269 -16 q 145 -2 176 -16 q 94 38 115 12 q 61 101 73 64 q 50 182 50 138 q 93 332 50 276 q 226 405 137 388 l 384 435 q 267 635 384 635 q 98 547 176 635 l 98 642 q 135 670 115 657 q 179 691 156 682 q 226 706 202 701 q 273 711 250 711 q 405 646 360 711 q 449 452 449 581 l 449 0 l 384 0 m 250 337 q 190 320 214 330 q 149 293 165 310 q 124 250 132 275 q 117 187 117 224 q 124 136 117 159 q 145 95 132 112 q 180 68 159 77 q 225 58 200 58 q 289 76 260 58 q 339 125 318 94 q 372 199 360 156 q 384 294 384 243 l 384 362 l 250 337 m 241 816 l 186 816 l 302 1038 l 370 1038 l 241 816 z "},"à":{"ha":522,"x_min":50,"x_max":449,"o":"m 384 0 l 384 123 l 382 123 q 313 20 357 57 q 213 -16 269 -16 q 145 -2 176 -16 q 94 38 115 12 q 61 101 73 64 q 50 182 50 138 q 93 332 50 276 q 226 405 137 388 l 384 435 q 267 635 384 635 q 98 547 176 635 l 98 642 q 135 670 115 657 q 179 691 156 682 q 226 706 202 701 q 273 711 250 711 q 405 646 360 711 q 449 452 449 581 l 449 0 l 384 0 m 250 337 q 190 320 214 330 q 149 293 165 310 q 124 250 132 275 q 117 187 117 224 q 124 136 117 159 q 145 95 132 112 q 180 68 159 77 q 225 58 200 58 q 289 76 260 58 q 339 125 318 94 q 372 199 360 156 q 384 294 384 243 l 384 362 l 250 337 m 271 816 l 141 1038 l 210 1038 l 326 816 l 271 816 z "},"â":{"ha":522,"x_min":50,"x_max":449,"o":"m 384 0 l 384 123 l 382 123 q 313 20 357 57 q 213 -16 269 -16 q 145 -2 176 -16 q 94 38 115 12 q 61 101 73 64 q 50 182 50 138 q 93 332 50 276 q 226 405 137 388 l 384 435 q 267 635 384 635 q 98 547 176 635 l 98 642 q 135 670 115 657 q 179 691 156 682 q 226 706 202 701 q 273 711 250 711 q 405 646 360 711 q 449 452 449 581 l 449 0 l 384 0 m 250 337 q 190 320 214 330 q 149 293 165 310 q 124 250 132 275 q 117 187 117 224 q 124 136 117 159 q 145 95 132 112 q 180 68 159 77 q 225 58 200 58 q 289 76 260 58 q 339 125 318 94 q 372 199 360 156 q 384 294 384 243 l 384 362 l 250 337 m 344 816 l 262 975 l 180 816 l 130 816 l 241 1042 l 286 1042 l 397 816 l 344 816 z "},"ä":{"ha":522,"x_min":50,"x_max":449,"o":"m 384 0 l 384 123 l 382 123 q 313 20 357 57 q 213 -16 269 -16 q 145 -2 176 -16 q 94 38 115 12 q 61 101 73 64 q 50 182 50 138 q 93 332 50 276 q 226 405 137 388 l 384 435 q 267 635 384 635 q 98 547 176 635 l 98 642 q 135 670 115 657 q 179 691 156 682 q 226 706 202 701 q 273 711 250 711 q 405 646 360 711 q 449 452 449 581 l 449 0 l 384 0 m 250 337 q 190 320 214 330 q 149 293 165 310 q 124 250 132 275 q 117 187 117 224 q 124 136 117 159 q 145 95 132 112 q 180 68 159 77 q 225 58 200 58 q 289 76 260 58 q 339 125 318 94 q 372 199 360 156 q 384 294 384 243 l 384 362 l 250 337 m 349 816 q 319 832 332 816 q 306 873 306 848 q 318 915 306 899 q 347 930 331 930 q 379 914 366 930 q 392 873 392 898 q 380 832 392 849 q 349 816 368 816 m 166 816 q 150 820 157 816 q 136 832 142 825 q 126 851 130 840 q 122 873 122 861 q 135 915 122 899 q 165 930 148 930 q 182 926 174 930 q 197 914 191 922 q 206 896 203 907 q 210 873 210 886 q 197 832 210 849 q 166 816 184 816 z "},"ã":{"ha":522,"x_min":50,"x_max":449,"o":"m 384 0 l 384 123 l 382 123 q 313 20 357 57 q 213 -16 269 -16 q 145 -2 176 -16 q 94 38 115 12 q 61 101 73 64 q 50 182 50 138 q 93 332 50 276 q 226 405 137 388 l 384 435 q 267 635 384 635 q 98 547 176 635 l 98 642 q 135 670 115 657 q 179 691 156 682 q 226 706 202 701 q 273 711 250 711 q 405 646 360 711 q 449 452 449 581 l 449 0 l 384 0 m 250 337 q 190 320 214 330 q 149 293 165 310 q 124 250 132 275 q 117 187 117 224 q 124 136 117 159 q 145 95 132 112 q 180 68 159 77 q 225 58 200 58 q 289 76 260 58 q 339 125 318 94 q 372 199 360 156 q 384 294 384 243 l 384 362 l 250 337 m 424 977 q 418 913 424 942 q 400 864 412 885 q 371 832 388 844 q 333 821 355 821 q 254 864 298 821 q 193 897 218 897 q 145 810 145 897 l 102 810 q 109 873 102 845 q 127 922 115 902 q 156 954 139 943 q 194 965 172 965 q 272 923 229 965 q 334 888 308 888 q 368 910 355 888 q 380 977 380 932 l 424 977 z "},"å":{"ha":522,"x_min":50,"x_max":449,"o":"m 384 0 l 384 123 l 382 123 q 313 20 357 57 q 213 -16 269 -16 q 145 -2 176 -16 q 94 38 115 12 q 61 101 73 64 q 50 182 50 138 q 93 332 50 276 q 226 405 137 388 l 384 435 q 267 635 384 635 q 98 547 176 635 l 98 642 q 135 670 115 657 q 179 691 156 682 q 226 706 202 701 q 273 711 250 711 q 405 646 360 711 q 449 452 449 581 l 449 0 l 384 0 m 250 337 q 190 320 214 330 q 149 293 165 310 q 124 250 132 275 q 117 187 117 224 q 124 136 117 159 q 145 95 132 112 q 180 68 159 77 q 225 58 200 58 q 289 76 260 58 q 339 125 318 94 q 372 199 360 156 q 384 294 384 243 l 384 362 l 250 337 m 263 802 q 224 810 243 802 q 192 836 206 819 q 170 876 178 852 q 161 928 161 899 q 170 981 161 957 q 192 1022 178 1004 q 225 1048 206 1039 q 265 1058 243 1058 q 304 1049 286 1058 q 336 1024 322 1040 q 359 983 351 1007 q 368 930 368 960 q 360 879 368 903 q 337 839 351 856 q 303 811 322 821 q 263 802 285 802 m 263 1008 q 220 986 237 1008 q 203 930 203 964 q 219 872 203 892 q 263 852 235 852 q 289 858 277 852 q 308 874 300 863 q 321 899 317 884 q 326 930 326 913 q 308 987 326 966 q 263 1008 290 1008 z "},"ç":{"ha":471,"x_min":47,"x_max":432,"o":"m 430 31 q 290 -17 372 -16 q 189 9 234 -18 q 113 82 144 35 q 64 194 81 130 q 47 333 47 258 q 65 480 47 411 q 117 600 83 549 q 201 681 151 651 q 314 711 250 711 q 432 677 378 711 l 432 585 q 309 635 375 635 q 226 612 262 635 q 165 548 190 589 q 128 454 141 508 q 115 340 115 400 q 126 233 115 284 q 159 143 137 182 q 216 81 182 104 q 298 58 251 58 q 430 117 371 58 l 430 31 m 386 -176 q 251 -294 386 -294 q 214 -292 233 -294 l 214 -236 q 254 -240 239 -240 q 330 -178 330 -240 q 261 -123 330 -123 q 249 -123 255 -123 q 235 -125 243 -124 l 235 0 l 280 0 l 280 -75 q 358 -101 331 -75 q 386 -176 386 -127 z "},"é":{"ha":535,"x_min":47,"x_max":491,"o":"m 115 332 q 127 217 115 268 q 163 131 140 166 q 218 77 186 96 q 292 58 251 58 q 458 140 380 58 l 458 55 q 277 -16 384 -16 q 182 8 225 -16 q 110 79 140 33 q 64 193 80 125 q 47 348 47 261 q 65 492 47 426 q 114 607 83 559 q 189 683 146 656 q 283 711 233 711 q 373 687 334 711 q 438 621 412 664 q 477 515 464 577 q 491 375 491 452 l 491 332 l 115 332 m 424 408 q 386 576 422 516 q 282 635 349 635 q 221 620 249 635 q 171 575 193 604 q 136 503 150 545 q 117 408 122 460 l 424 408 m 259 816 l 204 816 l 320 1038 l 389 1038 l 259 816 z "},"è":{"ha":535,"x_min":47,"x_max":491,"o":"m 115 332 q 127 217 115 268 q 163 131 140 166 q 218 77 186 96 q 292 58 251 58 q 458 140 380 58 l 458 55 q 277 -16 384 -16 q 182 8 225 -16 q 110 79 140 33 q 64 193 80 125 q 47 348 47 261 q 65 492 47 426 q 114 607 83 559 q 189 683 146 656 q 283 711 233 711 q 373 687 334 711 q 438 621 412 664 q 477 515 464 577 q 491 375 491 452 l 491 332 l 115 332 m 424 408 q 386 576 422 516 q 282 635 349 635 q 221 620 249 635 q 171 575 193 604 q 136 503 150 545 q 117 408 122 460 l 424 408 m 296 816 l 167 1038 l 236 1038 l 351 816 l 296 816 z "},"ê":{"ha":535,"x_min":47,"x_max":491,"o":"m 115 332 q 127 217 115 268 q 163 131 140 166 q 218 77 186 96 q 292 58 251 58 q 458 140 380 58 l 458 55 q 277 -16 384 -16 q 182 8 225 -16 q 110 79 140 33 q 64 193 80 125 q 47 348 47 261 q 65 492 47 426 q 114 607 83 559 q 189 683 146 656 q 283 711 233 711 q 373 687 334 711 q 438 621 412 664 q 477 515 464 577 q 491 375 491 452 l 491 332 l 115 332 m 424 408 q 386 576 422 516 q 282 635 349 635 q 221 620 249 635 q 171 575 193 604 q 136 503 150 545 q 117 408 122 460 l 424 408 m 361 816 l 279 975 l 197 816 l 147 816 l 258 1042 l 304 1042 l 414 816 l 361 816 z "},"ë":{"ha":535,"x_min":47,"x_max":491,"o":"m 115 332 q 127 217 115 268 q 163 131 140 166 q 218 77 186 96 q 292 58 251 58 q 458 140 380 58 l 458 55 q 277 -16 384 -16 q 182 8 225 -16 q 110 79 140 33 q 64 193 80 125 q 47 348 47 261 q 65 492 47 426 q 114 607 83 559 q 189 683 146 656 q 283 711 233 711 q 373 687 334 711 q 438 621 412 664 q 477 515 464 577 q 491 375 491 452 l 491 332 l 115 332 m 424 408 q 386 576 422 516 q 282 635 349 635 q 221 620 249 635 q 171 575 193 604 q 136 503 150 545 q 117 408 122 460 l 424 408 m 368 816 q 338 832 351 816 q 325 873 325 848 q 337 915 325 899 q 366 930 350 930 q 398 914 385 930 q 411 873 411 898 q 399 832 411 849 q 368 816 387 816 m 185 816 q 169 820 176 816 q 155 832 161 825 q 145 851 149 840 q 141 873 141 861 q 154 915 141 899 q 184 930 167 930 q 201 926 193 930 q 216 914 210 922 q 225 896 222 907 q 229 873 229 886 q 216 832 229 849 q 185 816 203 816 z "},"í":{"ha":233,"x_min":69,"x_max":254,"o":"m 84 0 l 84 694 l 149 694 l 149 0 l 84 0 m 124 816 l 69 816 l 185 1038 l 254 1038 l 124 816 z "},"ì":{"ha":233,"x_min":-24,"x_max":161,"o":"m 84 0 l 84 694 l 149 694 l 149 0 l 84 0 m 106 816 l -24 1038 l 45 1038 l 161 816 l 106 816 z "},"î":{"ha":233,"x_min":-16,"x_max":251,"o":"m 84 0 l 84 694 l 149 694 l 149 0 l 84 0 m 198 816 l 116 975 l 34 816 l -16 816 l 95 1042 l 140 1042 l 251 816 l 198 816 z "},"ï":{"ha":233,"x_min":-18,"x_max":252,"o":"m 84 0 l 84 694 l 149 694 l 149 0 l 84 0 m 209 816 q 179 832 192 816 q 166 873 166 848 q 179 915 166 899 q 208 930 191 930 q 239 914 226 930 q 252 873 252 898 q 240 832 252 849 q 209 816 228 816 m 26 816 q 10 820 18 816 q -4 832 2 825 q -14 851 -10 840 q -18 873 -18 861 q -5 915 -18 899 q 25 930 8 930 q 43 926 35 930 q 57 914 51 922 q 66 896 63 907 q 70 873 70 886 q 57 832 70 849 q 26 816 45 816 z "},"ñ":{"ha":573,"x_min":84,"x_max":500,"o":"m 435 0 l 435 400 q 307 635 435 635 q 244 617 273 635 q 194 568 215 600 q 161 492 173 536 q 149 397 149 448 l 149 0 l 84 0 l 84 694 l 149 694 l 149 574 l 151 574 q 326 711 209 711 q 456 637 411 711 q 500 423 500 563 l 500 0 l 435 0 m 458 977 q 452 913 458 942 q 434 864 446 885 q 406 832 422 844 q 368 821 389 821 q 288 864 333 821 q 228 897 253 897 q 180 810 180 897 l 137 810 q 143 873 137 845 q 162 922 150 902 q 190 954 174 943 q 229 965 207 965 q 307 923 263 965 q 369 888 342 888 q 402 910 390 888 q 415 977 415 932 l 458 977 z "},"ó":{"ha":597,"x_min":47,"x_max":550,"o":"m 297 -16 q 193 9 239 -16 q 115 82 147 35 q 65 195 82 130 q 47 341 47 261 q 66 496 47 428 q 118 613 84 565 q 199 686 151 661 q 306 711 247 711 q 408 686 363 711 q 485 614 453 661 q 533 500 516 568 q 550 348 550 433 q 532 200 550 267 q 482 85 515 133 q 403 10 450 37 q 297 -16 356 -16 m 302 635 q 224 616 259 635 q 165 558 190 596 q 128 466 141 521 q 115 342 115 412 q 128 225 115 277 q 165 136 141 173 q 224 78 189 98 q 301 58 258 58 q 378 78 345 58 q 435 134 412 97 q 471 224 458 171 q 483 347 483 278 q 436 561 483 487 q 302 635 389 635 m 286 816 l 231 816 l 347 1038 l 415 1038 l 286 816 z "},"ò":{"ha":597,"x_min":47,"x_max":550,"o":"m 297 -16 q 193 9 239 -16 q 115 82 147 35 q 65 195 82 130 q 47 341 47 261 q 66 496 47 428 q 118 613 84 565 q 199 686 151 661 q 306 711 247 711 q 408 686 363 711 q 485 614 453 661 q 533 500 516 568 q 550 348 550 433 q 532 200 550 267 q 482 85 515 133 q 403 10 450 37 q 297 -16 356 -16 m 302 635 q 224 616 259 635 q 165 558 190 596 q 128 466 141 521 q 115 342 115 412 q 128 225 115 277 q 165 136 141 173 q 224 78 189 98 q 301 58 258 58 q 378 78 345 58 q 435 134 412 97 q 471 224 458 171 q 483 347 483 278 q 436 561 483 487 q 302 635 389 635 m 308 816 l 178 1038 l 248 1038 l 363 816 l 308 816 z "},"ô":{"ha":597,"x_min":47,"x_max":550,"o":"m 297 -16 q 193 9 239 -16 q 115 82 147 35 q 65 195 82 130 q 47 341 47 261 q 66 496 47 428 q 118 613 84 565 q 199 686 151 661 q 306 711 247 711 q 408 686 363 711 q 485 614 453 661 q 533 500 516 568 q 550 348 550 433 q 532 200 550 267 q 482 85 515 133 q 403 10 450 37 q 297 -16 356 -16 m 302 635 q 224 616 259 635 q 165 558 190 596 q 128 466 141 521 q 115 342 115 412 q 128 225 115 277 q 165 136 141 173 q 224 78 189 98 q 301 58 258 58 q 378 78 345 58 q 435 134 412 97 q 471 224 458 171 q 483 347 483 278 q 436 561 483 487 q 302 635 389 635 m 384 816 l 302 975 l 220 816 l 170 816 l 281 1042 l 326 1042 l 437 816 l 384 816 z "},"ö":{"ha":597,"x_min":47,"x_max":550,"o":"m 297 -16 q 193 9 239 -16 q 115 82 147 35 q 65 195 82 130 q 47 341 47 261 q 66 496 47 428 q 118 613 84 565 q 199 686 151 661 q 306 711 247 711 q 408 686 363 711 q 485 614 453 661 q 533 500 516 568 q 550 348 550 433 q 532 200 550 267 q 482 85 515 133 q 403 10 450 37 q 297 -16 356 -16 m 302 635 q 224 616 259 635 q 165 558 190 596 q 128 466 141 521 q 115 342 115 412 q 128 225 115 277 q 165 136 141 173 q 224 78 189 98 q 301 58 258 58 q 378 78 345 58 q 435 134 412 97 q 471 224 458 171 q 483 347 483 278 q 436 561 483 487 q 302 635 389 635 m 391 816 q 361 832 374 816 q 349 873 349 848 q 361 915 349 899 q 390 930 374 930 q 421 914 408 930 q 435 873 435 898 q 422 832 435 849 q 391 816 410 816 m 209 816 q 192 820 200 816 q 178 832 184 825 q 169 851 172 840 q 165 873 165 861 q 178 915 165 899 q 208 930 191 930 q 225 926 217 930 q 239 914 233 922 q 249 896 245 907 q 252 873 252 886 q 240 832 252 849 q 209 816 227 816 z "},"õ":{"ha":597,"x_min":47,"x_max":550,"o":"m 297 -16 q 193 9 239 -16 q 115 82 147 35 q 65 195 82 130 q 47 341 47 261 q 66 496 47 428 q 118 613 84 565 q 199 686 151 661 q 306 711 247 711 q 408 686 363 711 q 485 614 453 661 q 533 500 516 568 q 550 348 550 433 q 532 200 550 267 q 482 85 515 133 q 403 10 450 37 q 297 -16 356 -16 m 302 635 q 224 616 259 635 q 165 558 190 596 q 128 466 141 521 q 115 342 115 412 q 128 225 115 277 q 165 136 141 173 q 224 78 189 98 q 301 58 258 58 q 378 78 345 58 q 435 134 412 97 q 471 224 458 171 q 483 347 483 278 q 436 561 483 487 q 302 635 389 635 m 468 977 q 462 913 468 942 q 444 864 456 885 q 415 832 432 844 q 377 821 399 821 q 298 864 342 821 q 237 897 262 897 q 189 810 189 897 l 146 810 q 153 873 146 845 q 171 922 159 902 q 200 954 183 943 q 238 965 216 965 q 316 923 273 965 q 378 888 352 888 q 412 910 399 888 q 425 977 425 932 l 468 977 z "},"ú":{"ha":574,"x_min":73,"x_max":490,"o":"m 425 0 l 425 118 l 422 118 q 258 -16 370 -16 q 73 286 73 -16 l 73 694 l 138 694 l 138 302 q 171 118 138 178 q 273 58 204 58 q 334 76 307 58 q 382 124 362 93 q 413 200 402 156 q 425 298 425 244 l 425 694 l 490 694 l 490 0 l 425 0 m 285 816 l 230 816 l 346 1038 l 414 1038 l 285 816 z "},"ù":{"ha":574,"x_min":73,"x_max":490,"o":"m 425 0 l 425 118 l 422 118 q 258 -16 370 -16 q 73 286 73 -16 l 73 694 l 138 694 l 138 302 q 171 118 138 178 q 273 58 204 58 q 334 76 307 58 q 382 124 362 93 q 413 200 402 156 q 425 298 425 244 l 425 694 l 490 694 l 490 0 l 425 0 m 288 816 l 159 1038 l 228 1038 l 343 816 l 288 816 z "},"û":{"ha":574,"x_min":73,"x_max":490,"o":"m 425 0 l 425 118 l 422 118 q 258 -16 370 -16 q 73 286 73 -16 l 73 694 l 138 694 l 138 302 q 171 118 138 178 q 273 58 204 58 q 334 76 307 58 q 382 124 362 93 q 413 200 402 156 q 425 298 425 244 l 425 694 l 490 694 l 490 0 l 425 0 m 370 816 l 288 975 l 206 816 l 156 816 l 267 1042 l 313 1042 l 423 816 l 370 816 z "},"ü":{"ha":574,"x_min":73,"x_max":490,"o":"m 425 0 l 425 118 l 422 118 q 258 -16 370 -16 q 73 286 73 -16 l 73 694 l 138 694 l 138 302 q 171 118 138 178 q 273 58 204 58 q 334 76 307 58 q 382 124 362 93 q 413 200 402 156 q 425 298 425 244 l 425 694 l 490 694 l 490 0 l 425 0 m 382 816 q 353 832 366 816 q 340 873 340 848 q 352 915 340 899 q 381 930 365 930 q 413 914 399 930 q 426 873 426 898 q 414 832 426 849 q 382 816 401 816 m 200 816 q 183 820 191 816 q 170 832 176 825 q 160 851 163 840 q 156 873 156 861 q 169 915 156 899 q 199 930 182 930 q 216 926 208 930 q 231 914 224 922 q 240 896 237 907 q 243 873 243 886 q 231 832 243 849 q 200 816 218 816 z "},"†":{"ha":387,"x_min":23,"x_max":364,"o":"m 364 619 l 229 640 l 210 155 l 182 155 l 164 640 l 23 619 l 23 707 l 180 694 l 161 972 l 231 972 l 213 694 l 364 707 l 364 619 z "},"°":{"ha":397,"x_min":64,"x_max":333,"o":"m 64 798 q 74 868 64 836 q 103 925 85 901 q 146 964 121 949 q 198 978 170 978 q 251 964 227 978 q 294 925 275 949 q 322 868 312 901 q 333 798 333 836 q 322 728 333 761 q 294 671 312 696 q 251 633 275 647 q 198 619 227 619 q 146 633 170 619 q 103 671 121 647 q 74 728 85 696 q 64 798 64 761 m 115 799 q 122 755 115 776 q 140 719 128 734 q 166 694 151 703 q 199 685 182 685 q 231 694 216 685 q 257 720 246 704 q 275 756 269 736 q 281 799 281 777 q 275 842 281 822 q 258 878 269 863 q 232 903 248 894 q 199 912 217 912 q 166 903 181 912 q 139 878 151 894 q 122 842 128 863 q 115 799 115 822 z "},"¢":{"ha":549,"x_min":89,"x_max":473,"o":"m 471 142 q 359 95 424 103 l 359 -36 l 304 -36 l 304 96 q 213 132 253 103 q 146 207 174 161 q 103 313 118 253 q 89 443 89 374 q 103 572 89 511 q 144 682 117 633 q 211 766 171 732 q 304 816 251 801 l 304 956 l 359 956 l 359 821 q 473 788 421 820 l 473 694 q 359 743 420 739 l 359 171 q 471 227 424 179 l 471 142 m 304 737 q 239 699 267 726 q 193 633 212 671 q 165 549 174 595 q 156 451 156 502 q 164 358 156 404 q 191 275 173 313 q 237 212 209 238 q 304 175 265 185 l 304 737 z "},"£":{"ha":549,"x_min":47,"x_max":497,"o":"m 47 0 l 47 75 q 165 304 165 134 l 165 439 l 58 439 l 58 518 l 165 518 l 165 703 q 180 818 165 766 q 219 909 194 871 q 279 968 244 947 q 357 989 314 989 q 458 963 410 989 l 458 878 q 357 913 409 913 q 263 857 295 913 q 231 692 231 802 l 231 518 l 384 518 l 384 439 l 231 439 l 231 327 q 127 76 231 145 l 497 76 l 497 0 l 47 0 z "},"§":{"ha":467,"x_min":75,"x_max":401,"o":"m 324 277 q 359 220 349 252 q 370 146 370 187 q 358 70 370 104 q 323 9 345 35 q 269 -31 300 -16 q 200 -45 237 -45 q 84 -9 139 -45 l 84 78 q 203 31 147 31 q 278 61 252 31 q 304 140 304 92 q 287 205 304 177 q 267 230 283 216 q 227 262 252 245 l 185 292 q 133 337 154 313 q 99 387 113 361 q 81 440 86 412 q 75 498 75 468 q 154 668 75 612 q 96 818 96 724 q 107 896 96 860 q 140 957 119 931 q 193 997 162 983 q 261 1011 223 1011 q 366 984 322 1011 l 366 898 q 259 935 319 935 q 163 823 163 935 q 167 781 163 800 q 186 745 172 763 q 225 707 200 727 q 293 661 251 687 q 374 578 347 627 q 401 467 401 530 q 324 277 401 355 m 204 627 q 142 505 142 589 q 148 453 142 476 q 170 410 155 431 q 212 369 186 389 q 279 325 239 349 q 320 384 307 353 q 334 461 334 415 q 329 507 334 487 q 309 547 323 528 q 270 585 295 566 q 204 627 244 604 z "},"•":{"ha":418,"x_min":83,"x_max":334,"o":"m 83 467 q 93 532 83 501 q 120 585 103 562 q 160 621 137 608 q 208 634 182 634 q 257 621 235 634 q 297 585 280 608 q 324 532 314 562 q 334 467 334 501 q 324 401 334 432 q 297 349 314 371 q 257 313 280 326 q 208 300 235 300 q 160 313 182 300 q 120 349 137 326 q 93 401 103 371 q 83 467 83 432 z "},"¶":{"ha":485,"x_min":50,"x_max":432,"o":"m 366 908 l 366 0 l 317 0 l 317 908 l 227 908 l 227 0 l 177 0 l 177 612 q 126 626 149 612 q 86 664 103 640 q 59 721 69 688 q 50 792 50 754 q 60 866 50 833 q 89 923 71 899 q 130 960 106 947 q 180 972 153 972 l 432 972 l 432 908 l 366 908 z "},"ß":{"ha":553,"x_min":84,"x_max":513,"o":"m 227 85 q 306 58 264 58 q 363 73 338 58 q 408 114 389 87 q 436 177 426 140 q 446 260 446 214 q 433 354 446 311 q 393 429 419 396 q 330 483 367 461 q 244 513 292 505 l 244 585 q 305 612 278 593 q 352 659 332 631 q 381 722 371 687 q 391 799 391 758 q 361 921 391 877 q 276 965 330 965 q 182 908 214 965 q 149 743 149 852 l 149 1 l 84 1 l 84 756 q 98 874 84 822 q 138 964 112 927 q 200 1021 163 1001 q 281 1041 237 1041 q 353 1024 321 1041 q 409 978 386 1008 q 445 905 432 947 q 458 810 458 863 q 449 728 458 767 q 423 657 440 689 q 380 600 406 625 q 324 558 355 574 l 324 555 q 465 452 416 527 q 513 264 513 377 q 498 153 513 205 q 457 64 484 102 q 392 5 430 26 q 309 -16 355 -16 q 227 -1 264 -16 l 227 85 z "},"­":{"ha":416,"x_min":73,"x_max":351,"o":"m 73 359 l 73 434 l 351 434 l 351 359 l 73 359 z "},"®":{"ha":922,"x_min":130,"x_max":741,"o":"m 436 173 q 219 292 309 173 q 130 578 130 410 q 220 867 130 749 q 435 986 310 986 q 651 867 562 986 q 741 581 741 748 q 652 292 741 411 q 436 173 563 173 m 434 930 q 251 827 326 930 q 176 578 176 724 q 251 331 176 434 q 434 229 326 229 q 620 331 543 229 q 696 578 696 434 q 619 827 696 724 q 434 930 542 930 m 529 327 l 482 456 q 443 534 462 514 q 399 554 424 554 l 364 554 l 364 327 l 315 327 l 315 850 l 430 850 q 533 813 495 850 q 570 713 570 775 q 467 568 570 593 l 467 566 q 532 471 497 556 l 585 327 l 529 327 m 364 796 l 364 609 l 431 609 q 495 633 471 609 q 519 704 519 656 q 422 796 519 796 l 364 796 z "},"©":{"ha":922,"x_min":81,"x_max":842,"o":"m 81 484 q 94 619 81 554 q 133 740 108 684 q 192 843 157 797 q 269 922 227 889 q 360 974 312 956 q 461 991 409 991 q 562 974 513 991 q 653 922 611 956 q 730 843 696 889 q 790 740 765 797 q 828 619 814 684 q 842 484 842 554 q 828 350 842 414 q 790 228 814 285 q 730 125 765 172 q 653 46 696 79 q 562 -5 611 13 q 461 -23 513 -23 q 360 -5 409 -23 q 269 46 312 13 q 192 125 227 79 q 133 228 157 172 q 94 350 108 285 q 81 484 81 414 m 122 484 q 149 308 122 391 q 221 164 176 226 q 329 67 267 103 q 461 32 391 32 q 593 67 532 32 q 701 164 655 103 q 774 308 747 226 q 800 484 800 391 q 774 660 800 578 q 701 804 747 743 q 593 901 655 865 q 461 937 532 937 q 329 901 391 937 q 221 804 267 865 q 149 660 176 743 q 122 484 122 578 m 609 182 q 477 134 549 134 q 380 159 426 134 q 300 229 334 184 q 245 335 265 273 q 226 469 226 396 q 243 612 226 545 q 295 727 261 678 q 378 805 329 777 q 488 833 427 833 q 607 797 554 833 l 607 717 q 479 761 556 761 q 400 740 436 761 q 339 681 365 718 q 300 592 314 643 q 286 481 286 541 q 300 376 286 426 q 339 288 314 326 q 401 228 365 250 q 484 205 438 205 q 609 255 555 205 l 609 182 z "},"™":{"ha":806,"x_min":37,"x_max":705,"o":"m 656 524 l 656 866 l 654 866 l 541 524 l 509 524 l 399 866 l 397 866 l 397 524 l 351 524 l 351 972 l 412 972 l 526 619 l 528 619 l 646 972 l 705 972 l 705 524 l 656 524 m 195 913 l 195 524 l 145 524 l 145 913 l 37 913 l 37 972 l 304 972 l 304 913 l 195 913 z "},"´":{"ha":276,"x_min":69,"x_max":254,"o":"m 124 816 l 69 816 l 185 1038 l 254 1038 l 124 816 z "},"¨":{"ha":423,"x_min":75,"x_max":345,"o":"m 301 816 q 271 832 284 816 q 258 873 258 848 q 271 915 258 899 q 300 930 283 930 q 331 914 318 930 q 345 873 345 898 q 332 832 345 849 q 301 816 320 816 m 119 816 q 102 820 110 816 q 88 832 94 825 q 78 851 82 840 q 75 873 75 861 q 87 915 75 899 q 117 930 100 930 q 135 926 127 930 q 149 914 143 922 q 159 896 155 907 q 162 873 162 886 q 150 832 162 849 q 119 816 137 816 z "},"≠":{"ha":695,"x_min":113,"x_max":583,"o":"m 307 231 l 218 0 l 159 0 l 249 231 l 113 231 l 113 304 l 277 304 l 355 507 l 113 507 l 113 580 l 383 580 l 471 806 l 529 806 l 442 580 l 583 580 l 583 507 l 414 507 l 335 304 l 583 304 l 583 231 l 307 231 z "},"Æ":{"ha":882,"x_min":7,"x_max":817,"o":"m 446 0 l 446 288 l 189 288 l 84 0 l 7 0 l 361 972 l 801 972 l 801 888 l 513 888 l 513 532 l 780 532 l 780 451 l 513 451 l 513 82 l 817 82 l 817 0 l 446 0 m 446 888 l 401 888 l 216 370 l 446 370 l 446 888 z "},"Ø":{"ha":789,"x_min":45,"x_max":737,"o":"m 391 -17 q 264 13 321 -17 q 164 96 208 43 l 81 -36 l 45 3 l 132 142 q 72 293 92 208 q 52 475 52 378 q 75 684 52 589 q 144 846 98 779 q 255 951 189 913 q 404 989 320 989 q 516 966 465 989 q 608 900 567 943 l 678 1012 l 714 972 l 642 858 q 713 701 688 792 q 737 500 737 609 q 715 295 737 389 q 648 131 692 200 q 540 22 604 62 q 391 -17 475 -17 m 667 486 q 650 653 667 575 q 599 789 633 731 l 206 163 q 285 91 239 117 q 391 65 331 65 q 511 97 459 65 q 597 184 562 128 q 649 317 631 240 q 667 486 667 395 m 397 907 q 280 873 331 907 q 194 782 229 840 q 141 648 159 725 q 122 484 123 571 q 135 338 121 408 q 176 212 149 269 l 566 833 q 492 887 534 868 q 397 907 451 907 z "},"∞":{"ha":851,"x_min":44,"x_max":808,"o":"m 425 337 q 332 193 382 241 q 229 144 282 144 q 154 163 188 144 q 96 216 120 182 q 58 297 71 250 q 44 401 44 345 q 59 502 44 454 q 98 586 73 550 q 157 643 123 622 q 229 664 191 664 q 427 472 349 664 q 518 615 467 567 q 622 664 570 664 q 697 645 663 664 q 756 592 731 626 q 794 511 781 558 q 808 407 808 464 q 793 307 808 354 q 754 223 779 259 q 695 165 729 186 q 622 144 662 144 q 425 337 505 144 m 452 404 q 622 216 521 216 q 676 230 652 216 q 716 270 700 245 q 742 331 733 296 q 751 407 751 366 q 742 481 751 447 q 715 541 732 515 q 674 580 698 566 q 622 594 650 594 q 452 404 529 594 m 399 405 q 229 594 330 594 q 176 580 200 594 q 135 540 152 566 q 108 479 117 515 q 98 401 98 444 q 108 328 98 362 q 136 269 118 294 q 177 230 153 244 q 229 216 201 216 q 399 405 323 216 z "},"±":{"ha":694,"x_min":113,"x_max":583,"o":"m 375 435 l 375 159 l 321 159 l 321 435 l 113 435 l 113 509 l 321 509 l 321 785 l 375 785 l 375 509 l 583 509 l 583 435 l 375 435 m 113 0 l 113 73 l 583 73 l 583 0 l 113 0 z "},"≤":{"ha":695,"x_min":113,"x_max":583,"o":"m 133 461 l 133 487 l 563 808 l 563 726 l 228 477 l 228 474 l 563 255 l 563 171 l 133 461 m 113 21 l 113 95 l 583 95 l 583 21 l 113 21 z "},"≥":{"ha":695,"x_min":113,"x_max":583,"o":"m 133 172 l 133 256 l 469 473 l 469 477 l 133 726 l 133 809 l 563 488 l 563 462 l 133 172 m 113 21 l 113 95 l 583 95 l 583 21 l 113 21 z "},"¥":{"ha":549,"x_min":36,"x_max":515,"o":"m 328 516 l 487 516 l 487 441 l 308 441 l 308 288 l 487 288 l 487 212 l 308 212 l 308 0 l 243 0 l 243 212 l 60 212 l 60 288 l 243 288 l 243 441 l 60 441 l 60 516 l 221 516 l 36 972 l 111 972 l 252 604 q 276 534 269 560 l 279 534 q 289 570 283 552 q 302 608 294 589 l 445 972 l 515 972 l 328 516 z "},"µ":{"ha":585,"x_min":84,"x_max":509,"o":"m 442 0 q 436 120 436 56 l 434 120 q 279 -16 386 -16 q 151 67 191 -16 l 149 67 l 149 -267 l 84 -267 l 84 694 l 149 694 l 149 289 q 182 120 149 178 q 284 61 216 61 q 346 78 318 61 q 394 127 374 96 q 424 202 414 158 q 435 299 435 245 l 435 694 l 500 694 l 500 176 q 503 79 500 123 q 509 0 505 35 l 442 0 z "},"∂":{"ha":549,"x_min":41,"x_max":513,"o":"m 447 574 q 449 607 448 589 q 450 644 450 624 q 415 860 450 789 q 307 932 380 932 q 184 876 245 932 l 200 964 q 320 1008 259 1008 q 465 919 416 1008 q 513 646 513 830 q 481 336 513 500 q 439 190 465 255 q 380 79 414 125 q 304 8 346 33 q 216 -16 263 -16 q 143 2 176 -16 q 87 53 110 20 q 53 135 64 87 q 41 241 41 182 q 115 559 41 419 q 308 700 189 700 q 445 574 402 700 l 447 574 m 438 473 q 311 623 407 623 q 164 508 221 623 q 108 245 108 392 q 115 168 108 202 q 138 109 123 134 q 174 72 153 85 q 222 58 195 58 q 298 89 262 58 q 362 174 334 119 q 410 305 390 229 q 438 473 429 381 z "},"∑":{"ha":640,"x_min":22,"x_max":617,"o":"m 22 -319 l 22 -280 l 377 332 l 47 926 l 47 972 l 591 972 l 591 889 l 149 889 l 458 335 l 128 -236 l 617 -236 l 617 -319 l 22 -319 z "},"∏":{"ha":782,"x_min":96,"x_max":687,"o":"m 619 -319 l 619 889 l 163 889 l 163 -319 l 96 -319 l 96 972 l 687 972 l 687 -319 l 619 -319 z "},"∫":{"ha":549,"x_min":94,"x_max":455,"o":"m 455 946 q 398 965 433 965 q 307 806 307 965 l 307 -104 q 297 -191 307 -150 q 268 -264 288 -233 q 219 -314 248 -296 q 152 -333 190 -333 q 94 -320 115 -333 l 94 -239 q 151 -257 115 -257 q 242 -98 242 -257 l 242 811 q 252 901 242 859 q 281 974 262 943 q 330 1023 301 1005 q 397 1041 359 1041 q 455 1028 434 1041 l 455 946 z "},"ª":{"ha":393,"x_min":40,"x_max":339,"o":"m 283 486 l 283 568 l 281 568 q 230 498 262 523 q 158 474 198 474 q 109 485 131 474 q 72 514 87 495 q 48 558 57 533 q 40 614 40 584 q 168 774 40 751 l 283 795 q 203 922 283 922 q 74 861 135 922 l 74 937 q 208 987 134 987 q 306 939 272 987 q 339 801 339 892 l 339 486 l 283 486 m 206 722 q 158 710 178 717 q 123 691 137 703 q 103 661 109 679 q 96 618 96 644 q 116 558 96 581 q 170 536 135 536 q 214 549 193 536 q 256 595 235 562 q 277 643 271 617 q 283 698 283 669 l 283 736 l 206 722 z "},"º":{"ha":430,"x_min":38,"x_max":399,"o":"m 218 472 q 143 490 176 472 q 86 542 110 509 q 51 623 63 576 q 38 726 38 669 q 52 836 38 787 q 90 918 65 884 q 148 968 114 951 q 223 986 182 986 q 296 968 264 986 q 352 918 329 951 q 387 838 375 885 q 399 732 399 791 q 387 627 399 675 q 350 545 374 579 q 293 491 326 510 q 218 472 259 472 m 220 922 q 169 908 192 922 q 130 869 146 895 q 105 808 114 844 q 96 727 96 772 q 104 649 96 684 q 129 589 113 614 q 168 551 145 564 q 220 538 191 538 q 271 551 248 538 q 309 589 294 564 q 333 649 324 614 q 341 730 341 685 q 333 810 341 774 q 309 870 325 846 q 271 908 294 895 q 220 922 249 922 z "},"Ω":{"ha":786,"x_min":52,"x_max":735,"o":"m 482 0 l 482 80 q 551 160 518 116 q 610 260 585 205 q 650 381 635 315 q 665 527 665 448 q 645 686 665 616 q 590 806 625 757 q 505 882 554 855 q 397 908 456 908 q 285 881 336 908 q 198 804 234 854 q 141 684 161 754 q 121 528 121 614 q 136 386 121 451 q 175 265 150 320 q 234 164 200 210 q 306 80 267 118 l 306 0 l 52 0 l 52 80 l 230 80 q 162 158 194 113 q 105 258 130 202 q 66 382 80 314 q 52 530 52 450 q 77 721 52 636 q 147 865 102 806 q 255 957 192 925 q 393 989 317 989 q 532 958 469 989 q 640 869 595 928 q 710 726 685 810 q 735 532 735 641 q 722 390 735 456 q 685 267 709 323 q 628 163 661 210 q 557 81 595 117 l 735 81 l 735 0 l 482 0 z "},"æ":{"ha":870,"x_min":50,"x_max":826,"o":"m 448 332 q 461 216 449 267 q 496 131 473 165 q 552 77 519 96 q 626 58 585 58 q 793 140 715 58 l 793 55 q 612 -16 719 -16 q 492 28 543 -16 q 415 157 441 73 l 413 157 q 215 -16 342 -16 q 145 -2 176 -16 q 93 38 115 12 q 61 100 72 64 q 50 182 50 137 q 99 336 50 281 q 245 399 148 392 l 384 408 q 269 635 384 635 q 98 549 177 635 l 98 642 q 275 711 178 711 q 427 557 393 711 l 429 557 q 617 711 490 711 q 706 687 667 711 q 772 620 745 664 q 812 514 798 576 q 826 374 826 452 l 826 332 l 448 332 m 759 408 q 720 576 756 517 q 617 635 683 635 q 556 620 584 635 q 506 575 528 604 q 470 503 484 545 q 450 408 456 461 l 759 408 m 384 332 l 292 327 q 216 317 249 324 q 161 295 182 311 q 128 253 139 280 q 117 184 117 227 q 124 132 117 155 q 146 92 132 109 q 181 67 161 76 q 227 58 201 58 q 287 76 258 58 q 337 124 316 94 q 371 196 359 155 q 384 283 384 237 l 384 332 z "},"ø":{"ha":597,"x_min":20,"x_max":589,"o":"m 500 589 q 550 350 550 494 q 532 199 550 267 q 481 84 514 132 q 401 10 448 36 q 297 -16 355 -16 q 135 56 199 -16 l 56 -60 l 20 -14 l 100 105 q 47 341 47 201 q 66 496 47 428 q 118 612 84 565 q 200 685 152 660 q 307 711 248 711 q 467 639 404 711 l 551 763 l 589 718 l 500 589 m 424 577 q 302 635 378 635 q 224 615 259 635 q 165 558 189 595 q 127 466 140 520 q 115 342 115 411 q 146 170 115 241 l 424 577 m 178 117 q 300 58 226 58 q 378 78 345 58 q 435 135 412 98 q 471 225 458 172 q 483 347 483 279 q 454 522 483 450 l 178 117 z "},"¿":{"ha":457,"x_min":73,"x_max":418,"o":"m 300 426 q 309 381 305 408 q 313 326 313 353 q 304 262 313 291 q 283 209 296 234 q 252 161 269 184 q 216 114 235 138 q 187 75 201 95 q 162 33 173 55 q 145 -14 151 11 q 138 -68 138 -39 q 148 -131 138 -104 q 174 -177 157 -158 q 213 -205 190 -195 q 261 -215 235 -215 q 346 -193 307 -215 q 418 -128 385 -171 l 418 -224 q 340 -276 380 -259 q 255 -293 300 -293 q 183 -279 216 -293 q 126 -238 151 -265 q 87 -171 101 -211 q 73 -79 73 -132 q 80 -10 73 -41 q 101 49 88 22 q 131 99 115 76 q 164 145 147 123 q 202 195 186 173 q 230 238 219 217 q 247 279 241 258 q 253 326 253 300 q 249 383 253 357 q 239 426 244 408 l 300 426 m 269 708 q 287 703 279 708 q 302 689 296 698 q 313 668 309 680 q 317 643 317 656 q 313 617 317 629 q 302 597 309 606 q 287 584 296 589 q 269 578 279 578 q 233 597 247 578 q 220 643 220 616 q 223 668 220 656 q 234 689 227 680 q 250 703 241 698 q 269 708 259 708 z "}," ":{"ha":286,"x_min":0,"x_max":0,"o":""},"¡":{"ha":296,"x_min":99,"x_max":197,"o":"m 149 578 q 114 597 128 578 q 99 643 99 615 q 103 668 99 656 q 114 689 106 680 q 130 703 121 698 q 149 708 138 708 q 167 703 159 708 q 182 689 176 698 q 193 668 189 680 q 197 643 197 656 q 183 597 197 616 q 149 578 169 578 m 114 -276 l 121 422 l 178 422 l 184 -276 l 114 -276 z "},"¬":{"ha":694,"x_min":113,"x_max":583,"o":"m 528 136 l 528 420 l 113 420 l 113 494 l 583 494 l 583 136 l 528 136 z "},"√":{"ha":677,"x_min":66,"x_max":557,"o":"m 362 -1 l 314 -1 l 151 517 l 66 517 l 66 586 l 192 586 l 334 120 l 507 1028 l 557 1028 l 362 -1 z "},"ƒ":{"ha":549,"x_min":52,"x_max":473,"o":"m 473 883 q 429 897 454 897 q 332 774 347 897 l 316 626 l 402 626 l 402 551 l 308 551 l 260 92 q 202 -121 245 -53 q 94 -189 159 -189 q 75 -186 85 -189 q 52 -179 64 -184 l 52 -102 q 92 -114 71 -114 q 195 94 174 -114 l 243 551 l 190 551 l 190 626 l 252 626 l 272 806 q 290 877 277 846 q 324 929 304 908 q 370 962 345 951 q 423 972 395 972 q 473 962 450 972 l 473 883 z "},"≈":{"ha":695,"x_min":115,"x_max":580,"o":"m 580 633 q 542 495 576 544 q 450 447 508 447 q 331 512 397 447 q 245 564 279 564 q 170 450 174 564 l 115 450 q 126 528 117 493 q 153 586 136 562 q 193 624 170 610 q 246 637 216 637 q 355 580 298 637 q 387 551 373 563 q 411 532 400 539 q 432 522 422 525 q 452 519 442 519 q 504 549 485 519 q 526 633 524 578 l 580 633 m 580 361 q 542 223 576 272 q 450 175 508 175 q 331 240 397 175 q 245 292 279 292 q 170 178 174 292 l 115 178 q 126 256 117 221 q 153 314 136 290 q 193 352 170 338 q 246 365 216 365 q 355 308 298 365 q 387 279 373 291 q 411 260 400 267 q 432 250 422 253 q 452 247 442 247 q 504 277 485 247 q 526 361 524 307 l 580 361 z "},"Δ":{"ha":663,"x_min":33,"x_max":630,"o":"m 33 0 l 33 45 l 298 972 l 366 972 l 630 45 l 630 0 l 33 0 m 349 787 q 338 833 342 813 q 331 871 334 854 l 329 871 q 322 834 326 856 q 311 787 318 812 l 117 82 l 545 82 l 349 787 z "},"«":{"ha":505,"x_min":56,"x_max":450,"o":"m 202 136 l 56 363 l 202 597 l 271 597 l 125 363 l 271 136 l 202 136 m 381 136 l 235 363 l 381 597 l 450 597 l 304 363 l 450 136 l 381 136 z "},"»":{"ha":505,"x_min":56,"x_max":450,"o":"m 303 597 l 450 369 l 303 136 l 235 136 l 381 369 l 235 597 l 303 597 m 124 597 l 271 369 l 124 136 l 56 136 l 202 369 l 56 597 l 124 597 z "},"…":{"ha":728,"x_min":71,"x_max":656,"o":"m 608 -12 q 574 7 587 -12 q 560 54 560 26 q 574 100 560 81 q 608 119 587 119 q 627 114 618 119 q 642 99 635 109 q 653 79 649 90 q 656 54 656 67 q 642 7 656 25 q 608 -12 628 -12 m 363 -12 q 328 7 342 -12 q 314 54 314 26 q 318 79 314 67 q 329 99 322 90 q 345 114 336 109 q 363 119 353 119 q 382 113 373 119 q 397 99 391 108 q 408 78 404 90 q 412 54 412 66 q 397 7 412 26 q 363 -12 383 -12 m 119 -12 q 85 7 98 -12 q 71 54 71 26 q 85 100 71 81 q 119 119 98 119 q 138 114 129 119 q 153 99 146 109 q 164 79 160 90 q 168 54 168 67 q 153 7 168 26 q 119 -12 139 -12 z "},"À":{"ha":663,"x_min":20,"x_max":642,"o":"m 567 0 l 487 288 l 174 288 l 96 0 l 20 0 l 298 972 l 366 972 l 642 0 l 567 0 m 345 802 q 337 832 341 815 q 331 871 334 849 l 329 871 q 322 832 326 849 q 315 802 318 815 l 197 370 l 464 370 l 345 802 m 343 1052 l 214 1274 l 283 1274 l 398 1052 l 343 1052 z "},"Ã":{"ha":663,"x_min":20,"x_max":642,"o":"m 567 0 l 487 288 l 174 288 l 96 0 l 20 0 l 298 972 l 366 972 l 642 0 l 567 0 m 345 802 q 337 832 341 815 q 331 871 334 849 l 329 871 q 322 832 326 849 q 315 802 318 815 l 197 370 l 464 370 l 345 802 m 494 1213 q 488 1149 494 1178 q 470 1100 481 1121 q 441 1068 458 1080 q 403 1057 425 1057 q 323 1100 368 1057 q 263 1133 288 1133 q 215 1046 215 1133 l 172 1046 q 179 1109 172 1081 q 197 1158 185 1138 q 225 1190 209 1179 q 264 1201 242 1201 q 342 1159 298 1201 q 404 1124 378 1124 q 438 1146 425 1124 q 450 1213 450 1168 l 494 1213 z "},"Õ":{"ha":789,"x_min":52,"x_max":737,"o":"m 391 -17 q 250 21 313 -17 q 142 126 186 60 q 75 282 98 193 q 52 475 52 372 q 75 684 52 589 q 144 846 98 779 q 255 951 189 913 q 404 989 320 989 q 543 952 481 989 q 648 849 605 915 q 714 694 691 784 q 737 500 737 605 q 715 295 737 389 q 648 131 692 200 q 540 22 604 62 q 391 -17 475 -17 m 397 907 q 280 873 331 907 q 194 782 229 840 q 141 648 159 725 q 122 484 123 571 q 138 326 121 401 q 188 192 155 250 q 272 100 221 134 q 391 65 323 65 q 511 97 459 65 q 597 184 562 128 q 649 317 631 240 q 667 486 667 395 q 651 648 667 572 q 603 782 635 725 q 519 873 570 840 q 397 907 469 907 m 557 1213 q 551 1149 557 1178 q 533 1100 545 1121 q 505 1068 522 1080 q 467 1057 488 1057 q 387 1100 432 1057 q 327 1133 352 1133 q 279 1046 279 1133 l 236 1046 q 242 1109 236 1081 q 261 1158 249 1138 q 289 1190 273 1179 q 328 1201 306 1201 q 406 1159 362 1201 q 468 1124 441 1124 q 502 1146 489 1124 q 514 1213 514 1168 l 557 1213 z "},"Œ":{"ha":977,"x_min":52,"x_max":913,"o":"m 551 0 q 488 -10 526 -3 q 397 -16 450 -16 q 252 20 316 -16 q 143 121 188 56 q 75 277 98 186 q 52 475 52 367 q 76 687 52 592 q 147 848 100 781 q 260 952 193 916 q 409 989 326 989 q 452 987 430 989 q 494 982 475 985 q 529 977 514 979 q 551 972 544 974 l 896 972 l 896 890 l 609 890 l 609 533 l 876 533 l 876 452 l 609 452 l 609 82 l 913 82 l 913 0 l 551 0 m 541 888 q 404 907 468 907 q 288 875 340 907 q 199 788 236 844 q 142 654 162 732 q 122 484 122 576 q 141 315 122 392 q 196 182 160 238 q 283 96 232 127 q 399 65 334 65 q 541 87 463 65 l 541 888 z "},"œ":{"ha":963,"x_min":47,"x_max":926,"o":"m 548 332 q 561 216 549 267 q 596 131 574 165 q 652 77 619 96 q 726 58 684 58 q 892 140 815 58 l 892 55 q 713 -16 818 -16 q 515 164 569 -16 l 513 164 q 297 -16 450 -16 q 193 9 239 -16 q 114 82 146 35 q 65 195 82 130 q 47 340 47 261 q 66 497 47 428 q 118 613 84 566 q 200 686 153 661 q 307 711 248 711 q 438 664 384 711 q 517 530 492 618 l 519 530 q 720 711 578 711 q 808 687 770 711 q 872 621 846 664 q 912 515 898 577 q 926 376 926 453 l 926 332 l 548 332 m 858 408 q 819 575 856 515 q 717 635 782 635 q 655 619 684 635 q 604 573 626 603 q 568 501 583 543 q 550 408 554 459 l 858 408 m 302 635 q 224 615 259 635 q 165 557 190 595 q 128 465 141 519 q 115 341 115 410 q 127 224 115 277 q 164 135 140 172 q 223 78 189 98 q 300 58 257 58 q 378 78 345 58 q 435 134 412 97 q 471 224 458 171 q 483 346 483 278 q 471 470 483 416 q 435 561 458 524 q 379 616 412 597 q 302 635 345 635 z "},"–":{"ha":521,"x_min":0,"x_max":521,"o":"m 0 359 l 0 434 l 521 434 l 521 359 l 0 359 z "},"—":{"ha":1042,"x_min":0,"x_max":1042,"o":"m 0 359 l 0 434 l 1042 434 l 1042 359 l 0 359 z "},"“":{"ha":371,"x_min":56,"x_max":320,"o":"m 260 677 l 196 677 l 271 981 l 320 981 l 260 677 m 121 677 l 56 677 l 130 981 l 180 981 l 121 677 z "},"”":{"ha":371,"x_min":56,"x_max":321,"o":"m 246 677 l 197 677 l 255 981 l 321 981 l 246 677 m 105 677 l 56 677 l 117 981 l 180 981 l 105 677 z "},"‘":{"ha":231,"x_min":56,"x_max":180,"o":"m 121 677 l 56 677 l 130 981 l 180 981 l 121 677 z "},"’":{"ha":231,"x_min":56,"x_max":180,"o":"m 105 677 l 56 677 l 117 981 l 180 981 l 105 677 z "},"÷":{"ha":694,"x_min":113,"x_max":583,"o":"m 350 588 q 317 606 330 588 q 304 650 304 624 q 317 694 304 676 q 350 713 330 713 q 383 696 371 713 q 395 650 395 680 q 382 606 395 623 q 350 588 369 588 m 113 368 l 113 441 l 583 441 l 583 368 l 113 368 m 349 97 q 331 102 339 97 q 316 115 322 106 q 306 134 309 123 q 302 158 302 145 q 315 203 302 184 q 349 222 329 222 q 382 205 370 222 q 393 159 393 189 q 390 135 393 146 q 381 115 387 123 q 367 102 375 106 q 349 97 359 97 z "},"ÿ":{"ha":488,"x_min":9,"x_max":481,"o":"m 235 -126 q 164 -277 204 -228 q 68 -326 125 -326 q 21 -317 41 -326 l 21 -236 q 44 -244 33 -241 q 67 -247 56 -247 q 123 -220 99 -247 q 163 -139 146 -193 l 209 3 l 9 694 l 81 694 l 230 144 q 236 120 233 134 q 241 92 239 106 l 243 92 q 249 116 246 104 q 255 142 251 127 l 413 694 l 481 694 l 235 -126 m 336 816 q 307 832 319 816 q 294 873 294 848 q 306 915 294 899 q 335 930 319 930 q 367 914 353 930 q 380 873 380 898 q 368 832 380 849 q 336 816 355 816 m 154 816 q 137 820 145 816 q 123 832 130 825 q 114 851 117 840 q 110 873 110 861 q 123 915 110 899 q 153 930 136 930 q 170 926 162 930 q 184 914 178 922 q 194 896 191 907 q 197 873 197 886 q 185 832 197 849 q 154 816 172 816 z "},"Ÿ":{"ha":569,"x_min":17,"x_max":552,"o":"m 314 364 l 314 0 l 246 0 l 246 362 l 17 972 l 94 972 l 261 518 q 269 494 264 510 q 281 452 274 477 l 283 452 q 291 481 286 465 q 305 517 297 497 l 479 972 l 552 972 l 314 364 m 372 1052 q 342 1068 355 1052 q 330 1109 330 1084 q 342 1151 330 1135 q 371 1166 355 1166 q 402 1150 389 1166 q 416 1109 416 1134 q 404 1068 416 1085 q 372 1052 391 1052 m 190 1052 q 173 1056 181 1052 q 159 1068 165 1061 q 150 1087 153 1076 q 146 1109 146 1097 q 159 1151 146 1135 q 189 1166 172 1166 q 206 1162 198 1166 q 220 1150 214 1158 q 230 1132 227 1143 q 233 1109 233 1122 q 221 1068 233 1085 q 190 1052 208 1052 z "},"⁄":{"ha":115,"x_min":-125,"x_max":249,"o":"m -79 0 l -125 0 l 203 972 l 249 972 l -79 0 z "},"€":{"ha":549,"x_min":45,"x_max":503,"o":"m 503 35 q 361 -16 435 -16 q 270 6 311 -16 q 197 72 229 28 q 144 181 165 116 q 113 333 123 247 l 45 333 l 45 409 l 108 409 q 106 437 106 422 q 106 469 106 452 q 109 552 106 509 l 45 552 l 45 628 l 117 628 q 153 780 129 713 q 211 893 177 847 q 288 964 245 940 q 381 989 332 989 q 503 951 448 989 l 503 862 q 376 913 444 913 q 311 893 342 913 q 255 838 280 874 q 212 748 230 801 q 183 628 193 695 l 448 628 l 448 552 l 175 552 q 173 521 174 538 q 173 485 173 505 q 173 447 173 466 q 174 409 174 427 l 448 409 l 448 333 l 182 333 q 247 128 198 197 q 367 59 295 59 q 503 120 432 59 l 503 35 z "},"‹":{"ha":326,"x_min":56,"x_max":270,"o":"m 202 136 l 56 363 l 202 597 l 270 597 l 124 363 l 270 136 l 202 136 z "},"›":{"ha":326,"x_min":56,"x_max":271,"o":"m 56 136 l 202 363 l 56 597 l 124 597 l 271 363 l 124 136 l 56 136 z "},"‡":{"ha":387,"x_min":23,"x_max":364,"o":"m 364 352 l 213 369 l 231 155 l 161 155 l 180 369 l 23 352 l 23 440 l 164 423 l 189 564 l 164 704 l 23 687 l 23 775 l 180 758 l 161 972 l 231 972 l 213 758 l 364 775 l 364 687 l 229 704 l 204 564 l 229 423 l 364 440 l 364 352 z "},"·":{"ha":229,"x_min":65,"x_max":163,"o":"m 114 412 q 79 431 94 412 q 65 477 65 450 q 79 524 65 505 q 114 543 93 543 q 133 538 124 543 q 149 525 142 533 q 159 504 155 516 q 163 477 163 492 q 159 452 163 464 q 149 431 155 440 q 133 417 142 422 q 114 412 124 412 z "},"‚":{"ha":231,"x_min":42,"x_max":165,"o":"m 90 -153 l 42 -153 l 102 148 l 165 148 l 90 -153 z "},"„":{"ha":371,"x_min":42,"x_max":306,"o":"m 231 -155 l 182 -155 l 241 148 l 306 148 l 231 -155 m 90 -155 l 42 -155 l 102 148 l 165 148 l 90 -155 z "},"‰":{"ha":1246,"x_min":41,"x_max":1209,"o":"m 208 490 q 139 507 170 490 q 86 557 108 525 q 53 634 64 589 q 41 734 41 679 q 54 842 41 794 q 90 922 67 889 q 145 972 113 955 q 216 989 177 989 q 285 972 254 989 q 337 924 315 956 q 370 846 358 892 q 381 742 381 800 q 369 641 381 687 q 334 561 356 595 q 279 509 311 528 q 208 490 248 490 m 214 924 q 166 911 188 924 q 130 874 144 899 q 106 815 115 850 q 98 736 98 781 q 128 603 98 652 q 212 554 158 554 q 259 567 239 554 q 294 605 280 581 q 316 664 309 629 q 324 741 324 699 q 295 877 324 830 q 214 924 265 924 m 219 -14 l 157 -14 l 611 972 l 672 972 l 219 -14 m 1037 -16 q 967 2 998 -16 q 915 52 937 20 q 882 129 894 84 q 871 229 871 174 q 883 336 871 288 q 919 416 896 383 q 974 467 942 450 q 1045 485 1006 485 q 1114 468 1083 485 q 1165 418 1144 450 q 1198 340 1187 387 q 1209 236 1209 294 q 1197 135 1209 181 q 1162 55 1185 89 q 1108 3 1140 22 q 1037 -16 1076 -16 m 1043 418 q 959 369 989 418 q 928 231 928 320 q 958 97 928 144 q 1040 49 987 49 q 1124 99 1094 49 q 1154 236 1154 149 q 1124 372 1154 326 q 1043 418 1094 418 m 625 -16 q 556 2 587 -16 q 503 52 525 20 q 470 129 481 83 q 458 229 458 174 q 471 336 458 288 q 507 416 484 383 q 562 467 530 450 q 633 485 594 485 q 701 468 671 485 q 753 419 732 451 q 786 341 774 387 q 798 236 798 294 q 785 135 798 181 q 750 55 772 89 q 696 3 728 22 q 625 -16 664 -16 m 631 418 q 583 406 604 418 q 547 369 562 393 q 524 310 532 345 q 515 231 515 275 q 523 155 515 189 q 546 97 531 121 q 581 61 560 74 q 628 49 602 49 q 675 62 654 49 q 711 99 696 75 q 733 158 725 123 q 741 236 741 193 q 712 372 741 326 q 631 418 682 418 z "},"Â":{"ha":663,"x_min":20,"x_max":642,"o":"m 567 0 l 487 288 l 174 288 l 96 0 l 20 0 l 298 972 l 366 972 l 642 0 l 567 0 m 345 802 q 337 832 341 815 q 331 871 334 849 l 329 871 q 322 832 326 849 q 315 802 318 815 l 197 370 l 464 370 l 345 802 m 408 1052 l 326 1211 l 243 1052 l 193 1052 l 304 1278 l 350 1278 l 460 1052 l 408 1052 z "},"Ê":{"ha":524,"x_min":94,"x_max":467,"o":"m 94 0 l 94 972 l 450 972 l 450 890 l 162 890 l 162 533 l 429 533 l 429 452 l 162 452 l 162 82 l 467 82 l 467 0 l 94 0 m 357 1052 l 275 1211 l 193 1052 l 142 1052 l 254 1278 l 299 1278 l 410 1052 l 357 1052 z "},"Á":{"ha":663,"x_min":20,"x_max":642,"o":"m 567 0 l 487 288 l 174 288 l 96 0 l 20 0 l 298 972 l 366 972 l 642 0 l 567 0 m 345 802 q 337 832 341 815 q 331 871 334 849 l 329 871 q 322 832 326 849 q 315 802 318 815 l 197 370 l 464 370 l 345 802 m 297 1052 l 242 1052 l 358 1274 l 427 1274 l 297 1052 z "},"Ë":{"ha":524,"x_min":94,"x_max":467,"o":"m 94 0 l 94 972 l 450 972 l 450 890 l 162 890 l 162 533 l 429 533 l 429 452 l 162 452 l 162 82 l 467 82 l 467 0 l 94 0 m 372 1052 q 342 1068 355 1052 q 329 1109 329 1084 q 341 1151 329 1135 q 370 1166 354 1166 q 402 1150 389 1166 q 415 1109 415 1134 q 403 1068 415 1085 q 372 1052 391 1052 m 189 1052 q 173 1056 180 1052 q 159 1068 165 1061 q 149 1087 153 1076 q 145 1109 145 1097 q 158 1151 145 1135 q 188 1166 171 1166 q 205 1162 197 1166 q 220 1150 214 1158 q 229 1132 226 1143 q 233 1109 233 1122 q 220 1068 233 1085 q 189 1052 208 1052 z "},"È":{"ha":524,"x_min":94,"x_max":467,"o":"m 94 0 l 94 972 l 450 972 l 450 890 l 162 890 l 162 533 l 429 533 l 429 452 l 162 452 l 162 82 l 467 82 l 467 0 l 94 0 m 288 1052 l 158 1274 l 227 1274 l 342 1052 l 288 1052 z "},"Í":{"ha":257,"x_min":74,"x_max":258,"o":"m 162 0 l 94 0 l 94 972 l 162 972 l 162 0 m 129 1052 l 74 1052 l 190 1274 l 258 1274 l 129 1052 z "},"Î":{"ha":257,"x_min":-3,"x_max":264,"o":"m 162 0 l 94 0 l 94 972 l 162 972 l 162 0 m 211 1052 l 129 1211 l 47 1052 l -3 1052 l 108 1278 l 153 1278 l 264 1052 l 211 1052 z "},"Ï":{"ha":257,"x_min":-5,"x_max":264,"o":"m 162 0 l 94 0 l 94 972 l 162 972 l 162 0 m 221 1052 q 191 1068 204 1052 q 178 1109 178 1084 q 191 1151 178 1135 q 220 1166 203 1166 q 251 1150 238 1166 q 264 1109 264 1134 q 252 1068 264 1085 q 221 1052 240 1052 m 39 1052 q 22 1056 30 1052 q 8 1068 14 1061 q -2 1087 2 1076 q -5 1109 -5 1097 q 7 1151 -5 1135 q 37 1166 20 1166 q 55 1162 47 1166 q 69 1150 63 1158 q 79 1132 75 1143 q 82 1109 82 1122 q 70 1068 82 1085 q 39 1052 57 1052 z "},"Ì":{"ha":257,"x_min":-1,"x_max":183,"o":"m 162 0 l 94 0 l 94 972 l 162 972 l 162 0 m 128 1052 l -1 1274 l 68 1274 l 183 1052 l 128 1052 z "},"Ó":{"ha":789,"x_min":52,"x_max":737,"o":"m 391 -17 q 250 21 313 -17 q 142 126 186 60 q 75 282 98 193 q 52 475 52 372 q 75 684 52 589 q 144 846 98 779 q 255 951 189 913 q 404 989 320 989 q 543 952 481 989 q 648 849 605 915 q 714 694 691 784 q 737 500 737 605 q 715 295 737 389 q 648 131 692 200 q 540 22 604 62 q 391 -17 475 -17 m 397 907 q 280 873 331 907 q 194 782 229 840 q 141 648 159 725 q 122 484 123 571 q 138 326 121 401 q 188 192 155 250 q 272 100 221 134 q 391 65 323 65 q 511 97 459 65 q 597 184 562 128 q 649 317 631 240 q 667 486 667 395 q 651 648 667 572 q 603 782 635 725 q 519 873 570 840 q 397 907 469 907 m 380 1052 l 326 1052 l 441 1274 l 510 1274 l 380 1052 z "},"Ô":{"ha":789,"x_min":52,"x_max":737,"o":"m 391 -17 q 250 21 313 -17 q 142 126 186 60 q 75 282 98 193 q 52 475 52 372 q 75 684 52 589 q 144 846 98 779 q 255 951 189 913 q 404 989 320 989 q 543 952 481 989 q 648 849 605 915 q 714 694 691 784 q 737 500 737 605 q 715 295 737 389 q 648 131 692 200 q 540 22 604 62 q 391 -17 475 -17 m 397 907 q 280 873 331 907 q 194 782 229 840 q 141 648 159 725 q 122 484 123 571 q 138 326 121 401 q 188 192 155 250 q 272 100 221 134 q 391 65 323 65 q 511 97 459 65 q 597 184 562 128 q 649 317 631 240 q 667 486 667 395 q 651 648 667 572 q 603 782 635 725 q 519 873 570 840 q 397 907 469 907 m 477 1052 l 395 1211 l 313 1052 l 262 1052 l 374 1278 l 419 1278 l 530 1052 l 477 1052 z "},"Ò":{"ha":789,"x_min":52,"x_max":737,"o":"m 391 -17 q 250 21 313 -17 q 142 126 186 60 q 75 282 98 193 q 52 475 52 372 q 75 684 52 589 q 144 846 98 779 q 255 951 189 913 q 404 989 320 989 q 543 952 481 989 q 648 849 605 915 q 714 694 691 784 q 737 500 737 605 q 715 295 737 389 q 648 131 692 200 q 540 22 604 62 q 391 -17 475 -17 m 397 907 q 280 873 331 907 q 194 782 229 840 q 141 648 159 725 q 122 484 123 571 q 138 326 121 401 q 188 192 155 250 q 272 100 221 134 q 391 65 323 65 q 511 97 459 65 q 597 184 562 128 q 649 317 631 240 q 667 486 667 395 q 651 648 667 572 q 603 782 635 725 q 519 873 570 840 q 397 907 469 907 m 411 1052 l 281 1274 l 351 1274 l 466 1052 l 411 1052 z "},"Ú":{"ha":695,"x_min":85,"x_max":610,"o":"m 610 391 q 341 -17 610 -17 q 85 376 85 -17 l 85 972 l 153 972 l 153 384 q 201 144 153 224 q 351 65 250 65 q 542 374 542 65 l 542 972 l 610 972 l 610 391 m 346 1052 l 291 1052 l 407 1274 l 475 1274 l 346 1052 z "},"Û":{"ha":695,"x_min":85,"x_max":610,"o":"m 610 391 q 341 -17 610 -17 q 85 376 85 -17 l 85 972 l 153 972 l 153 384 q 201 144 153 224 q 351 65 250 65 q 542 374 542 65 l 542 972 l 610 972 l 610 391 m 438 1052 l 356 1211 l 274 1052 l 224 1052 l 335 1278 l 380 1278 l 491 1052 l 438 1052 z "},"Ù":{"ha":695,"x_min":85,"x_max":610,"o":"m 610 391 q 341 -17 610 -17 q 85 376 85 -17 l 85 972 l 153 972 l 153 384 q 201 144 153 224 q 351 65 250 65 q 542 374 542 65 l 542 972 l 610 972 l 610 391 m 352 1052 l 222 1274 l 292 1274 l 407 1052 l 352 1052 z "},"ı":{"ha":233,"x_min":84,"x_max":149,"o":"m 84 0 l 84 694 l 149 694 l 149 0 l 84 0 z "},"ˆ":{"ha":388,"x_min":56,"x_max":323,"o":"m 270 816 l 188 975 l 106 816 l 56 816 l 167 1042 l 212 1042 l 323 816 l 270 816 z "},"˜":{"ha":340,"x_min":19,"x_max":340,"o":"m 340 977 q 334 913 340 942 q 316 864 328 885 q 288 832 304 844 q 250 821 271 821 q 170 864 215 821 q 110 897 135 897 q 62 810 62 897 l 19 810 q 25 873 19 845 q 44 922 32 902 q 72 954 56 943 q 111 965 89 965 q 189 923 145 965 q 251 888 224 888 q 284 910 272 888 q 297 977 297 932 l 340 977 z "},"ˉ":{"ha":323,"x_min":31,"x_max":290,"o":"m 31 816 l 31 881 l 290 881 l 290 816 l 31 816 z "},"˘":{"ha":313,"x_min":19,"x_max":294,"o":"m 294 981 q 279 913 291 943 q 249 861 267 883 q 207 828 231 840 q 155 816 182 816 q 101 827 125 816 q 59 860 77 839 q 31 912 41 882 q 19 981 20 943 l 66 981 q 92 902 68 929 q 155 874 115 874 q 188 882 173 874 q 216 904 203 890 q 236 937 228 918 q 246 981 243 957 l 294 981 z "},"˙":{"ha":197,"x_min":54,"x_max":143,"o":"m 98 816 q 81 820 90 816 q 67 833 73 825 q 57 852 61 841 q 54 876 54 863 q 57 899 54 888 q 67 917 61 909 q 81 929 73 924 q 98 933 89 933 q 130 917 117 933 q 143 876 143 901 q 130 833 143 850 q 98 816 117 816 z "},"˚":{"ha":297,"x_min":45,"x_max":252,"o":"m 147 802 q 109 810 127 802 q 76 836 90 819 q 54 876 62 852 q 45 928 45 899 q 54 981 45 957 q 76 1022 62 1004 q 109 1048 90 1039 q 149 1058 127 1058 q 188 1049 170 1058 q 220 1024 206 1040 q 243 983 235 1007 q 252 930 252 960 q 244 879 252 903 q 221 839 235 856 q 188 811 206 821 q 147 802 169 802 m 147 1008 q 104 986 121 1008 q 87 930 87 964 q 103 872 87 892 q 147 852 119 852 q 173 858 161 852 q 192 874 184 863 q 205 899 201 884 q 210 930 210 913 q 192 987 210 966 q 147 1008 174 1008 z "},"¸":{"ha":212,"x_min":27,"x_max":199,"o":"m 199 -176 q 64 -294 199 -294 q 27 -292 45 -294 l 27 -236 q 67 -240 52 -240 q 143 -178 143 -240 q 74 -123 143 -123 q 62 -123 68 -123 q 47 -125 56 -124 l 47 0 l 93 0 l 93 -75 q 171 -101 144 -75 q 199 -176 199 -127 z "},"˝":{"ha":330,"x_min":34,"x_max":320,"o":"m 195 816 l 151 816 l 258 1031 l 320 1031 l 195 816 m 77 816 l 34 816 l 140 1031 l 201 1031 l 77 816 z "},"˛":{"ha":188,"x_min":28,"x_max":163,"o":"m 163 0 q 82 -157 82 -94 q 121 -211 82 -211 q 155 -201 138 -211 l 155 -260 q 111 -271 136 -271 q 51 -244 73 -271 q 28 -168 28 -217 q 49 -85 28 -129 q 111 0 70 -41 l 163 0 z "},"ˇ":{"ha":388,"x_min":63,"x_max":330,"o":"m 219 816 l 174 816 l 63 1042 l 115 1042 l 196 882 l 279 1042 l 330 1042 l 219 816 z "},"Ł":{"ha":484,"x_min":26,"x_max":455,"o":"m 94 0 l 94 378 l 26 322 l 26 406 l 94 463 l 94 972 l 162 972 l 162 518 l 338 663 l 338 578 l 162 434 l 162 82 l 455 82 l 455 0 l 94 0 z "},"ł":{"ha":270,"x_min":12,"x_max":256,"o":"m 165 471 l 165 0 l 100 0 l 100 410 l 12 323 l 12 409 l 100 496 l 100 1028 l 165 1028 l 165 557 l 256 644 l 256 558 l 165 471 z "},"Š":{"ha":536,"x_min":66,"x_max":479,"o":"m 66 142 q 106 110 84 124 q 152 85 129 95 q 198 70 175 75 q 243 65 222 65 q 367 108 326 65 q 408 231 408 151 q 399 298 408 269 q 369 352 389 327 q 317 402 349 377 q 244 458 286 427 q 164 522 197 492 q 110 584 131 552 q 78 652 88 615 q 68 735 68 688 q 87 841 68 794 q 138 921 106 888 q 213 971 170 954 q 305 989 256 989 q 449 957 391 989 l 449 857 q 298 907 385 907 q 236 896 265 907 q 186 865 208 886 q 152 815 164 845 q 139 745 139 785 q 148 679 139 707 q 175 627 156 652 q 223 579 193 603 q 298 524 254 555 q 377 460 343 491 q 434 396 412 429 q 468 325 456 362 q 479 241 479 287 q 461 129 479 177 q 411 48 444 80 q 335 0 379 16 q 238 -16 291 -16 q 197 -13 220 -16 q 149 -2 173 -9 q 102 15 124 5 q 66 37 80 25 l 66 142 m 299 1052 l 254 1052 l 143 1278 l 195 1278 l 276 1118 l 359 1278 l 410 1278 l 299 1052 z "},"š":{"ha":423,"x_min":54,"x_max":377,"o":"m 54 125 q 86 97 69 109 q 122 76 104 85 q 159 63 140 67 q 194 58 178 58 q 310 174 310 58 q 302 220 310 201 q 278 255 294 239 q 242 285 263 271 q 194 313 220 298 q 132 353 157 333 q 89 398 106 374 q 64 451 72 422 q 56 516 56 479 q 71 598 56 562 q 112 659 86 634 q 170 697 137 684 q 240 711 203 711 q 358 677 308 711 l 358 585 q 232 635 300 635 q 188 627 208 635 q 153 604 168 619 q 131 569 139 589 q 123 523 123 548 q 129 478 123 497 q 148 443 135 458 q 182 413 161 427 q 232 382 202 399 q 297 342 269 362 q 342 299 324 322 q 369 247 360 275 q 377 180 377 218 q 363 96 377 133 q 323 35 349 60 q 262 -3 297 9 q 187 -16 228 -16 q 54 28 109 -16 l 54 125 m 232 816 l 186 816 l 76 1042 l 127 1042 l 209 882 l 292 1042 l 342 1042 l 232 816 z "},"Ž":{"ha":593,"x_min":25,"x_max":562,"o":"m 127 82 l 553 82 l 553 0 l 25 0 l 25 26 l 458 890 l 60 890 l 60 972 l 562 972 l 562 949 l 127 82 m 339 1052 l 294 1052 l 183 1278 l 235 1278 l 316 1118 l 399 1278 l 450 1278 l 339 1052 z "},"ž":{"ha":477,"x_min":23,"x_max":450,"o":"m 122 76 l 443 76 l 443 0 l 23 0 l 23 29 l 350 618 l 50 618 l 50 694 l 450 694 l 450 670 l 122 76 m 279 816 l 233 816 l 123 1042 l 174 1042 l 256 882 l 338 1042 l 389 1042 l 279 816 z "},"¦":{"ha":242,"x_min":90,"x_max":152,"o":"m 90 485 l 90 1062 l 152 1062 l 152 485 l 90 485 m 90 -326 l 90 251 l 152 251 l 152 -326 l 90 -326 z "},"Ð":{"ha":716,"x_min":16,"x_max":665,"o":"m 16 526 l 94 526 l 94 972 l 286 972 q 569 853 473 972 q 665 499 665 733 q 638 294 665 387 q 561 137 611 202 q 439 36 511 71 q 277 0 367 0 l 94 0 l 94 444 l 16 444 l 16 526 m 162 890 l 162 526 l 351 526 l 351 444 l 162 444 l 162 82 l 274 82 q 409 109 349 82 q 509 189 468 136 q 572 319 550 241 q 593 496 593 396 q 281 890 593 890 l 162 890 z "},"ð":{"ha":568,"x_min":47,"x_max":520,"o":"m 406 655 q 300 846 356 772 l 147 744 l 125 801 l 264 890 q 133 1027 202 965 l 227 1027 q 270 983 247 1008 q 318 928 292 959 l 469 1027 l 491 972 l 353 882 q 426 765 394 827 q 478 636 457 703 q 510 497 499 568 q 520 351 520 425 q 504 205 520 272 q 457 89 488 138 q 382 12 427 39 q 283 -16 338 -16 q 183 9 227 -16 q 109 81 139 35 q 63 194 78 127 q 47 341 47 260 q 64 490 47 422 q 113 607 81 558 q 189 683 144 656 q 288 710 233 710 q 404 652 357 710 l 406 655 m 290 635 q 217 615 250 635 q 162 556 185 594 q 127 463 139 517 q 115 342 115 409 q 126 224 115 277 q 160 135 138 172 q 214 78 182 98 q 286 58 245 58 q 356 79 326 58 q 409 138 387 100 q 441 229 430 176 q 453 347 453 281 q 290 635 453 635 z "},"Ý":{"ha":569,"x_min":17,"x_max":552,"o":"m 314 364 l 314 0 l 246 0 l 246 362 l 17 972 l 94 972 l 261 518 q 269 494 264 510 q 281 452 274 477 l 283 452 q 291 481 286 465 q 305 517 297 497 l 479 972 l 552 972 l 314 364 m 277 1052 l 222 1052 l 338 1274 l 407 1274 l 277 1052 z "},"ý":{"ha":488,"x_min":9,"x_max":481,"o":"m 235 -126 q 164 -277 204 -228 q 68 -326 125 -326 q 21 -317 41 -326 l 21 -236 q 44 -244 33 -241 q 67 -247 56 -247 q 123 -220 99 -247 q 163 -139 146 -193 l 209 3 l 9 694 l 81 694 l 230 144 q 236 120 233 134 q 241 92 239 106 l 243 92 q 249 116 246 104 q 255 142 251 127 l 413 694 l 481 694 l 235 -126 m 241 816 l 186 816 l 302 1038 l 370 1038 l 241 816 z "},"Þ":{"ha":574,"x_min":94,"x_max":522,"o":"m 162 221 l 162 0 l 94 0 l 94 972 l 162 972 l 162 815 l 283 815 q 461 743 400 815 q 522 533 522 671 q 501 400 522 458 q 446 302 481 342 q 363 242 411 262 q 261 221 316 221 l 162 221 m 162 732 l 162 304 l 259 304 q 401 361 352 304 q 450 526 450 418 q 271 732 450 732 l 162 732 z "},"þ":{"ha":597,"x_min":84,"x_max":550,"o":"m 149 112 l 149 -319 l 84 -319 l 84 1028 l 149 1028 l 149 562 l 151 562 q 229 672 180 634 q 338 711 277 711 q 427 687 388 711 q 494 618 467 663 q 536 511 522 574 q 550 370 550 448 q 534 213 550 283 q 487 91 517 142 q 413 12 456 40 q 315 -16 370 -16 q 151 112 205 -16 l 149 112 m 149 289 q 161 200 149 241 q 194 126 173 158 q 246 77 216 95 q 313 58 276 58 q 384 80 352 58 q 437 143 415 102 q 471 241 459 184 q 483 370 483 299 q 472 480 483 431 q 440 564 460 530 q 390 617 420 599 q 325 635 361 635 q 252 615 284 635 q 196 561 219 595 q 161 480 174 526 q 149 381 149 433 l 149 289 z "},"−":{"ha":694,"x_min":113,"x_max":583,"o":"m 113 368 l 113 441 l 583 441 l 583 368 l 113 368 z "},"×":{"ha":694,"x_min":137,"x_max":557,"o":"m 518 124 l 347 353 l 176 124 l 137 176 l 309 404 l 137 633 l 176 685 l 347 456 l 518 685 l 557 633 l 386 404 l 557 176 l 518 124 z "},"½":{"ha":838,"x_min":60,"x_max":787,"o":"m 313 396 l 65 396 l 65 462 l 162 462 l 162 895 l 60 852 l 60 924 l 217 989 l 217 462 l 313 462 l 313 396 m 252 0 l 205 0 l 534 972 l 579 972 l 252 0 m 787 1 l 514 1 l 514 74 l 635 233 q 682 298 665 271 q 708 347 699 325 q 721 387 718 368 q 724 425 724 405 q 704 496 724 471 q 648 522 685 522 q 537 454 590 522 l 537 539 q 654 591 587 591 q 708 580 684 591 q 748 548 731 568 q 773 498 764 527 q 782 434 782 469 q 776 381 782 408 q 758 326 770 355 q 725 263 745 296 q 674 192 704 231 l 583 76 l 583 73 l 787 73 l 787 1 z "},"¼":{"ha":770,"x_min":60,"x_max":750,"o":"m 313 396 l 65 396 l 65 462 l 162 462 l 162 895 l 60 852 l 60 924 l 217 989 l 217 462 l 313 462 l 313 396 m 252 0 l 205 0 l 534 972 l 579 972 l 252 0 m 694 144 l 694 1 l 640 1 l 640 144 l 440 144 l 440 197 l 631 578 l 694 578 l 694 208 l 750 208 l 750 144 l 694 144 m 640 498 q 618 447 628 467 l 500 208 l 640 208 l 640 442 q 642 498 640 467 l 640 498 z "},"¾":{"ha":770,"x_min":46,"x_max":750,"o":"m 300 555 q 289 485 300 517 q 259 430 279 453 q 212 393 239 406 q 149 380 184 380 q 46 414 87 380 l 46 495 q 151 448 98 448 q 219 476 195 448 q 243 553 243 505 q 128 658 243 658 l 89 658 l 89 725 l 125 725 q 230 829 230 725 q 154 916 230 916 q 63 874 111 916 l 63 952 q 165 985 110 985 q 215 975 193 985 q 253 945 237 964 q 277 900 269 926 q 285 842 285 873 q 211 699 285 735 l 211 696 q 277 646 255 683 q 300 555 300 610 m 252 0 l 205 0 l 534 972 l 579 972 l 252 0 m 694 144 l 694 1 l 640 1 l 640 144 l 440 144 l 440 197 l 631 578 l 694 578 l 694 208 l 750 208 l 750 144 l 694 144 m 640 498 q 618 447 628 467 l 500 208 l 640 208 l 640 442 q 642 498 640 467 l 640 498 z "},"₣":{"ha":496,"x_min":13,"x_max":450,"o":"m 294 203 l 162 203 l 162 0 l 94 0 l 94 203 l 13 203 l 13 287 l 94 287 l 94 972 l 450 972 l 450 890 l 162 890 l 162 524 l 429 524 l 429 441 l 162 441 l 162 287 l 294 287 l 294 203 z "},"Ğ":{"ha":705,"x_min":52,"x_max":631,"o":"m 631 67 q 393 -17 518 -17 q 250 19 313 -17 q 143 120 187 56 q 75 275 98 185 q 52 473 52 365 q 63 610 52 544 q 96 733 74 675 q 151 838 119 791 q 224 918 182 884 q 315 970 265 952 q 422 989 365 989 q 616 937 531 989 l 616 838 q 414 907 522 907 q 294 874 348 907 q 202 785 240 842 q 143 650 164 728 q 122 481 123 572 q 139 315 121 391 q 193 183 157 239 q 281 96 229 127 q 402 65 334 65 q 563 117 495 65 l 563 413 l 397 413 l 397 495 l 631 495 l 631 67 m 539 1217 q 524 1149 536 1179 q 494 1097 512 1119 q 451 1064 475 1076 q 399 1052 427 1052 q 346 1063 370 1052 q 304 1096 322 1075 q 276 1148 286 1118 q 264 1217 265 1179 l 311 1217 q 337 1138 313 1165 q 400 1110 360 1110 q 433 1118 418 1110 q 460 1140 448 1126 q 480 1173 473 1154 q 491 1217 488 1193 l 539 1217 z "},"ğ":{"ha":598,"x_min":47,"x_max":514,"o":"m 514 54 q 448 -233 514 -140 q 245 -326 382 -326 q 83 -275 159 -326 l 83 -187 q 245 -250 168 -250 q 449 37 449 -250 l 449 121 l 447 121 q 264 -16 387 -16 q 176 7 216 -16 q 107 76 136 31 q 63 185 79 121 q 47 330 47 249 q 64 485 47 415 q 112 606 81 555 q 187 683 143 656 q 286 711 231 711 q 447 591 396 711 l 449 591 l 449 694 l 514 694 l 514 54 m 449 422 q 437 504 449 465 q 405 572 426 543 q 355 618 384 601 q 292 635 326 635 q 218 614 251 635 q 162 555 186 593 q 127 461 139 516 q 115 336 115 406 q 126 221 115 273 q 159 134 138 170 q 211 78 180 98 q 278 58 241 58 q 348 77 317 58 q 402 129 380 96 q 437 206 425 161 q 449 302 449 250 l 449 422 m 435 981 q 420 913 432 943 q 390 861 408 883 q 348 828 372 840 q 296 816 323 816 q 242 827 267 816 q 200 860 218 839 q 172 912 182 882 q 160 981 161 943 l 207 981 q 233 902 210 929 q 296 874 256 874 q 329 882 314 874 q 357 904 345 890 q 377 937 369 918 q 387 981 385 957 l 435 981 z "},"İ":{"ha":257,"x_min":83,"x_max":173,"o":"m 162 0 l 94 0 l 94 972 l 162 972 l 162 0 m 128 1052 q 111 1056 119 1052 q 97 1069 103 1061 q 87 1088 91 1077 q 83 1112 83 1099 q 87 1135 83 1124 q 97 1153 91 1145 q 111 1165 103 1160 q 128 1169 119 1169 q 160 1153 146 1169 q 173 1112 173 1137 q 160 1069 173 1086 q 128 1052 147 1052 z "},"Ş":{"ha":536,"x_min":66,"x_max":479,"o":"m 66 142 q 106 110 84 124 q 152 85 129 95 q 198 70 175 75 q 243 65 222 65 q 367 108 326 65 q 408 231 408 151 q 399 298 408 269 q 369 352 389 327 q 317 402 349 377 q 244 458 286 427 q 164 522 197 492 q 110 584 131 552 q 78 652 88 615 q 68 735 68 688 q 87 841 68 794 q 138 921 106 888 q 213 971 170 954 q 305 989 256 989 q 449 957 391 989 l 449 857 q 298 907 385 907 q 236 896 265 907 q 186 865 208 886 q 152 815 164 845 q 139 745 139 785 q 148 679 139 707 q 175 627 156 652 q 223 579 193 603 q 298 524 254 555 q 377 460 343 491 q 434 396 412 429 q 468 325 456 362 q 479 241 479 287 q 461 129 479 177 q 411 48 444 80 q 335 0 379 16 q 238 -16 291 -16 q 197 -13 220 -16 q 149 -2 173 -9 q 102 15 124 5 q 66 37 80 25 l 66 142 m 382 -176 q 248 -294 382 -294 q 211 -292 229 -294 l 211 -236 q 251 -240 235 -240 q 327 -178 327 -240 q 258 -123 327 -123 q 245 -123 252 -123 q 231 -125 239 -124 l 231 0 l 277 0 l 277 -75 q 355 -101 328 -75 q 382 -176 382 -127 z "},"ş":{"ha":423,"x_min":54,"x_max":377,"o":"m 54 125 q 86 97 69 109 q 122 76 104 85 q 159 63 140 67 q 194 58 178 58 q 310 174 310 58 q 302 220 310 201 q 278 255 294 239 q 242 285 263 271 q 194 313 220 298 q 132 353 157 333 q 89 398 106 374 q 64 451 72 422 q 56 516 56 479 q 71 598 56 562 q 112 659 86 634 q 170 697 137 684 q 240 711 203 711 q 358 677 308 711 l 358 585 q 232 635 300 635 q 188 627 208 635 q 153 604 168 619 q 131 569 139 589 q 123 523 123 548 q 129 478 123 497 q 148 443 135 458 q 182 413 161 427 q 232 382 202 399 q 297 342 269 362 q 342 299 324 322 q 369 247 360 275 q 377 180 377 218 q 363 96 377 133 q 323 35 349 60 q 262 -3 297 9 q 187 -16 228 -16 q 54 28 109 -16 l 54 125 m 322 -176 q 187 -294 322 -294 q 151 -292 169 -294 l 151 -236 q 191 -240 175 -240 q 267 -178 267 -240 q 197 -123 267 -123 q 185 -123 191 -123 q 171 -125 179 -124 l 171 0 l 216 0 l 216 -75 q 295 -101 267 -75 q 322 -176 322 -127 z "},"Ć":{"ha":646,"x_min":52,"x_max":585,"o":"m 585 36 q 392 -17 500 -17 q 252 19 315 -17 q 144 120 189 56 q 76 273 100 184 q 52 467 52 362 q 77 673 52 578 q 150 839 102 768 q 266 949 198 909 q 418 989 334 989 q 585 951 511 989 l 585 854 q 418 907 507 907 q 292 874 347 907 q 199 784 237 842 q 142 647 161 726 q 122 474 122 568 q 140 316 122 390 q 192 186 157 241 q 279 98 227 130 q 399 65 331 65 q 585 124 505 65 l 585 36 m 363 1052 l 308 1052 l 424 1274 l 492 1274 l 363 1052 z "},"ć":{"ha":471,"x_min":47,"x_max":432,"o":"m 430 31 q 290 -17 372 -16 q 189 9 234 -18 q 113 82 144 35 q 64 194 81 130 q 47 333 47 258 q 65 480 47 411 q 117 600 83 549 q 201 681 151 651 q 314 711 250 711 q 432 677 378 711 l 432 585 q 309 635 375 635 q 226 612 262 635 q 165 548 190 589 q 128 454 141 508 q 115 340 115 400 q 126 233 115 284 q 159 143 137 182 q 216 81 182 104 q 298 58 251 58 q 430 117 371 58 l 430 31 m 270 816 l 215 816 l 331 1038 l 399 1038 l 270 816 z "},"Č":{"ha":646,"x_min":52,"x_max":585,"o":"m 585 36 q 392 -17 500 -17 q 252 19 315 -17 q 144 120 189 56 q 76 273 100 184 q 52 467 52 362 q 77 673 52 578 q 150 839 102 768 q 266 949 198 909 q 418 989 334 989 q 585 951 511 989 l 585 854 q 418 907 507 907 q 292 874 347 907 q 199 784 237 842 q 142 647 161 726 q 122 474 122 568 q 140 316 122 390 q 192 186 157 241 q 279 98 227 130 q 399 65 331 65 q 585 124 505 65 l 585 36 m 417 1052 l 372 1052 l 261 1278 l 313 1278 l 394 1118 l 477 1278 l 528 1278 l 417 1052 z "},"č":{"ha":471,"x_min":47,"x_max":432,"o":"m 430 31 q 290 -17 372 -16 q 189 9 234 -18 q 113 82 144 35 q 64 194 81 130 q 47 333 47 258 q 65 480 47 411 q 117 600 83 549 q 201 681 151 651 q 314 711 250 711 q 432 677 378 711 l 432 585 q 309 635 375 635 q 226 612 262 635 q 165 548 190 589 q 128 454 141 508 q 115 340 115 400 q 126 233 115 284 q 159 143 137 182 q 216 81 182 104 q 298 58 251 58 q 430 117 371 58 l 430 31 m 315 816 l 270 816 l 159 1042 l 211 1042 l 292 882 l 375 1042 l 426 1042 l 315 816 z "},"đ":{"ha":598,"x_min":47,"x_max":583,"o":"m 280 899 l 449 899 l 449 1028 l 514 1028 l 514 899 l 583 899 l 583 825 l 514 825 l 514 0 l 449 0 l 449 122 l 447 122 q 373 20 421 56 q 264 -16 325 -16 q 175 8 215 -16 q 106 77 135 32 q 63 187 78 123 q 47 333 47 252 q 64 487 47 417 q 113 606 81 556 q 188 683 144 656 q 286 711 232 711 q 447 591 398 711 l 449 591 l 449 825 l 280 825 l 280 899 m 449 419 q 437 504 449 465 q 405 572 426 543 q 355 618 384 602 q 290 635 326 635 q 219 615 252 635 q 163 556 186 595 q 127 463 140 518 q 115 338 115 408 q 126 220 115 273 q 159 132 138 168 q 211 77 181 96 q 277 58 241 58 q 349 77 317 58 q 403 130 381 96 q 437 208 425 163 q 449 303 449 252 l 449 419 z "},"¯":{"ha":432,"x_min":0,"x_max":432,"o":"m 0 957 l 0 1028 l 432 1028 l 432 957 l 0 957 z "},"∙":{"ha":227,"x_min":64,"x_max":162,"o":"m 113 385 q 94 390 102 385 q 78 404 85 395 q 68 425 72 413 q 64 450 64 437 q 78 496 64 477 q 113 515 92 515 q 132 510 123 515 q 147 497 140 505 q 158 476 154 488 q 162 450 162 465 q 158 424 162 436 q 147 404 154 412 q 132 390 140 395 q 113 385 123 385 z "},"Ă":{"ha":663,"x_min":20,"x_max":642,"o":"m 567 0 l 487 288 l 174 288 l 96 0 l 20 0 l 298 972 l 366 972 l 642 0 l 567 0 m 345 802 q 337 832 341 815 q 331 871 334 849 l 329 871 q 322 832 326 849 q 315 802 318 815 l 197 370 l 464 370 l 345 802 m 470 1217 q 455 1149 467 1179 q 425 1097 443 1119 q 382 1064 406 1076 q 330 1052 358 1052 q 277 1063 301 1052 q 235 1096 253 1075 q 207 1148 217 1118 q 195 1217 196 1179 l 241 1217 q 268 1138 244 1165 q 331 1110 291 1110 q 364 1118 349 1110 q 391 1140 379 1126 q 411 1173 404 1154 q 422 1217 419 1193 l 470 1217 z "},"ă":{"ha":522,"x_min":50,"x_max":449,"o":"m 384 0 l 384 123 l 382 123 q 313 20 357 57 q 213 -16 269 -16 q 145 -2 176 -16 q 94 38 115 12 q 61 101 73 64 q 50 182 50 138 q 93 332 50 276 q 226 405 137 388 l 384 435 q 267 635 384 635 q 98 547 176 635 l 98 642 q 135 670 115 657 q 179 691 156 682 q 226 706 202 701 q 273 711 250 711 q 405 646 360 711 q 449 452 449 581 l 449 0 l 384 0 m 250 337 q 190 320 214 330 q 149 293 165 310 q 124 250 132 275 q 117 187 117 224 q 124 136 117 159 q 145 95 132 112 q 180 68 159 77 q 225 58 200 58 q 289 76 260 58 q 339 125 318 94 q 372 199 360 156 q 384 294 384 243 l 384 362 l 250 337 m 404 981 q 388 913 400 943 q 358 861 376 883 q 316 828 340 840 q 264 816 292 816 q 211 827 235 816 q 169 860 186 839 q 140 912 151 882 q 128 981 130 943 l 175 981 q 201 902 178 929 q 264 874 224 874 q 297 882 282 874 q 325 904 313 890 q 345 937 337 918 q 355 981 353 957 l 404 981 z "},"Ą":{"ha":663,"x_min":20,"x_max":642,"o":"m 567 0 l 487 288 l 174 288 l 96 0 l 20 0 l 298 972 l 366 972 l 642 0 l 567 0 m 345 802 q 337 832 341 815 q 331 871 334 849 l 329 871 q 322 832 326 849 q 315 802 318 815 l 197 370 l 464 370 l 345 802 m 620 0 q 538 -157 538 -94 q 577 -211 538 -211 q 612 -201 595 -211 l 612 -260 q 567 -271 592 -271 q 507 -244 530 -271 q 484 -168 484 -217 q 505 -85 484 -129 q 567 0 526 -41 l 620 0 z "},"ą":{"ha":522,"x_min":50,"x_max":449,"o":"m 384 0 l 384 123 l 382 123 q 313 20 357 57 q 213 -16 269 -16 q 145 -2 176 -16 q 94 38 115 12 q 61 101 73 64 q 50 182 50 138 q 93 332 50 276 q 226 405 137 388 l 384 435 q 267 635 384 635 q 98 547 176 635 l 98 642 q 135 670 115 657 q 179 691 156 682 q 226 706 202 701 q 273 711 250 711 q 405 646 360 711 q 449 452 449 581 l 449 0 l 384 0 m 250 337 q 190 320 214 330 q 149 293 165 310 q 124 250 132 275 q 117 187 117 224 q 124 136 117 159 q 145 95 132 112 q 180 68 159 77 q 225 58 200 58 q 289 76 260 58 q 339 125 318 94 q 372 199 360 156 q 384 294 384 243 l 384 362 l 250 337 m 437 0 q 355 -157 355 -94 q 394 -211 355 -211 q 429 -201 412 -211 l 429 -260 q 384 -271 409 -271 q 324 -244 347 -271 q 301 -168 301 -217 q 322 -85 301 -129 q 384 0 343 -41 l 437 0 z "},"Ď":{"ha":716,"x_min":94,"x_max":665,"o":"m 94 0 l 94 972 l 286 972 q 569 853 473 972 q 665 499 665 733 q 638 294 665 387 q 561 137 611 202 q 439 36 511 71 q 277 0 367 0 l 94 0 m 162 890 l 162 82 l 274 82 q 409 109 349 82 q 509 189 468 136 q 572 319 550 241 q 593 496 593 396 q 281 890 593 890 l 162 890 m 366 1052 l 320 1052 l 210 1278 l 261 1278 l 342 1118 l 425 1278 l 476 1278 l 366 1052 z "},"ď":{"ha":670,"x_min":47,"x_max":701,"o":"m 449 0 l 449 122 l 447 122 q 373 20 421 56 q 264 -16 325 -16 q 175 8 215 -16 q 106 77 135 32 q 63 187 78 123 q 47 333 47 252 q 64 487 47 417 q 113 606 81 556 q 188 683 144 656 q 286 711 232 711 q 447 591 398 711 l 449 591 l 449 1028 l 514 1028 l 514 0 l 449 0 m 449 419 q 437 504 449 465 q 405 572 426 543 q 355 618 384 602 q 290 635 326 635 q 219 615 252 635 q 163 556 186 595 q 127 463 140 518 q 115 338 115 408 q 126 220 115 273 q 159 132 138 168 q 211 77 181 96 q 277 58 241 58 q 349 77 317 58 q 403 130 381 96 q 437 208 425 163 q 449 303 449 252 l 449 419 m 701 1027 l 627 851 l 576 851 l 629 1027 l 701 1027 z "},"Đ":{"ha":716,"x_min":16,"x_max":665,"o":"m 16 526 l 94 526 l 94 972 l 286 972 q 569 853 473 972 q 665 499 665 733 q 638 294 665 387 q 561 137 611 202 q 439 36 511 71 q 277 0 367 0 l 94 0 l 94 444 l 16 444 l 16 526 m 162 890 l 162 526 l 351 526 l 351 444 l 162 444 l 162 82 l 274 82 q 409 109 349 82 q 509 189 468 136 q 572 319 550 241 q 593 496 593 396 q 281 890 593 890 l 162 890 z "},"Ę":{"ha":524,"x_min":94,"x_max":467,"o":"m 94 0 l 94 972 l 450 972 l 450 890 l 162 890 l 162 533 l 429 533 l 429 452 l 162 452 l 162 82 l 467 82 l 467 0 l 94 0 m 433 0 q 352 -157 352 -94 q 391 -211 352 -211 q 425 -201 408 -211 l 425 -260 q 380 -271 406 -271 q 320 -244 343 -271 q 298 -168 298 -217 q 319 -85 298 -129 q 380 0 340 -41 l 433 0 z "},"ę":{"ha":535,"x_min":47,"x_max":491,"o":"m 115 332 q 127 217 115 268 q 163 131 140 166 q 218 77 186 96 q 292 58 251 58 q 458 140 380 58 l 458 55 q 277 -16 384 -16 q 182 8 225 -16 q 110 79 140 33 q 64 193 80 125 q 47 348 47 261 q 65 492 47 426 q 114 607 83 559 q 189 683 146 656 q 283 711 233 711 q 373 687 334 711 q 438 621 412 664 q 477 515 464 577 q 491 375 491 452 l 491 332 l 115 332 m 424 408 q 386 576 422 516 q 282 635 349 635 q 221 620 249 635 q 171 575 193 604 q 136 503 150 545 q 117 408 122 460 l 424 408 m 344 0 q 262 -157 262 -94 q 301 -211 262 -211 q 336 -201 319 -211 l 336 -260 q 291 -271 316 -271 q 231 -244 254 -271 q 208 -168 208 -217 q 229 -85 208 -129 q 291 0 250 -41 l 344 0 z "},"Ě":{"ha":524,"x_min":94,"x_max":467,"o":"m 94 0 l 94 972 l 450 972 l 450 890 l 162 890 l 162 533 l 429 533 l 429 452 l 162 452 l 162 82 l 467 82 l 467 0 l 94 0 m 297 1052 l 252 1052 l 141 1278 l 193 1278 l 274 1118 l 357 1278 l 408 1278 l 297 1052 z "},"ě":{"ha":535,"x_min":47,"x_max":491,"o":"m 115 332 q 127 217 115 268 q 163 131 140 166 q 218 77 186 96 q 292 58 251 58 q 458 140 380 58 l 458 55 q 277 -16 384 -16 q 182 8 225 -16 q 110 79 140 33 q 64 193 80 125 q 47 348 47 261 q 65 492 47 426 q 114 607 83 559 q 189 683 146 656 q 283 711 233 711 q 373 687 334 711 q 438 621 412 664 q 477 515 464 577 q 491 375 491 452 l 491 332 l 115 332 m 424 408 q 386 576 422 516 q 282 635 349 635 q 221 620 249 635 q 171 575 193 604 q 136 503 150 545 q 117 408 122 460 l 424 408 m 301 816 l 256 816 l 145 1042 l 197 1042 l 278 882 l 361 1042 l 412 1042 l 301 816 z "},"Ĺ":{"ha":484,"x_min":94,"x_max":455,"o":"m 94 0 l 94 972 l 162 972 l 162 82 l 455 82 l 455 0 l 94 0 m 293 1052 l 238 1052 l 354 1274 l 422 1274 l 293 1052 z "},"ĺ":{"ha":233,"x_min":74,"x_max":258,"o":"m 84 0 l 84 1028 l 149 1028 l 149 0 l 84 0 m 129 1109 l 74 1109 l 190 1332 l 258 1332 l 129 1109 z "},"Ľ":{"ha":484,"x_min":94,"x_max":455,"o":"m 94 0 l 94 972 l 162 972 l 162 82 l 455 82 l 455 0 l 94 0 m 439 972 l 365 795 l 313 795 l 367 972 l 439 972 z "},"ľ":{"ha":294,"x_min":84,"x_max":325,"o":"m 84 0 l 84 1028 l 149 1028 l 149 0 l 84 0 m 325 1025 l 251 849 l 199 849 l 253 1025 l 325 1025 z "},"Ŀ":{"ha":484,"x_min":94,"x_max":455,"o":"m 94 0 l 94 972 l 162 972 l 162 82 l 455 82 l 455 0 l 94 0 m 353 437 q 336 442 345 437 q 321 455 328 447 q 312 475 315 464 q 308 499 308 486 q 321 541 308 524 q 353 558 334 558 q 386 542 373 558 q 399 499 399 525 q 386 455 399 473 q 353 437 373 437 z "},"ŀ":{"ha":300,"x_min":84,"x_max":301,"o":"m 84 0 l 84 1028 l 149 1028 l 149 0 l 84 0 m 255 437 q 238 442 246 437 q 223 455 229 447 q 213 475 216 464 q 210 499 210 486 q 223 541 210 524 q 255 558 236 558 q 288 542 275 558 q 301 499 301 525 q 288 455 301 473 q 255 437 275 437 z "},"Ń":{"ha":759,"x_min":94,"x_max":664,"o":"m 594 0 l 189 781 q 174 811 182 795 q 162 842 167 827 l 159 842 q 161 808 161 829 q 162 753 162 786 l 162 0 l 94 0 l 94 972 l 170 972 l 568 201 q 584 167 576 183 q 597 138 591 151 l 600 138 q 597 188 598 160 q 596 250 596 216 l 596 972 l 664 972 l 664 0 l 594 0 m 369 1052 l 314 1052 l 430 1274 l 498 1274 l 369 1052 z "},"ń":{"ha":573,"x_min":84,"x_max":500,"o":"m 435 0 l 435 400 q 307 635 435 635 q 244 617 273 635 q 194 568 215 600 q 161 492 173 536 q 149 397 149 448 l 149 0 l 84 0 l 84 694 l 149 694 l 149 574 l 151 574 q 326 711 209 711 q 456 637 411 711 q 500 423 500 563 l 500 0 l 435 0 m 283 816 l 228 816 l 344 1038 l 412 1038 l 283 816 z "},"Ň":{"ha":759,"x_min":94,"x_max":664,"o":"m 594 0 l 189 781 q 174 811 182 795 q 162 842 167 827 l 159 842 q 161 808 161 829 q 162 753 162 786 l 162 0 l 94 0 l 94 972 l 170 972 l 568 201 q 584 167 576 183 q 597 138 591 151 l 600 138 q 597 188 598 160 q 596 250 596 216 l 596 972 l 664 972 l 664 0 l 594 0 m 405 1052 l 359 1052 l 249 1278 l 300 1278 l 382 1118 l 465 1278 l 515 1278 l 405 1052 z "},"ň":{"ha":573,"x_min":84,"x_max":500,"o":"m 435 0 l 435 400 q 307 635 435 635 q 244 617 273 635 q 194 568 215 600 q 161 492 173 536 q 149 397 149 448 l 149 0 l 84 0 l 84 694 l 149 694 l 149 574 l 151 574 q 326 711 209 711 q 456 637 411 711 q 500 423 500 563 l 500 0 l 435 0 m 321 816 l 275 816 l 165 1042 l 216 1042 l 298 882 l 380 1042 l 431 1042 l 321 816 z "},"Ő":{"ha":789,"x_min":52,"x_max":737,"o":"m 391 -17 q 250 21 313 -17 q 142 126 186 60 q 75 282 98 193 q 52 475 52 372 q 75 684 52 589 q 144 846 98 779 q 255 951 189 913 q 404 989 320 989 q 543 952 481 989 q 648 849 605 915 q 714 694 691 784 q 737 500 737 605 q 715 295 737 389 q 648 131 692 200 q 540 22 604 62 q 391 -17 475 -17 m 397 907 q 280 873 331 907 q 194 782 229 840 q 141 648 159 725 q 122 484 123 571 q 138 326 121 401 q 188 192 155 250 q 272 100 221 134 q 391 65 323 65 q 511 97 459 65 q 597 184 562 128 q 649 317 631 240 q 667 486 667 395 q 651 648 667 572 q 603 782 635 725 q 519 873 570 840 q 397 907 469 907 m 444 1052 l 400 1052 l 507 1267 l 569 1267 l 444 1052 m 326 1052 l 283 1052 l 389 1267 l 450 1267 l 326 1052 z "},"ő":{"ha":597,"x_min":47,"x_max":550,"o":"m 297 -16 q 193 9 239 -16 q 115 82 147 35 q 65 195 82 130 q 47 341 47 261 q 66 496 47 428 q 118 613 84 565 q 199 686 151 661 q 306 711 247 711 q 408 686 363 711 q 485 614 453 661 q 533 500 516 568 q 550 348 550 433 q 532 200 550 267 q 482 85 515 133 q 403 10 450 37 q 297 -16 356 -16 m 302 635 q 224 616 259 635 q 165 558 190 596 q 128 466 141 521 q 115 342 115 412 q 128 225 115 277 q 165 136 141 173 q 224 78 189 98 q 301 58 258 58 q 378 78 345 58 q 435 134 412 97 q 471 224 458 171 q 483 347 483 278 q 436 561 483 487 q 302 635 389 635 m 355 816 l 311 816 l 418 1031 l 480 1031 l 355 816 m 237 816 l 194 816 l 300 1031 l 361 1031 l 237 816 z "},"Ŕ":{"ha":601,"x_min":94,"x_max":571,"o":"m 492 0 l 382 279 q 350 348 366 320 q 319 392 335 376 q 284 416 302 409 q 243 423 265 423 l 162 423 l 162 0 l 94 0 l 94 972 l 304 972 q 384 956 346 972 q 453 908 422 940 q 501 828 483 876 q 519 716 519 780 q 507 621 519 665 q 474 544 495 578 q 421 487 452 511 q 352 452 391 464 l 352 450 q 379 429 367 441 q 402 397 391 416 q 425 355 414 379 q 448 301 436 332 l 571 0 l 492 0 m 162 890 l 162 505 l 283 505 q 351 519 320 505 q 402 560 381 534 q 436 624 424 587 q 448 708 448 661 q 407 841 448 793 q 289 890 366 890 l 162 890 m 296 1052 l 241 1052 l 357 1274 l 426 1274 l 296 1052 z "},"ŕ":{"ha":353,"x_min":84,"x_max":342,"o":"m 342 606 q 283 628 319 628 q 237 615 257 628 q 203 579 218 602 q 177 527 188 557 q 160 466 167 498 q 151 401 154 434 q 149 340 149 369 l 149 0 l 84 0 l 84 694 l 149 694 l 149 546 l 151 546 q 174 614 159 584 q 206 665 188 644 q 246 696 224 686 q 292 707 267 707 q 320 705 307 707 q 342 696 332 702 l 342 606 m 208 816 l 153 816 l 269 1038 l 337 1038 l 208 816 z "},"Ř":{"ha":601,"x_min":94,"x_max":571,"o":"m 492 0 l 382 279 q 350 348 366 320 q 319 392 335 376 q 284 416 302 409 q 243 423 265 423 l 162 423 l 162 0 l 94 0 l 94 972 l 304 972 q 384 956 346 972 q 453 908 422 940 q 501 828 483 876 q 519 716 519 780 q 507 621 519 665 q 474 544 495 578 q 421 487 452 511 q 352 452 391 464 l 352 450 q 379 429 367 441 q 402 397 391 416 q 425 355 414 379 q 448 301 436 332 l 571 0 l 492 0 m 162 890 l 162 505 l 283 505 q 351 519 320 505 q 402 560 381 534 q 436 624 424 587 q 448 708 448 661 q 407 841 448 793 q 289 890 366 890 l 162 890 m 318 1052 l 273 1052 l 162 1278 l 214 1278 l 295 1118 l 378 1278 l 429 1278 l 318 1052 z "},"ř":{"ha":353,"x_min":75,"x_max":342,"o":"m 342 606 q 283 628 319 628 q 237 615 257 628 q 203 579 218 602 q 177 527 188 557 q 160 466 167 498 q 151 401 154 434 q 149 340 149 369 l 149 0 l 84 0 l 84 694 l 149 694 l 149 546 l 151 546 q 174 614 159 584 q 206 665 188 644 q 246 696 224 686 q 292 707 267 707 q 320 705 307 707 q 342 696 332 702 l 342 606 m 231 816 l 186 816 l 75 1042 l 127 1042 l 208 882 l 291 1042 l 342 1042 l 231 816 z "},"Ś":{"ha":536,"x_min":66,"x_max":479,"o":"m 66 142 q 106 110 84 124 q 152 85 129 95 q 198 70 175 75 q 243 65 222 65 q 367 108 326 65 q 408 231 408 151 q 399 298 408 269 q 369 352 389 327 q 317 402 349 377 q 244 458 286 427 q 164 522 197 492 q 110 584 131 552 q 78 652 88 615 q 68 735 68 688 q 87 841 68 794 q 138 921 106 888 q 213 971 170 954 q 305 989 256 989 q 449 957 391 989 l 449 857 q 298 907 385 907 q 236 896 265 907 q 186 865 208 886 q 152 815 164 845 q 139 745 139 785 q 148 679 139 707 q 175 627 156 652 q 223 579 193 603 q 298 524 254 555 q 377 460 343 491 q 434 396 412 429 q 468 325 456 362 q 479 241 479 287 q 461 129 479 177 q 411 48 444 80 q 335 0 379 16 q 238 -16 291 -16 q 197 -13 220 -16 q 149 -2 173 -9 q 102 15 124 5 q 66 37 80 25 l 66 142 m 269 1052 l 214 1052 l 330 1274 l 398 1274 l 269 1052 z "},"ś":{"ha":423,"x_min":54,"x_max":377,"o":"m 54 125 q 86 97 69 109 q 122 76 104 85 q 159 63 140 67 q 194 58 178 58 q 310 174 310 58 q 302 220 310 201 q 278 255 294 239 q 242 285 263 271 q 194 313 220 298 q 132 353 157 333 q 89 398 106 374 q 64 451 72 422 q 56 516 56 479 q 71 598 56 562 q 112 659 86 634 q 170 697 137 684 q 240 711 203 711 q 358 677 308 711 l 358 585 q 232 635 300 635 q 188 627 208 635 q 153 604 168 619 q 131 569 139 589 q 123 523 123 548 q 129 478 123 497 q 148 443 135 458 q 182 413 161 427 q 232 382 202 399 q 297 342 269 362 q 342 299 324 322 q 369 247 360 275 q 377 180 377 218 q 363 96 377 133 q 323 35 349 60 q 262 -3 297 9 q 187 -16 228 -16 q 54 28 109 -16 l 54 125 m 212 816 l 157 816 l 273 1038 l 341 1038 l 212 816 z "},"Ţ":{"ha":539,"x_min":25,"x_max":513,"o":"m 303 890 l 303 0 l 235 0 l 235 890 l 25 890 l 25 972 l 513 972 l 513 890 l 303 890 m 392 -176 q 257 -294 392 -294 q 220 -292 239 -294 l 220 -236 q 260 -240 245 -240 q 336 -178 336 -240 q 267 -123 336 -123 q 255 -123 261 -123 q 241 -125 249 -124 l 241 0 l 286 0 l 286 -75 q 365 -101 337 -75 q 392 -176 392 -127 z "},"ţ":{"ha":331,"x_min":17,"x_max":338,"o":"m 308 8 q 235 -14 274 -14 q 109 180 109 -14 l 109 618 l 17 618 l 17 694 l 109 694 l 109 869 l 174 898 l 174 694 l 308 694 l 308 618 l 174 618 l 174 193 q 191 92 174 123 q 249 60 208 60 q 308 85 279 60 l 308 8 m 338 -176 q 203 -294 338 -294 q 166 -292 184 -294 l 166 -236 q 206 -240 191 -240 q 282 -178 282 -240 q 213 -123 282 -123 q 201 -123 207 -123 q 186 -125 195 -124 l 186 0 l 232 0 l 232 -75 q 310 -101 283 -75 q 338 -176 338 -127 z "},"Ť":{"ha":539,"x_min":25,"x_max":513,"o":"m 303 890 l 303 0 l 235 0 l 235 890 l 25 890 l 25 972 l 513 972 l 513 890 l 303 890 m 293 1052 l 248 1052 l 137 1278 l 189 1278 l 270 1118 l 353 1278 l 404 1278 l 293 1052 z "},"ť":{"ha":414,"x_min":17,"x_max":445,"o":"m 308 8 q 235 -14 274 -14 q 109 180 109 -14 l 109 618 l 17 618 l 17 694 l 109 694 l 109 869 l 174 898 l 174 694 l 308 694 l 308 618 l 174 618 l 174 193 q 191 92 174 123 q 249 60 208 60 q 308 85 279 60 l 308 8 m 445 945 l 371 769 l 319 769 l 373 945 l 445 945 z "},"Ů":{"ha":695,"x_min":85,"x_max":610,"o":"m 610 391 q 341 -17 610 -17 q 85 376 85 -17 l 85 972 l 153 972 l 153 384 q 201 144 153 224 q 351 65 250 65 q 542 374 542 65 l 542 972 l 610 972 l 610 391 m 344 1038 q 305 1046 323 1038 q 273 1072 287 1055 q 250 1112 258 1088 q 242 1164 242 1135 q 250 1217 242 1193 q 273 1258 258 1240 q 306 1284 287 1275 q 346 1294 324 1294 q 385 1285 366 1294 q 417 1260 403 1276 q 440 1219 431 1243 q 449 1166 449 1196 q 440 1115 449 1139 q 417 1075 432 1092 q 384 1047 403 1057 q 344 1038 366 1038 m 344 1244 q 300 1222 317 1244 q 283 1166 283 1200 q 300 1108 283 1128 q 344 1088 316 1088 q 369 1094 358 1088 q 389 1110 380 1099 q 402 1135 397 1120 q 407 1166 407 1149 q 389 1223 407 1202 q 344 1244 371 1244 z "},"ů":{"ha":574,"x_min":73,"x_max":490,"o":"m 425 0 l 425 118 l 422 118 q 258 -16 370 -16 q 73 286 73 -16 l 73 694 l 138 694 l 138 302 q 171 118 138 178 q 273 58 204 58 q 334 76 307 58 q 382 124 362 93 q 413 200 402 156 q 425 298 425 244 l 425 694 l 490 694 l 490 0 l 425 0 m 279 802 q 241 810 259 802 q 208 836 222 819 q 186 876 194 852 q 178 928 178 899 q 186 981 178 957 q 208 1022 194 1004 q 241 1048 222 1039 q 281 1058 260 1058 q 320 1049 302 1058 q 353 1024 338 1040 q 376 983 367 1007 q 385 930 385 960 q 376 879 385 903 q 353 839 368 856 q 320 811 338 821 q 279 802 301 802 m 279 1008 q 236 986 253 1008 q 219 930 219 964 q 235 872 219 892 q 279 852 252 852 q 305 858 294 852 q 325 874 316 863 q 338 899 333 884 q 342 930 342 913 q 325 987 342 966 q 279 1008 307 1008 z "},"Ű":{"ha":695,"x_min":85,"x_max":610,"o":"m 610 391 q 341 -17 610 -17 q 85 376 85 -17 l 85 972 l 153 972 l 153 384 q 201 144 153 224 q 351 65 250 65 q 542 374 542 65 l 542 972 l 610 972 l 610 391 m 397 1052 l 353 1052 l 460 1267 l 522 1267 l 397 1052 m 279 1052 l 236 1052 l 342 1267 l 403 1267 l 279 1052 z "},"ű":{"ha":574,"x_min":73,"x_max":490,"o":"m 425 0 l 425 118 l 422 118 q 258 -16 370 -16 q 73 286 73 -16 l 73 694 l 138 694 l 138 302 q 171 118 138 178 q 273 58 204 58 q 334 76 307 58 q 382 124 362 93 q 413 200 402 156 q 425 298 425 244 l 425 694 l 490 694 l 490 0 l 425 0 m 332 816 l 288 816 l 395 1031 l 457 1031 l 332 816 m 214 816 l 171 816 l 277 1031 l 338 1031 l 214 816 z "},"Ź":{"ha":593,"x_min":25,"x_max":562,"o":"m 127 82 l 553 82 l 553 0 l 25 0 l 25 26 l 458 890 l 60 890 l 60 972 l 562 972 l 562 949 l 127 82 m 305 1052 l 250 1052 l 366 1274 l 435 1274 l 305 1052 z "},"ź":{"ha":477,"x_min":23,"x_max":450,"o":"m 122 76 l 443 76 l 443 0 l 23 0 l 23 29 l 350 618 l 50 618 l 50 694 l 450 694 l 450 670 l 122 76 m 239 816 l 184 816 l 300 1038 l 368 1038 l 239 816 z "},"Ż":{"ha":593,"x_min":25,"x_max":562,"o":"m 127 82 l 553 82 l 553 0 l 25 0 l 25 26 l 458 890 l 60 890 l 60 972 l 562 972 l 562 949 l 127 82 m 307 1052 q 290 1056 298 1052 q 275 1069 281 1061 q 266 1088 269 1077 q 262 1112 262 1099 q 266 1135 262 1124 q 275 1153 269 1145 q 289 1165 281 1160 q 307 1169 297 1169 q 338 1153 325 1169 q 351 1112 351 1137 q 338 1069 351 1086 q 307 1052 326 1052 z "},"ż":{"ha":477,"x_min":23,"x_max":450,"o":"m 122 76 l 443 76 l 443 0 l 23 0 l 23 29 l 350 618 l 50 618 l 50 694 l 450 694 l 450 670 l 122 76 m 250 816 q 233 820 241 816 q 218 833 224 825 q 209 852 212 841 q 205 876 205 863 q 209 899 205 888 q 218 917 212 909 q 232 929 224 924 q 250 933 240 933 q 281 917 268 933 q 294 876 294 901 q 281 833 294 850 q 250 816 269 816 z "},"Γ":{"ha":484,"x_min":94,"x_max":455,"o":"m 163 888 l 163 0 l 94 0 l 94 972 l 455 972 l 455 888 l 163 888 z "},"Θ":{"ha":789,"x_min":52,"x_max":737,"o":"m 262 444 l 262 528 l 526 528 l 526 444 l 262 444 m 391 -17 q 250 21 313 -17 q 142 126 186 60 q 75 282 98 193 q 52 475 52 372 q 75 684 52 589 q 144 846 98 779 q 255 951 189 913 q 404 989 320 989 q 543 952 481 989 q 648 849 605 915 q 714 694 691 784 q 737 500 737 605 q 715 295 737 389 q 648 131 692 200 q 540 22 604 62 q 391 -17 475 -17 m 397 907 q 280 873 331 907 q 194 782 229 840 q 140 648 159 725 q 122 484 122 571 q 138 326 122 401 q 188 192 155 250 q 272 100 221 134 q 391 65 322 65 q 511 97 459 65 q 597 184 562 128 q 649 317 631 240 q 667 486 667 395 q 651 648 667 572 q 603 782 635 725 q 519 873 570 840 q 397 907 469 907 z "},"Φ":{"ha":792,"x_min":52,"x_max":740,"o":"m 740 510 q 718 345 740 416 q 657 225 695 273 q 568 154 618 178 q 460 130 517 130 l 429 130 l 429 -10 l 363 -10 l 363 130 l 333 130 q 217 157 269 130 q 129 234 165 184 q 72 353 92 283 q 52 509 52 423 q 73 665 52 597 q 132 781 94 734 q 222 853 170 828 q 334 878 273 878 l 363 878 l 363 982 l 429 982 l 429 878 l 458 878 q 574 851 522 878 q 664 775 627 824 q 720 659 701 727 q 740 510 740 591 m 672 509 q 657 629 672 575 q 615 721 643 683 q 548 779 587 758 q 458 799 508 799 l 429 799 l 429 211 l 460 211 q 549 231 509 211 q 616 289 589 251 q 658 383 644 328 q 672 509 672 438 m 363 799 l 334 799 q 249 781 288 799 q 181 726 210 762 q 136 634 152 689 q 119 507 119 580 q 135 376 119 432 q 180 284 151 321 q 247 229 208 247 q 333 211 286 211 l 363 211 l 363 799 z "},"α":{"ha":631,"x_min":45,"x_max":613,"o":"m 446 347 q 420 464 435 410 q 387 555 406 517 q 342 615 368 593 q 282 636 317 636 q 211 613 243 636 q 158 549 180 590 q 124 452 136 508 q 113 329 113 395 q 123 220 113 269 q 153 135 134 170 q 199 80 172 100 q 260 60 227 60 q 353 115 313 60 q 424 267 393 170 l 446 347 m 567 -7 q 534 7 548 -7 q 507 48 519 20 q 485 119 495 76 q 467 219 475 161 l 465 219 q 421 114 444 158 q 372 40 398 69 q 315 -2 345 12 q 249 -16 284 -16 q 166 9 203 -16 q 101 79 128 34 q 60 186 75 123 q 45 323 45 248 q 62 479 45 408 q 108 602 78 551 q 182 682 138 653 q 281 711 226 711 q 352 692 321 711 q 407 640 383 673 q 447 565 430 608 q 476 473 464 522 l 477 473 l 534 694 l 604 694 l 503 348 q 528 206 517 260 q 548 122 538 152 q 567 83 557 93 q 589 74 576 74 q 601 75 595 74 q 613 79 607 77 l 613 2 q 592 -4 601 -2 q 567 -7 583 -7 z "},"δ":{"ha":605,"x_min":46,"x_max":559,"o":"m 559 319 q 541 181 559 243 q 488 75 522 119 q 406 7 454 31 q 298 -17 357 -17 q 196 7 243 -17 q 117 74 150 31 q 65 175 83 117 q 46 303 46 234 q 63 420 46 367 q 110 517 80 473 q 180 594 140 560 q 269 652 221 627 q 220 696 243 673 q 180 746 197 720 q 152 804 162 773 q 141 870 141 834 q 155 944 141 912 q 195 998 170 977 q 257 1031 220 1020 q 336 1042 293 1042 q 423 1030 381 1042 q 504 996 465 1017 l 504 898 q 422 947 465 929 q 336 964 379 964 q 293 960 316 964 q 252 944 271 956 q 221 913 233 932 q 209 865 209 895 q 215 827 209 845 q 234 790 221 808 q 267 751 247 771 q 315 709 288 731 q 417 620 372 663 q 494 532 463 577 q 543 435 526 486 q 559 319 559 383 m 493 309 q 481 400 493 359 q 446 477 469 441 q 392 545 424 513 q 323 608 361 577 q 246 563 283 589 q 180 500 209 536 q 133 417 151 465 q 115 307 115 369 q 130 202 115 248 q 170 124 144 156 q 229 76 195 92 q 304 59 263 59 q 379 76 345 59 q 439 126 414 94 q 479 204 465 158 q 493 309 493 251 z "},"ε":{"ha":456,"x_min":41,"x_max":420,"o":"m 420 17 q 386 3 406 9 q 346 -7 367 -3 q 301 -15 324 -12 q 256 -17 278 -17 q 163 -2 203 -17 q 96 40 123 14 q 55 104 68 67 q 41 186 41 142 q 52 251 41 222 q 80 303 62 281 q 122 340 98 326 q 174 361 146 355 l 174 364 q 132 383 152 370 q 96 417 112 397 q 71 464 81 437 q 62 520 62 490 q 77 606 62 570 q 120 666 93 642 q 183 700 147 689 q 259 711 218 711 q 295 709 277 711 q 332 702 314 706 q 367 691 350 697 q 397 679 383 686 l 397 591 q 328 623 366 611 q 256 635 291 635 q 159 606 191 635 q 128 520 128 577 q 143 462 128 486 q 181 424 157 438 q 234 402 205 409 q 292 396 263 396 q 324 396 307 396 q 352 398 341 397 l 352 319 q 323 320 342 320 q 281 321 304 321 q 152 288 195 321 q 109 187 109 256 q 118 136 109 159 q 146 95 127 113 q 195 68 165 78 q 263 58 224 58 q 346 72 304 58 q 420 106 387 85 l 420 17 z "},"σ":{"ha":591,"x_min":47,"x_max":581,"o":"m 450 623 q 480 563 467 594 q 503 495 493 531 q 518 419 513 460 q 524 331 524 378 q 508 194 524 258 q 462 84 492 131 q 388 11 432 37 q 289 -16 345 -16 q 189 9 233 -16 q 112 82 144 35 q 64 195 81 130 q 47 340 47 261 q 63 492 47 426 q 111 603 79 557 q 193 671 143 648 q 309 694 242 694 l 581 694 l 581 623 l 450 623 m 456 339 q 451 425 456 385 q 436 499 446 465 q 415 565 427 534 q 389 623 403 595 l 316 623 q 163 550 212 623 q 115 336 115 477 q 128 222 115 273 q 164 135 141 171 q 219 79 186 98 q 289 59 251 59 q 358 79 327 59 q 411 137 389 100 q 445 226 433 174 q 456 339 456 277 z "},"τ":{"ha":507,"x_min":19,"x_max":488,"o":"m 281 623 l 281 178 q 299 95 281 120 q 347 69 317 69 q 371 72 357 69 q 397 80 385 75 l 397 4 q 367 -5 381 -2 q 338 -8 353 -8 q 245 42 275 -8 q 216 189 216 92 l 216 623 l 137 623 q 76 608 106 623 q 19 571 45 594 l 19 651 q 69 683 39 671 q 138 694 98 694 l 488 694 l 488 623 l 281 623 z "},"φ":{"ha":724,"x_min":47,"x_max":677,"o":"m 677 342 q 659 200 677 265 q 606 86 641 134 q 521 11 571 38 q 406 -16 471 -16 l 391 -16 l 391 -326 l 330 -326 l 330 -16 l 317 -16 q 207 7 257 -16 q 122 77 157 31 q 66 191 86 123 q 47 346 47 258 q 54 450 47 400 q 76 544 62 500 q 110 625 90 587 q 152 694 129 663 l 229 694 q 182 620 203 659 q 146 538 161 581 q 122 446 131 494 q 114 343 114 397 q 130 220 114 273 q 172 131 145 167 q 233 77 198 95 q 306 59 268 59 l 330 59 l 330 532 q 364 665 330 619 q 465 711 397 711 q 552 684 513 711 q 618 608 591 657 q 662 492 646 559 q 677 342 677 424 m 610 347 q 598 465 610 412 q 566 556 586 518 q 520 614 546 593 q 467 635 495 635 q 410 608 428 635 q 391 534 391 581 l 391 59 l 417 59 q 495 80 460 59 q 556 139 530 101 q 595 230 581 176 q 610 347 610 283 z "},"‼":{"ha":469,"x_min":99,"x_max":370,"o":"m 175 273 l 119 273 l 111 972 l 182 972 l 175 273 m 148 -12 q 113 6 127 -12 q 99 52 99 25 q 113 99 99 80 q 148 117 127 117 q 166 113 157 117 q 182 99 175 108 q 193 78 189 90 q 197 52 197 66 q 193 27 197 39 q 182 6 189 15 q 166 -7 175 -3 q 148 -12 157 -12 m 348 273 l 292 273 l 284 972 l 355 972 l 348 273 m 321 -12 q 286 6 300 -12 q 272 52 272 25 q 286 99 272 80 q 321 117 300 117 q 339 113 330 117 q 355 99 348 108 q 366 78 361 90 q 370 52 370 66 q 366 27 370 39 q 355 6 361 15 q 339 -7 348 -3 q 321 -12 330 -12 z "},"ⁿ":{"ha":408,"x_min":60,"x_max":355,"o":"m 298 486 l 298 746 q 295 823 298 790 q 282 878 291 856 q 257 910 273 899 q 218 922 241 922 q 178 909 197 922 q 145 876 159 897 q 123 826 132 854 q 115 764 115 797 l 115 486 l 60 486 l 60 973 l 114 973 l 114 890 l 115 890 q 228 986 151 986 q 322 935 290 986 q 355 790 355 884 l 355 486 l 298 486 z "},"₧":{"ha":1142,"x_min":94,"x_max":1101,"o":"m 162 378 l 162 0 l 94 0 l 94 972 l 249 972 q 424 902 365 972 q 482 691 482 831 q 465 564 482 622 q 415 465 448 507 q 336 401 383 424 q 229 378 289 378 l 162 378 m 162 890 l 162 461 l 225 461 q 365 518 318 461 q 412 684 412 575 q 237 890 412 890 l 162 890 m 773 8 q 700 -14 739 -14 q 608 33 637 -14 q 578 180 578 79 l 578 503 l 500 503 l 500 578 l 578 578 l 578 753 l 644 782 l 644 578 l 773 578 l 773 503 l 644 503 l 644 193 q 661 94 644 127 q 715 60 677 60 q 773 85 744 60 l 773 8 m 813 125 q 842 97 826 110 q 873 76 857 85 q 906 63 890 68 q 939 58 923 58 q 1011 82 985 58 q 1036 151 1036 105 q 1032 184 1036 170 q 1017 213 1028 199 q 984 240 1005 227 q 930 272 963 254 q 882 300 903 286 q 846 332 861 314 q 823 374 831 350 q 814 431 814 397 q 827 501 814 470 q 860 554 839 532 q 910 588 882 576 q 971 600 939 600 q 1030 592 1002 600 q 1080 568 1059 584 l 1080 480 q 1027 513 1056 502 q 971 525 998 525 q 935 519 951 525 q 906 502 918 513 q 887 474 894 491 q 880 435 880 457 q 899 382 880 403 q 956 343 918 361 q 1015 311 988 327 q 1061 273 1042 294 q 1091 224 1080 252 q 1101 157 1101 197 q 1089 82 1101 115 q 1056 28 1078 50 q 1005 -5 1035 6 q 941 -16 975 -16 q 869 -5 902 -16 q 813 28 837 5 l 813 125 z "},"Ĳ":{"ha":617,"x_min":94,"x_max":528,"o":"m 162 0 l 94 0 l 94 972 l 162 972 l 162 0 m 528 342 q 478 72 528 160 q 335 -16 427 -16 q 302 -13 317 -16 q 273 -3 286 -10 l 273 85 q 336 65 301 65 q 431 133 401 65 q 460 342 460 201 l 460 972 l 528 972 l 528 342 z "},"ĳ":{"ha":471,"x_min":70,"x_max":402,"o":"m 116 870 q 83 888 97 870 q 70 932 70 905 q 83 976 70 959 q 116 994 97 994 q 134 989 125 994 q 149 977 143 985 q 159 957 155 968 q 163 932 163 946 q 160 908 163 920 q 150 888 156 897 q 135 875 143 880 q 116 870 126 870 m 84 0 l 84 694 l 149 694 l 149 0 l 84 0 m 388 24 q 342 -237 388 -148 q 196 -327 296 -327 q 124 -304 160 -327 l 124 -220 q 199 -251 164 -251 q 323 9 323 -251 l 323 694 l 388 694 l 388 24 m 355 870 q 322 888 336 870 q 309 932 309 905 q 322 976 309 959 q 355 994 336 994 q 373 989 364 994 q 388 977 382 985 q 398 957 394 968 q 402 932 402 946 q 398 908 402 920 q 388 888 395 897 q 373 875 382 880 q 355 870 365 870 z "},"ŉ":{"ha":614,"x_min":-16,"x_max":542,"o":"m 477 0 l 477 400 q 349 635 477 635 q 286 617 315 635 q 235 568 256 600 q 202 492 214 536 q 191 397 191 448 l 191 0 l 125 0 l 125 694 l 191 694 l 191 574 l 193 574 q 367 711 250 711 q 497 637 452 711 q 542 423 542 563 l 542 0 l 477 0 m 33 677 l -16 677 l 44 981 l 108 981 l 33 677 z "},"′":{"ha":246,"x_min":74,"x_max":176,"o":"m 176 972 l 125 666 l 74 666 l 112 972 l 176 972 z "},"″":{"ha":402,"x_min":76,"x_max":329,"o":"m 329 972 l 277 666 l 227 666 l 265 972 l 329 972 m 178 972 l 127 666 l 76 666 l 115 972 l 178 972 z "},"ℓ":{"ha":336,"x_min":4,"x_max":328,"o":"m 4 296 l 98 452 l 98 754 q 104 865 98 817 q 124 946 110 913 q 161 995 138 978 q 218 1011 184 1011 q 263 1000 243 1011 q 298 968 283 989 q 320 920 312 948 q 328 858 328 892 q 318 780 328 822 q 287 688 308 738 q 236 579 267 638 q 163 450 205 520 l 163 174 q 174 87 163 113 q 212 60 185 60 q 255 79 231 60 q 313 132 280 98 l 313 44 q 258 -1 286 14 q 199 -16 231 -16 q 123 27 148 -16 q 98 163 98 70 l 98 338 l 44 252 l 4 296 m 163 571 q 214 670 194 628 q 247 744 235 711 q 264 804 259 777 q 269 857 269 831 q 255 922 269 902 q 218 943 241 943 q 192 933 203 943 q 175 903 182 924 q 166 846 169 881 q 163 758 163 810 l 163 571 z "},"●":{"ha":629,"x_min":90,"x_max":538,"o":"m 314 690 q 407 664 366 690 q 478 595 448 637 q 523 499 507 553 q 538 392 538 446 q 521 276 538 330 q 473 181 503 222 q 402 117 443 140 q 315 93 361 93 q 228 116 269 93 q 156 180 186 140 q 108 276 125 221 q 90 392 90 330 q 110 515 90 460 q 160 609 129 570 q 232 669 192 648 q 314 690 273 690 z "},"Ā":{"ha":663,"x_min":20,"x_max":642,"o":"m 567 0 l 487 288 l 174 288 l 96 0 l 20 0 l 298 972 l 366 972 l 642 0 l 567 0 m 345 802 q 337 832 341 815 q 331 871 334 849 l 329 871 q 322 832 326 849 q 315 802 318 815 l 197 370 l 464 370 l 345 802 m 201 1052 l 201 1117 l 459 1117 l 459 1052 l 201 1052 z "},"ā":{"ha":522,"x_min":50,"x_max":449,"o":"m 384 0 l 384 123 l 382 123 q 313 20 357 57 q 213 -16 269 -16 q 145 -2 176 -16 q 94 38 115 12 q 61 101 73 64 q 50 182 50 138 q 93 332 50 276 q 226 405 137 388 l 384 435 q 267 635 384 635 q 98 547 176 635 l 98 642 q 135 670 115 657 q 179 691 156 682 q 226 706 202 701 q 273 711 250 711 q 405 646 360 711 q 449 452 449 581 l 449 0 l 384 0 m 250 337 q 190 320 214 330 q 149 293 165 310 q 124 250 132 275 q 117 187 117 224 q 124 136 117 159 q 145 95 132 112 q 180 68 159 77 q 225 58 200 58 q 289 76 260 58 q 339 125 318 94 q 372 199 360 156 q 384 294 384 243 l 384 362 l 250 337 m 142 816 l 142 881 l 400 881 l 400 816 l 142 816 z "},"Ĉ":{"ha":646,"x_min":52,"x_max":585,"o":"m 585 36 q 392 -17 500 -17 q 252 19 315 -17 q 144 120 189 56 q 76 273 100 184 q 52 467 52 362 q 77 673 52 578 q 150 839 102 768 q 266 949 198 909 q 418 989 334 989 q 585 951 511 989 l 585 854 q 418 907 507 907 q 292 874 347 907 q 199 784 237 842 q 142 647 161 726 q 122 474 122 568 q 140 316 122 390 q 192 186 157 241 q 279 98 227 130 q 399 65 331 65 q 585 124 505 65 l 585 36 m 469 1052 l 387 1211 l 304 1052 l 254 1052 l 366 1278 l 411 1278 l 522 1052 l 469 1052 z "},"ĉ":{"ha":471,"x_min":47,"x_max":432,"o":"m 430 31 q 290 -17 372 -16 q 189 9 234 -18 q 113 82 144 35 q 64 194 81 130 q 47 333 47 258 q 65 480 47 411 q 117 600 83 549 q 201 681 151 651 q 314 711 250 711 q 432 677 378 711 l 432 585 q 309 635 375 635 q 226 612 262 635 q 165 548 190 589 q 128 454 141 508 q 115 340 115 400 q 126 233 115 284 q 159 143 137 182 q 216 81 182 104 q 298 58 251 58 q 430 117 371 58 l 430 31 m 362 816 l 280 975 l 198 816 l 148 816 l 259 1042 l 304 1042 l 415 816 l 362 816 z "},"Ċ":{"ha":646,"x_min":52,"x_max":585,"o":"m 585 36 q 392 -17 500 -17 q 252 19 315 -17 q 144 120 189 56 q 76 273 100 184 q 52 467 52 362 q 77 673 52 578 q 150 839 102 768 q 266 949 198 909 q 418 989 334 989 q 585 951 511 989 l 585 854 q 418 907 507 907 q 292 874 347 907 q 199 784 237 842 q 142 647 161 726 q 122 474 122 568 q 140 316 122 390 q 192 186 157 241 q 279 98 227 130 q 399 65 331 65 q 585 124 505 65 l 585 36 m 390 1052 q 373 1056 381 1052 q 359 1069 365 1061 q 349 1088 353 1077 q 345 1112 345 1099 q 349 1135 345 1124 q 359 1153 353 1145 q 373 1165 365 1160 q 390 1169 380 1169 q 421 1153 408 1169 q 435 1112 435 1137 q 422 1069 435 1086 q 390 1052 409 1052 z "},"ċ":{"ha":471,"x_min":47,"x_max":432,"o":"m 430 31 q 290 -17 372 -16 q 189 9 234 -18 q 113 82 144 35 q 64 194 81 130 q 47 333 47 258 q 65 480 47 411 q 117 600 83 549 q 201 681 151 651 q 314 711 250 711 q 432 677 378 711 l 432 585 q 309 635 375 635 q 226 612 262 635 q 165 548 190 589 q 128 454 141 508 q 115 340 115 400 q 126 233 115 284 q 159 143 137 182 q 216 81 182 104 q 298 58 251 58 q 430 117 371 58 l 430 31 m 294 816 q 277 820 285 816 q 262 833 269 825 q 253 852 256 841 q 249 876 249 863 q 253 899 249 888 q 262 917 256 909 q 276 929 269 924 q 294 933 284 933 q 325 917 312 933 q 338 876 338 901 q 326 833 338 850 q 294 816 313 816 z "},"Ē":{"ha":524,"x_min":94,"x_max":467,"o":"m 94 0 l 94 972 l 450 972 l 450 890 l 162 890 l 162 533 l 429 533 l 429 452 l 162 452 l 162 82 l 467 82 l 467 0 l 94 0 m 149 1052 l 149 1117 l 408 1117 l 408 1052 l 149 1052 z "},"ē":{"ha":535,"x_min":47,"x_max":491,"o":"m 115 332 q 127 217 115 268 q 163 131 140 166 q 218 77 186 96 q 292 58 251 58 q 458 140 380 58 l 458 55 q 277 -16 384 -16 q 182 8 225 -16 q 110 79 140 33 q 64 193 80 125 q 47 348 47 261 q 65 492 47 426 q 114 607 83 559 q 189 683 146 656 q 283 711 233 711 q 373 687 334 711 q 438 621 412 664 q 477 515 464 577 q 491 375 491 452 l 491 332 l 115 332 m 424 408 q 386 576 422 516 q 282 635 349 635 q 221 620 249 635 q 171 575 193 604 q 136 503 150 545 q 117 408 122 460 l 424 408 m 151 816 l 151 881 l 410 881 l 410 816 l 151 816 z "},"Ĕ":{"ha":524,"x_min":94,"x_max":467,"o":"m 94 0 l 94 972 l 450 972 l 450 890 l 162 890 l 162 533 l 429 533 l 429 452 l 162 452 l 162 82 l 467 82 l 467 0 l 94 0 m 415 1217 q 400 1149 412 1179 q 370 1097 388 1119 q 327 1064 351 1076 q 275 1052 303 1052 q 222 1063 246 1052 q 180 1096 198 1075 q 152 1148 162 1118 q 140 1217 141 1179 l 186 1217 q 213 1138 189 1165 q 276 1110 236 1110 q 309 1118 294 1110 q 336 1140 324 1126 q 356 1173 349 1154 q 367 1217 364 1193 l 415 1217 z "},"ĕ":{"ha":535,"x_min":47,"x_max":491,"o":"m 115 332 q 127 217 115 268 q 163 131 140 166 q 218 77 186 96 q 292 58 251 58 q 458 140 380 58 l 458 55 q 277 -16 384 -16 q 182 8 225 -16 q 110 79 140 33 q 64 193 80 125 q 47 348 47 261 q 65 492 47 426 q 114 607 83 559 q 189 683 146 656 q 283 711 233 711 q 373 687 334 711 q 438 621 412 664 q 477 515 464 577 q 491 375 491 452 l 491 332 l 115 332 m 424 408 q 386 576 422 516 q 282 635 349 635 q 221 620 249 635 q 171 575 193 604 q 136 503 150 545 q 117 408 122 460 l 424 408 m 417 981 q 402 913 414 943 q 372 861 390 883 q 329 828 353 840 q 277 816 305 816 q 224 827 248 816 q 182 860 200 839 q 154 912 164 882 q 142 981 143 943 l 189 981 q 215 902 191 929 q 278 874 238 874 q 311 882 296 874 q 338 904 326 890 q 358 937 351 918 q 369 981 366 957 l 417 981 z "},"Ė":{"ha":524,"x_min":94,"x_max":467,"o":"m 94 0 l 94 972 l 450 972 l 450 890 l 162 890 l 162 533 l 429 533 l 429 452 l 162 452 l 162 82 l 467 82 l 467 0 l 94 0 m 272 1052 q 255 1056 263 1052 q 241 1069 247 1061 q 231 1088 235 1077 q 227 1112 227 1099 q 231 1135 227 1124 q 241 1153 235 1145 q 255 1165 247 1160 q 272 1169 262 1169 q 303 1153 290 1169 q 317 1112 317 1137 q 304 1069 317 1086 q 272 1052 291 1052 z "},"ė":{"ha":535,"x_min":47,"x_max":491,"o":"m 115 332 q 127 217 115 268 q 163 131 140 166 q 218 77 186 96 q 292 58 251 58 q 458 140 380 58 l 458 55 q 277 -16 384 -16 q 182 8 225 -16 q 110 79 140 33 q 64 193 80 125 q 47 348 47 261 q 65 492 47 426 q 114 607 83 559 q 189 683 146 656 q 283 711 233 711 q 373 687 334 711 q 438 621 412 664 q 477 515 464 577 q 491 375 491 452 l 491 332 l 115 332 m 424 408 q 386 576 422 516 q 282 635 349 635 q 221 620 249 635 q 171 575 193 604 q 136 503 150 545 q 117 408 122 460 l 424 408 m 283 816 q 267 820 275 816 q 252 833 258 825 q 242 852 246 841 q 239 876 239 863 q 242 899 239 888 q 252 917 246 909 q 266 929 258 924 q 283 933 274 933 q 315 917 302 933 q 328 876 328 901 q 315 833 328 850 q 283 816 302 816 z "},"Ĝ":{"ha":705,"x_min":52,"x_max":631,"o":"m 631 67 q 393 -17 518 -17 q 250 19 313 -17 q 143 120 187 56 q 75 275 98 185 q 52 473 52 365 q 63 610 52 544 q 96 733 74 675 q 151 838 119 791 q 224 918 182 884 q 315 970 265 952 q 422 989 365 989 q 616 937 531 989 l 616 838 q 414 907 522 907 q 294 874 348 907 q 202 785 240 842 q 143 650 164 728 q 122 481 123 572 q 139 315 121 391 q 193 183 157 239 q 281 96 229 127 q 402 65 334 65 q 563 117 495 65 l 563 413 l 397 413 l 397 495 l 631 495 l 631 67 m 476 1052 l 394 1211 l 312 1052 l 262 1052 l 373 1278 l 418 1278 l 529 1052 l 476 1052 z "},"ĝ":{"ha":598,"x_min":47,"x_max":514,"o":"m 514 54 q 448 -233 514 -140 q 245 -326 382 -326 q 83 -275 159 -326 l 83 -187 q 245 -250 168 -250 q 449 37 449 -250 l 449 121 l 447 121 q 264 -16 387 -16 q 176 7 216 -16 q 107 76 136 31 q 63 185 79 121 q 47 330 47 249 q 64 485 47 415 q 112 606 81 555 q 187 683 143 656 q 286 711 231 711 q 447 591 396 711 l 449 591 l 449 694 l 514 694 l 514 54 m 449 422 q 437 504 449 465 q 405 572 426 543 q 355 618 384 601 q 292 635 326 635 q 218 614 251 635 q 162 555 186 593 q 127 461 139 516 q 115 336 115 406 q 126 221 115 273 q 159 134 138 170 q 211 78 180 98 q 278 58 241 58 q 348 77 317 58 q 402 129 380 96 q 437 206 425 161 q 449 302 449 250 l 449 422 m 374 816 l 292 975 l 210 816 l 160 816 l 271 1042 l 317 1042 l 427 816 l 374 816 z "},"Ġ":{"ha":705,"x_min":52,"x_max":631,"o":"m 631 67 q 393 -17 518 -17 q 250 19 313 -17 q 143 120 187 56 q 75 275 98 185 q 52 473 52 365 q 63 610 52 544 q 96 733 74 675 q 151 838 119 791 q 224 918 182 884 q 315 970 265 952 q 422 989 365 989 q 616 937 531 989 l 616 838 q 414 907 522 907 q 294 874 348 907 q 202 785 240 842 q 143 650 164 728 q 122 481 123 572 q 139 315 121 391 q 193 183 157 239 q 281 96 229 127 q 402 65 334 65 q 563 117 495 65 l 563 413 l 397 413 l 397 495 l 631 495 l 631 67 m 398 1052 q 381 1056 389 1052 q 367 1069 373 1061 q 357 1088 361 1077 q 353 1112 353 1099 q 357 1135 353 1124 q 367 1153 361 1145 q 381 1165 373 1160 q 398 1169 389 1169 q 430 1153 416 1169 q 443 1112 443 1137 q 430 1069 443 1086 q 398 1052 417 1052 z "},"ġ":{"ha":598,"x_min":47,"x_max":514,"o":"m 514 54 q 448 -233 514 -140 q 245 -326 382 -326 q 83 -275 159 -326 l 83 -187 q 245 -250 168 -250 q 449 37 449 -250 l 449 121 l 447 121 q 264 -16 387 -16 q 176 7 216 -16 q 107 76 136 31 q 63 185 79 121 q 47 330 47 249 q 64 485 47 415 q 112 606 81 555 q 187 683 143 656 q 286 711 231 711 q 447 591 396 711 l 449 591 l 449 694 l 514 694 l 514 54 m 449 422 q 437 504 449 465 q 405 572 426 543 q 355 618 384 601 q 292 635 326 635 q 218 614 251 635 q 162 555 186 593 q 127 461 139 516 q 115 336 115 406 q 126 221 115 273 q 159 134 138 170 q 211 78 180 98 q 278 58 241 58 q 348 77 317 58 q 402 129 380 96 q 437 206 425 161 q 449 302 449 250 l 449 422 m 288 816 q 271 820 279 816 q 256 833 262 825 q 247 852 250 841 q 243 876 243 863 q 247 899 243 888 q 256 917 250 909 q 270 929 262 924 q 288 933 278 933 q 319 917 306 933 q 332 876 332 901 q 319 833 332 850 q 288 816 307 816 z "},"Ģ":{"ha":705,"x_min":52,"x_max":631,"o":"m 631 67 q 393 -17 518 -17 q 250 19 313 -17 q 143 120 187 56 q 75 275 98 185 q 52 473 52 365 q 63 610 52 544 q 96 733 74 675 q 151 838 119 791 q 224 918 182 884 q 315 970 265 952 q 422 989 365 989 q 616 937 531 989 l 616 838 q 414 907 522 907 q 294 874 348 907 q 202 785 240 842 q 143 650 164 728 q 122 481 123 572 q 139 315 121 391 q 193 183 157 239 q 281 96 229 127 q 402 65 334 65 q 563 117 495 65 l 563 413 l 397 413 l 397 495 l 631 495 l 631 67 m 436 -81 l 362 -257 l 311 -257 l 364 -81 l 436 -81 z "},"ģ":{"ha":598,"x_min":47,"x_max":514,"o":"m 514 54 q 448 -233 514 -140 q 245 -326 382 -326 q 83 -275 159 -326 l 83 -187 q 245 -250 168 -250 q 449 37 449 -250 l 449 121 l 447 121 q 264 -16 387 -16 q 176 7 216 -16 q 107 76 136 31 q 63 185 79 121 q 47 330 47 249 q 64 485 47 415 q 112 606 81 555 q 187 683 143 656 q 286 711 231 711 q 447 591 396 711 l 449 591 l 449 694 l 514 694 l 514 54 m 449 422 q 437 504 449 465 q 405 572 426 543 q 355 618 384 601 q 292 635 326 635 q 218 614 251 635 q 162 555 186 593 q 127 461 139 516 q 115 336 115 406 q 126 221 115 273 q 159 134 138 170 q 211 78 180 98 q 278 58 241 58 q 348 77 317 58 q 402 129 380 96 q 437 206 425 161 q 449 302 449 250 l 449 422 m 243 826 l 318 1002 l 369 1002 l 316 826 l 243 826 z "},"Ĥ":{"ha":722,"x_min":94,"x_max":627,"o":"m 560 0 l 560 455 l 162 455 l 162 0 l 94 0 l 94 972 l 162 972 l 162 536 l 560 536 l 560 972 l 627 972 l 627 0 l 560 0 m 440 1052 l 358 1211 l 276 1052 l 226 1052 l 337 1278 l 382 1278 l 493 1052 l 440 1052 z "},"ĥ":{"ha":573,"x_min":84,"x_max":500,"o":"m 435 0 l 435 408 q 404 580 435 525 q 306 635 372 635 q 245 618 274 635 q 196 570 217 602 q 162 492 174 538 q 149 389 149 446 l 149 0 l 84 0 l 84 1028 l 149 1028 l 149 574 l 151 574 q 326 711 212 711 q 457 640 413 711 q 500 429 500 568 l 500 0 l 435 0 m 387 1107 l 304 1265 l 222 1107 l 172 1107 l 283 1333 l 329 1333 l 439 1107 l 387 1107 z "},"Ħ":{"ha":722,"x_min":22,"x_max":699,"o":"m 22 703 l 22 785 l 94 785 l 94 972 l 162 972 l 162 785 l 560 785 l 560 972 l 627 972 l 627 785 l 699 785 l 699 703 l 627 703 l 627 0 l 560 0 l 560 455 l 162 455 l 162 0 l 94 0 l 94 703 l 22 703 m 560 536 l 560 703 l 162 703 l 162 536 l 560 536 z "},"ħ":{"ha":573,"x_min":20,"x_max":506,"o":"m 441 0 l 441 400 q 409 572 441 516 q 311 627 378 627 q 258 613 286 627 q 208 569 231 599 q 170 492 184 538 q 155 380 155 446 l 155 0 l 90 0 l 90 825 l 20 825 l 20 899 l 90 899 l 90 1028 l 155 1028 l 155 899 l 338 899 l 338 825 l 155 825 l 155 566 l 157 566 q 228 666 184 629 q 332 703 271 703 q 462 629 418 703 q 506 420 506 555 l 506 0 l 441 0 z "},"Ĩ":{"ha":257,"x_min":-31,"x_max":290,"o":"m 162 0 l 94 0 l 94 972 l 162 972 l 162 0 m 290 1213 q 284 1149 290 1178 q 266 1100 278 1121 q 238 1068 254 1080 q 199 1057 221 1057 q 120 1100 165 1057 q 60 1133 85 1133 q 12 1046 12 1133 l -31 1046 q -25 1109 -31 1081 q -6 1158 -18 1138 q 22 1190 5 1179 q 60 1201 39 1201 q 138 1159 95 1201 q 201 1124 174 1124 q 234 1146 222 1124 q 247 1213 247 1168 l 290 1213 z "},"ĩ":{"ha":233,"x_min":-45,"x_max":276,"o":"m 84 0 l 84 694 l 149 694 l 149 0 l 84 0 m 276 977 q 270 913 276 942 q 252 864 264 885 q 223 832 240 844 q 185 821 207 821 q 106 864 151 821 q 45 897 71 897 q -3 810 -3 897 l -45 810 q -39 873 -45 845 q -21 922 -33 902 q 8 954 -9 943 q 46 965 24 965 q 124 923 81 965 q 186 888 160 888 q 220 910 208 888 q 233 977 233 932 l 276 977 z "},"Ī":{"ha":257,"x_min":0,"x_max":258,"o":"m 162 0 l 94 0 l 94 972 l 162 972 l 162 0 m 0 1052 l 0 1117 l 258 1117 l 258 1052 l 0 1052 z "},"ī":{"ha":233,"x_min":-12,"x_max":246,"o":"m 84 0 l 84 694 l 149 694 l 149 0 l 84 0 m -12 816 l -12 881 l 246 881 l 246 816 l -12 816 z "},"Ĭ":{"ha":257,"x_min":-9,"x_max":267,"o":"m 162 0 l 94 0 l 94 972 l 162 972 l 162 0 m 267 1217 q 251 1149 263 1179 q 221 1097 239 1119 q 179 1064 203 1076 q 127 1052 155 1052 q 74 1063 98 1052 q 32 1096 50 1075 q 3 1148 14 1118 q -9 1217 -7 1179 l 38 1217 q 64 1138 41 1165 q 127 1110 87 1110 q 160 1118 145 1110 q 188 1140 176 1126 q 208 1173 200 1154 q 218 1217 216 1193 l 267 1217 z "},"ĭ":{"ha":233,"x_min":-23,"x_max":252,"o":"m 84 0 l 84 694 l 149 694 l 149 0 l 84 0 m 252 981 q 237 913 249 943 q 207 861 225 883 q 164 828 189 840 q 113 816 140 816 q 59 827 83 816 q 17 860 35 839 q -11 912 -1 882 q -23 981 -22 943 l 24 981 q 50 902 26 929 q 113 874 73 874 q 146 882 131 874 q 174 904 161 890 q 194 937 186 918 q 204 981 201 957 l 252 981 z "},"Į":{"ha":257,"x_min":58,"x_max":194,"o":"m 162 0 l 94 0 l 94 972 l 162 972 l 162 0 m 194 0 q 113 -157 113 -94 q 151 -211 113 -211 q 186 -201 169 -211 l 186 -260 q 141 -271 166 -271 q 81 -244 104 -271 q 58 -168 58 -217 q 79 -85 58 -129 q 141 0 100 -41 l 194 0 z "},"į":{"ha":233,"x_min":11,"x_max":163,"o":"m 116 870 q 83 888 97 870 q 70 932 70 905 q 83 976 70 959 q 116 994 97 994 q 134 989 125 994 q 149 977 143 985 q 159 957 155 968 q 163 932 163 946 q 160 908 163 920 q 150 888 156 897 q 135 875 143 880 q 116 870 126 870 m 84 0 l 84 694 l 149 694 l 149 0 l 84 0 m 146 0 q 65 -157 65 -94 q 104 -211 65 -211 q 138 -201 121 -211 l 138 -260 q 94 -271 119 -271 q 34 -244 56 -271 q 11 -168 11 -217 q 32 -85 11 -129 q 94 0 53 -41 l 146 0 z "},"Ĵ":{"ha":355,"x_min":9,"x_max":363,"o":"m 265 342 q 215 72 265 160 q 72 -16 164 -16 q 39 -13 54 -16 q 9 -3 23 -10 l 9 85 q 73 65 38 65 q 168 133 138 65 q 197 342 197 201 l 197 972 l 265 972 l 265 342 m 311 1052 l 229 1211 l 146 1052 l 96 1052 l 208 1278 l 253 1278 l 363 1052 l 311 1052 z "},"ĵ":{"ha":233,"x_min":-115,"x_max":250,"o":"m 149 24 q 103 -237 149 -148 q -43 -327 58 -327 q -115 -304 -79 -327 l -115 -220 q -39 -251 -75 -251 q 84 9 84 -251 l 84 694 l 149 694 l 149 24 m 197 816 l 115 975 l 33 816 l -18 816 l 94 1042 l 139 1042 l 250 816 l 197 816 z "},"Ķ":{"ha":576,"x_min":94,"x_max":571,"o":"m 477 0 l 180 455 q 164 483 168 475 l 162 483 l 162 0 l 94 0 l 94 972 l 162 972 l 162 515 l 164 515 q 172 529 168 522 q 180 543 176 536 l 465 972 l 550 972 l 234 503 l 571 0 l 477 0 m 358 -81 l 284 -257 l 233 -257 l 286 -81 l 358 -81 z "},"ķ":{"ha":490,"x_min":84,"x_max":483,"o":"m 391 0 l 151 338 l 149 338 l 149 0 l 84 0 l 84 1028 l 149 1028 l 149 371 l 151 371 l 378 694 l 463 694 l 219 359 l 483 0 l 391 0 m 305 -81 l 231 -257 l 180 -257 l 233 -81 l 305 -81 z "},"ĸ":{"ha":490,"x_min":84,"x_max":483,"o":"m 391 0 l 151 338 l 149 338 l 149 0 l 84 0 l 84 694 l 149 694 l 149 371 l 151 371 l 378 694 l 463 694 l 219 359 l 483 0 l 391 0 z "},"Ļ":{"ha":484,"x_min":94,"x_max":455,"o":"m 94 0 l 94 972 l 162 972 l 162 82 l 455 82 l 455 0 l 94 0 m 388 -176 q 253 -294 388 -294 q 216 -292 235 -294 l 216 -236 q 256 -240 241 -240 q 332 -178 332 -240 q 263 -123 332 -123 q 251 -123 257 -123 q 237 -125 245 -124 l 237 0 l 282 0 l 282 -75 q 360 -101 333 -75 q 388 -176 388 -127 z "},"ļ":{"ha":233,"x_min":71,"x_max":242,"o":"m 84 0 l 84 1028 l 149 1028 l 149 0 l 84 0 m 242 -176 q 107 -294 242 -294 q 71 -292 89 -294 l 71 -236 q 111 -240 95 -240 q 186 -178 186 -240 q 117 -123 186 -123 q 105 -123 111 -123 q 91 -125 99 -124 l 91 0 l 136 0 l 136 -75 q 215 -101 187 -75 q 242 -176 242 -127 z "},"Ņ":{"ha":759,"x_min":94,"x_max":664,"o":"m 594 0 l 189 781 q 174 811 182 795 q 162 842 167 827 l 159 842 q 161 808 161 829 q 162 753 162 786 l 162 0 l 94 0 l 94 972 l 170 972 l 568 201 q 584 167 576 183 q 597 138 591 151 l 600 138 q 597 188 598 160 q 596 250 596 216 l 596 972 l 664 972 l 664 0 l 594 0 m 424 -81 l 350 -257 l 298 -257 l 352 -81 l 424 -81 z "},"ņ":{"ha":573,"x_min":84,"x_max":500,"o":"m 435 0 l 435 400 q 307 635 435 635 q 244 617 273 635 q 194 568 215 600 q 161 492 173 536 q 149 397 149 448 l 149 0 l 84 0 l 84 694 l 149 694 l 149 574 l 151 574 q 326 711 209 711 q 456 637 411 711 q 500 423 500 563 l 500 0 l 435 0 m 335 -81 l 261 -257 l 210 -257 l 263 -81 l 335 -81 z "},"Ŋ":{"ha":759,"x_min":94,"x_max":664,"o":"m 664 22 q 488 -286 664 -286 q 425 -271 453 -286 l 425 -182 q 489 -204 460 -204 q 540 -189 519 -204 q 572 -145 560 -173 q 591 -81 585 -118 q 598 0 597 -43 l 189 781 q 175 809 182 794 q 162 842 168 824 l 159 842 q 161 806 161 828 q 162 753 162 784 l 162 0 l 94 0 l 94 972 l 170 972 l 568 214 q 580 188 573 203 q 597 147 587 174 l 600 147 q 597 200 598 171 q 596 262 596 229 l 596 972 l 664 972 l 664 22 z "},"ŋ":{"ha":573,"x_min":84,"x_max":500,"o":"m 500 9 q 459 -213 500 -140 q 334 -286 418 -286 q 298 -281 317 -286 q 265 -264 280 -275 l 265 -176 q 301 -199 283 -191 q 335 -206 319 -206 q 411 -155 387 -206 q 435 1 435 -104 l 435 400 q 307 635 435 635 q 242 616 271 635 q 192 564 212 597 q 160 488 172 531 q 149 397 149 445 l 149 0 l 84 0 l 84 694 l 149 694 l 149 574 l 151 574 q 326 711 209 711 q 456 638 412 711 q 500 423 500 565 l 500 9 z "},"Ō":{"ha":789,"x_min":52,"x_max":737,"o":"m 391 -17 q 250 21 313 -17 q 142 126 186 60 q 75 282 98 193 q 52 475 52 372 q 75 684 52 589 q 144 846 98 779 q 255 951 189 913 q 404 989 320 989 q 543 952 481 989 q 648 849 605 915 q 714 694 691 784 q 737 500 737 605 q 715 295 737 389 q 648 131 692 200 q 540 22 604 62 q 391 -17 475 -17 m 397 907 q 280 873 331 907 q 194 782 229 840 q 141 648 159 725 q 122 484 123 571 q 138 326 121 401 q 188 192 155 250 q 272 100 221 134 q 391 65 323 65 q 511 97 459 65 q 597 184 562 128 q 649 317 631 240 q 667 486 667 395 q 651 648 667 572 q 603 782 635 725 q 519 873 570 840 q 397 907 469 907 m 264 1052 l 264 1117 l 523 1117 l 523 1052 l 264 1052 z "},"ō":{"ha":597,"x_min":47,"x_max":550,"o":"m 297 -16 q 193 9 239 -16 q 115 82 147 35 q 65 195 82 130 q 47 341 47 261 q 66 496 47 428 q 118 613 84 565 q 199 686 151 661 q 306 711 247 711 q 408 686 363 711 q 485 614 453 661 q 533 500 516 568 q 550 348 550 433 q 532 200 550 267 q 482 85 515 133 q 403 10 450 37 q 297 -16 356 -16 m 302 635 q 224 616 259 635 q 165 558 190 596 q 128 466 141 521 q 115 342 115 412 q 128 225 115 277 q 165 136 141 173 q 224 78 189 98 q 301 58 258 58 q 378 78 345 58 q 435 134 412 97 q 471 224 458 171 q 483 347 483 278 q 436 561 483 487 q 302 635 389 635 m 169 816 l 169 881 l 427 881 l 427 816 l 169 816 z "},"Ŏ":{"ha":789,"x_min":52,"x_max":737,"o":"m 391 -17 q 250 21 313 -17 q 142 126 186 60 q 75 282 98 193 q 52 475 52 372 q 75 684 52 589 q 144 846 98 779 q 255 951 189 913 q 404 989 320 989 q 543 952 481 989 q 648 849 605 915 q 714 694 691 784 q 737 500 737 605 q 715 295 737 389 q 648 131 692 200 q 540 22 604 62 q 391 -17 475 -17 m 397 907 q 280 873 331 907 q 194 782 229 840 q 141 648 159 725 q 122 484 123 571 q 138 326 121 401 q 188 192 155 250 q 272 100 221 134 q 391 65 323 65 q 511 97 459 65 q 597 184 562 128 q 649 317 631 240 q 667 486 667 395 q 651 648 667 572 q 603 782 635 725 q 519 873 570 840 q 397 907 469 907 m 537 1217 q 522 1149 534 1179 q 492 1097 510 1119 q 449 1064 473 1076 q 397 1052 425 1052 q 344 1063 368 1052 q 302 1096 320 1075 q 274 1148 284 1118 q 262 1217 263 1179 l 309 1217 q 335 1138 311 1165 q 398 1110 358 1110 q 431 1118 416 1110 q 458 1140 446 1126 q 478 1173 471 1154 q 489 1217 486 1193 l 537 1217 z "},"ŏ":{"ha":597,"x_min":47,"x_max":550,"o":"m 297 -16 q 193 9 239 -16 q 115 82 147 35 q 65 195 82 130 q 47 341 47 261 q 66 496 47 428 q 118 613 84 565 q 199 686 151 661 q 306 711 247 711 q 408 686 363 711 q 485 614 453 661 q 533 500 516 568 q 550 348 550 433 q 532 200 550 267 q 482 85 515 133 q 403 10 450 37 q 297 -16 356 -16 m 302 635 q 224 616 259 635 q 165 558 190 596 q 128 466 141 521 q 115 342 115 412 q 128 225 115 277 q 165 136 141 173 q 224 78 189 98 q 301 58 258 58 q 378 78 345 58 q 435 134 412 97 q 471 224 458 171 q 483 347 483 278 q 436 561 483 487 q 302 635 389 635 m 444 981 q 428 913 440 943 q 398 861 416 883 q 356 828 380 840 q 304 816 332 816 q 251 827 275 816 q 209 860 227 839 q 180 912 191 882 q 168 981 170 943 l 215 981 q 241 902 218 929 q 304 874 264 874 q 337 882 322 874 q 365 904 353 890 q 385 937 377 918 q 395 981 393 957 l 444 981 z "},"Ŗ":{"ha":601,"x_min":94,"x_max":571,"o":"m 492 0 l 382 279 q 350 348 366 320 q 319 392 335 376 q 284 416 302 409 q 243 423 265 423 l 162 423 l 162 0 l 94 0 l 94 972 l 304 972 q 384 956 346 972 q 453 908 422 940 q 501 828 483 876 q 519 716 519 780 q 507 621 519 665 q 474 544 495 578 q 421 487 452 511 q 352 452 391 464 l 352 450 q 379 429 367 441 q 402 397 391 416 q 425 355 414 379 q 448 301 436 332 l 571 0 l 492 0 m 162 890 l 162 505 l 283 505 q 351 519 320 505 q 402 560 381 534 q 436 624 424 587 q 448 708 448 661 q 407 841 448 793 q 289 890 366 890 l 162 890 m 350 -81 l 276 -257 l 224 -257 l 278 -81 l 350 -81 z "},"ŗ":{"ha":353,"x_min":84,"x_max":342,"o":"m 342 606 q 283 628 319 628 q 237 615 257 628 q 203 579 218 602 q 177 527 188 557 q 160 466 167 498 q 151 401 154 434 q 149 340 149 369 l 149 0 l 84 0 l 84 694 l 149 694 l 149 546 l 151 546 q 174 614 159 584 q 206 665 188 644 q 246 696 224 686 q 292 707 267 707 q 320 705 307 707 q 342 696 332 702 l 342 606 m 257 -81 l 183 -257 l 132 -257 l 185 -81 l 257 -81 z "},"Ŝ":{"ha":536,"x_min":66,"x_max":479,"o":"m 66 142 q 106 110 84 124 q 152 85 129 95 q 198 70 175 75 q 243 65 222 65 q 367 108 326 65 q 408 231 408 151 q 399 298 408 269 q 369 352 389 327 q 317 402 349 377 q 244 458 286 427 q 164 522 197 492 q 110 584 131 552 q 78 652 88 615 q 68 735 68 688 q 87 841 68 794 q 138 921 106 888 q 213 971 170 954 q 305 989 256 989 q 449 957 391 989 l 449 857 q 298 907 385 907 q 236 896 265 907 q 186 865 208 886 q 152 815 164 845 q 139 745 139 785 q 148 679 139 707 q 175 627 156 652 q 223 579 193 603 q 298 524 254 555 q 377 460 343 491 q 434 396 412 429 q 468 325 456 362 q 479 241 479 287 q 461 129 479 177 q 411 48 444 80 q 335 0 379 16 q 238 -16 291 -16 q 197 -13 220 -16 q 149 -2 173 -9 q 102 15 124 5 q 66 37 80 25 l 66 142 m 354 1052 l 272 1211 l 190 1052 l 140 1052 l 251 1278 l 296 1278 l 407 1052 l 354 1052 z "},"ŝ":{"ha":423,"x_min":54,"x_max":377,"o":"m 54 125 q 86 97 69 109 q 122 76 104 85 q 159 63 140 67 q 194 58 178 58 q 310 174 310 58 q 302 220 310 201 q 278 255 294 239 q 242 285 263 271 q 194 313 220 298 q 132 353 157 333 q 89 398 106 374 q 64 451 72 422 q 56 516 56 479 q 71 598 56 562 q 112 659 86 634 q 170 697 137 684 q 240 711 203 711 q 358 677 308 711 l 358 585 q 232 635 300 635 q 188 627 208 635 q 153 604 168 619 q 131 569 139 589 q 123 523 123 548 q 129 478 123 497 q 148 443 135 458 q 182 413 161 427 q 232 382 202 399 q 297 342 269 362 q 342 299 324 322 q 369 247 360 275 q 377 180 377 218 q 363 96 377 133 q 323 35 349 60 q 262 -3 297 9 q 187 -16 228 -16 q 54 28 109 -16 l 54 125 m 296 816 l 214 975 l 132 816 l 81 816 l 193 1042 l 238 1042 l 349 816 l 296 816 z "},"Ŧ":{"ha":539,"x_min":25,"x_max":513,"o":"m 303 890 l 303 530 l 448 530 l 448 446 l 303 446 l 303 0 l 235 0 l 235 446 l 90 446 l 90 530 l 235 530 l 235 890 l 25 890 l 25 972 l 513 972 l 513 890 l 303 890 z "},"ŧ":{"ha":331,"x_min":17,"x_max":308,"o":"m 308 8 q 235 -14 274 -14 q 109 180 109 -14 l 109 379 l 25 379 l 25 453 l 109 453 l 109 618 l 17 618 l 17 694 l 109 694 l 109 869 l 174 898 l 174 694 l 308 694 l 308 618 l 174 618 l 174 453 l 298 453 l 298 379 l 174 379 l 174 193 q 191 92 174 123 q 249 60 208 60 q 308 85 279 60 l 308 8 z "},"Ũ":{"ha":695,"x_min":85,"x_max":610,"o":"m 610 391 q 341 -17 610 -17 q 85 376 85 -17 l 85 972 l 153 972 l 153 384 q 201 144 153 224 q 351 65 250 65 q 542 374 542 65 l 542 972 l 610 972 l 610 391 m 509 1213 q 503 1149 509 1178 q 485 1100 497 1121 q 457 1068 473 1080 q 418 1057 440 1057 q 339 1100 384 1057 q 279 1133 304 1133 q 231 1046 231 1133 l 188 1046 q 194 1109 188 1081 q 213 1158 201 1138 q 241 1190 224 1179 q 279 1201 258 1201 q 357 1159 314 1201 q 420 1124 393 1124 q 453 1146 441 1124 q 466 1213 466 1168 l 509 1213 z "},"ũ":{"ha":574,"x_min":73,"x_max":490,"o":"m 425 0 l 425 118 l 422 118 q 258 -16 370 -16 q 73 286 73 -16 l 73 694 l 138 694 l 138 302 q 171 118 138 178 q 273 58 204 58 q 334 76 307 58 q 382 124 362 93 q 413 200 402 156 q 425 298 425 244 l 425 694 l 490 694 l 490 0 l 425 0 m 442 977 q 436 913 442 942 q 418 864 430 885 q 390 832 406 844 q 351 821 373 821 q 272 864 317 821 q 212 897 237 897 q 163 810 163 897 l 121 810 q 127 873 121 845 q 145 922 134 902 q 174 954 157 943 q 212 965 191 965 q 290 923 247 965 q 353 888 326 888 q 386 910 374 888 q 399 977 399 932 l 442 977 z "},"Ū":{"ha":695,"x_min":85,"x_max":610,"o":"m 610 391 q 341 -17 610 -17 q 85 376 85 -17 l 85 972 l 153 972 l 153 384 q 201 144 153 224 q 351 65 250 65 q 542 374 542 65 l 542 972 l 610 972 l 610 391 m 218 1052 l 218 1117 l 476 1117 l 476 1052 l 218 1052 z "},"ū":{"ha":574,"x_min":73,"x_max":490,"o":"m 425 0 l 425 118 l 422 118 q 258 -16 370 -16 q 73 286 73 -16 l 73 694 l 138 694 l 138 302 q 171 118 138 178 q 273 58 204 58 q 334 76 307 58 q 382 124 362 93 q 413 200 402 156 q 425 298 425 244 l 425 694 l 490 694 l 490 0 l 425 0 m 150 816 l 150 881 l 408 881 l 408 816 l 150 816 z "},"Ŭ":{"ha":695,"x_min":85,"x_max":610,"o":"m 610 391 q 341 -17 610 -17 q 85 376 85 -17 l 85 972 l 153 972 l 153 384 q 201 144 153 224 q 351 65 250 65 q 542 374 542 65 l 542 972 l 610 972 l 610 391 m 483 1217 q 468 1149 479 1179 q 437 1097 456 1119 q 395 1064 419 1076 q 343 1052 371 1052 q 290 1063 314 1052 q 248 1096 266 1075 q 219 1148 230 1118 q 208 1217 209 1179 l 254 1217 q 280 1138 257 1165 q 344 1110 304 1110 q 377 1118 361 1110 q 404 1140 392 1126 q 424 1173 416 1154 q 435 1217 432 1193 l 483 1217 z "},"ŭ":{"ha":574,"x_min":73,"x_max":490,"o":"m 425 0 l 425 118 l 422 118 q 258 -16 370 -16 q 73 286 73 -16 l 73 694 l 138 694 l 138 302 q 171 118 138 178 q 273 58 204 58 q 334 76 307 58 q 382 124 362 93 q 413 200 402 156 q 425 298 425 244 l 425 694 l 490 694 l 490 0 l 425 0 m 419 981 q 404 913 416 943 q 374 861 392 883 q 331 828 355 840 q 279 816 307 816 q 226 827 250 816 q 184 860 202 839 q 156 912 166 882 q 144 981 145 943 l 191 981 q 217 902 193 929 q 280 874 240 874 q 313 882 298 874 q 340 904 328 890 q 360 937 353 918 q 371 981 368 957 l 419 981 z "},"Ų":{"ha":695,"x_min":85,"x_max":610,"o":"m 610 391 q 341 -17 610 -17 q 85 376 85 -17 l 85 972 l 153 972 l 153 384 q 201 144 153 224 q 351 65 250 65 q 542 374 542 65 l 542 972 l 610 972 l 610 391 m 425 0 q 343 -157 343 -94 q 382 -211 343 -211 q 416 -201 399 -211 l 416 -260 q 372 -271 397 -271 q 312 -244 334 -271 q 289 -168 289 -217 q 310 -85 289 -129 q 372 0 331 -41 l 425 0 z "},"ų":{"ha":574,"x_min":73,"x_max":490,"o":"m 425 0 l 425 118 l 422 118 q 258 -16 370 -16 q 73 286 73 -16 l 73 694 l 138 694 l 138 302 q 171 118 138 178 q 273 58 204 58 q 334 76 307 58 q 382 124 362 93 q 413 200 402 156 q 425 298 425 244 l 425 694 l 490 694 l 490 0 l 425 0 m 477 0 q 396 -157 396 -94 q 435 -211 396 -211 q 469 -201 452 -211 l 469 -260 q 425 -271 450 -271 q 365 -244 387 -271 q 342 -168 342 -217 q 363 -85 342 -129 q 425 0 384 -41 l 477 0 z "},"Ŵ":{"ha":953,"x_min":19,"x_max":933,"o":"m 723 0 l 652 0 l 496 721 q 488 770 491 747 q 484 817 484 794 l 481 817 q 467 722 479 777 l 305 0 l 235 0 l 19 972 l 94 972 l 255 210 q 264 162 261 184 q 269 118 267 139 l 271 118 q 288 210 275 149 l 459 972 l 513 972 l 673 207 q 681 162 677 184 q 686 119 684 140 l 688 119 q 693 149 690 132 q 700 187 696 166 l 859 972 l 933 972 l 723 0 m 565 1052 l 483 1211 l 401 1052 l 351 1052 l 462 1278 l 507 1278 l 618 1052 l 565 1052 z "},"ŵ":{"ha":729,"x_min":15,"x_max":713,"o":"m 554 0 l 489 0 l 379 510 q 371 572 374 534 l 369 572 q 365 547 368 562 q 358 511 363 532 l 237 0 l 173 0 l 15 694 l 85 694 l 199 156 q 206 96 204 132 l 210 96 q 214 123 212 108 q 220 157 216 139 l 347 694 l 400 694 l 513 155 q 521 95 517 132 l 525 95 q 527 122 524 106 q 534 155 530 137 l 648 694 l 713 694 l 554 0 m 452 816 l 370 975 l 288 816 l 237 816 l 349 1042 l 394 1042 l 505 816 l 452 816 z "},"Ŷ":{"ha":569,"x_min":17,"x_max":552,"o":"m 314 364 l 314 0 l 246 0 l 246 362 l 17 972 l 94 972 l 261 518 q 269 494 264 510 q 281 452 274 477 l 283 452 q 291 481 286 465 q 305 517 297 497 l 479 972 l 552 972 l 314 364 m 364 1052 l 282 1211 l 200 1052 l 150 1052 l 261 1278 l 307 1278 l 417 1052 l 364 1052 z "},"ŷ":{"ha":488,"x_min":9,"x_max":481,"o":"m 235 -126 q 164 -277 204 -228 q 68 -326 125 -326 q 21 -317 41 -326 l 21 -236 q 44 -244 33 -241 q 67 -247 56 -247 q 123 -220 99 -247 q 163 -139 146 -193 l 209 3 l 9 694 l 81 694 l 230 144 q 236 120 233 134 q 241 92 239 106 l 243 92 q 249 116 246 104 q 255 142 251 127 l 413 694 l 481 694 l 235 -126 m 327 816 l 245 975 l 163 816 l 113 816 l 224 1042 l 269 1042 l 380 816 l 327 816 z "},"ſ":{"ha":255,"x_min":84,"x_max":296,"o":"m 296 946 q 241 965 275 965 q 149 806 149 965 l 149 0 l 84 0 l 84 811 q 93 899 84 857 q 122 972 102 941 q 171 1022 141 1004 q 239 1041 200 1041 q 296 1028 275 1041 l 296 946 z "},"Ǻ":{"ha":663,"x_min":20,"x_max":642,"o":"m 567 0 l 487 288 l 174 288 l 96 0 l 20 0 l 287 933 q 227 1048 227 965 q 235 1101 227 1077 q 258 1142 243 1125 q 291 1169 272 1160 q 332 1179 310 1179 q 373 1169 354 1179 q 405 1143 391 1160 q 426 1103 418 1126 q 434 1050 434 1079 q 376 935 434 969 l 642 0 l 567 0 m 330 1128 q 286 1106 303 1128 q 269 1050 269 1085 q 286 993 269 1013 q 330 972 302 972 q 375 994 357 972 q 393 1050 393 1016 q 388 1082 393 1068 q 375 1107 383 1097 q 355 1122 366 1117 q 330 1128 344 1128 m 351 781 q 340 820 345 800 q 331 871 336 840 l 329 871 q 322 832 326 849 q 315 802 318 815 l 197 370 l 464 370 l 351 781 m 331 1222 l 276 1222 l 392 1444 l 460 1444 l 331 1222 z "},"ǻ":{"ha":522,"x_min":50,"x_max":449,"o":"m 384 0 l 384 123 l 382 123 q 313 20 357 57 q 213 -16 269 -16 q 145 -2 176 -16 q 94 38 115 12 q 61 101 73 64 q 50 182 50 138 q 93 332 50 276 q 226 405 137 388 l 384 435 q 267 635 384 635 q 98 547 176 635 l 98 642 q 135 670 115 657 q 179 691 156 682 q 226 706 202 701 q 273 711 250 711 q 405 646 360 711 q 449 452 449 581 l 449 0 l 384 0 m 250 337 q 190 320 214 330 q 149 293 165 310 q 124 250 132 275 q 117 187 117 224 q 124 136 117 159 q 145 95 132 112 q 180 68 159 77 q 225 58 200 58 q 289 76 260 58 q 339 125 318 94 q 372 199 360 156 q 384 294 384 243 l 384 362 l 250 337 m 263 760 q 224 769 243 760 q 192 794 206 778 q 170 834 178 810 q 161 887 161 858 q 170 939 161 916 q 192 980 178 963 q 225 1007 206 998 q 265 1017 243 1017 q 304 1008 286 1017 q 336 982 322 999 q 359 942 351 966 q 368 889 368 918 q 360 838 368 861 q 337 797 351 814 q 303 770 322 780 q 263 760 285 760 m 263 966 q 220 945 237 966 q 203 888 203 923 q 219 831 203 851 q 263 810 235 810 q 289 816 277 810 q 308 832 300 822 q 321 857 317 843 q 326 888 326 871 q 308 945 326 924 q 263 966 290 966 m 265 1062 l 210 1062 l 326 1284 l 395 1284 l 265 1062 z "},"Ǽ":{"ha":882,"x_min":7,"x_max":817,"o":"m 446 0 l 446 288 l 189 288 l 84 0 l 7 0 l 361 972 l 801 972 l 801 888 l 513 888 l 513 532 l 780 532 l 780 451 l 513 451 l 513 82 l 817 82 l 817 0 l 446 0 m 446 888 l 401 888 l 216 370 l 446 370 l 446 888 m 539 1052 l 484 1052 l 600 1274 l 669 1274 l 539 1052 z "},"ǽ":{"ha":870,"x_min":50,"x_max":826,"o":"m 448 332 q 461 216 449 267 q 496 131 473 165 q 552 77 519 96 q 626 58 585 58 q 793 140 715 58 l 793 55 q 612 -16 719 -16 q 492 28 543 -16 q 415 157 441 73 l 413 157 q 215 -16 342 -16 q 145 -2 176 -16 q 93 38 115 12 q 61 100 72 64 q 50 182 50 137 q 99 336 50 281 q 245 399 148 392 l 384 408 q 269 635 384 635 q 98 549 177 635 l 98 642 q 275 711 178 711 q 427 557 393 711 l 429 557 q 617 711 490 711 q 706 687 667 711 q 772 620 745 664 q 812 514 798 576 q 826 374 826 452 l 826 332 l 448 332 m 759 408 q 720 576 756 517 q 617 635 683 635 q 556 620 584 635 q 506 575 528 604 q 470 503 484 545 q 450 408 456 461 l 759 408 m 384 332 l 292 327 q 216 317 249 324 q 161 295 182 311 q 128 253 139 280 q 117 184 117 227 q 124 132 117 155 q 146 92 132 109 q 181 67 161 76 q 227 58 201 58 q 287 76 258 58 q 337 124 316 94 q 371 196 359 155 q 384 283 384 237 l 384 332 m 426 816 l 371 816 l 487 1038 l 555 1038 l 426 816 z "},"Ǿ":{"ha":789,"x_min":45,"x_max":737,"o":"m 391 -17 q 264 13 321 -17 q 164 96 208 43 l 81 -36 l 45 3 l 132 142 q 72 293 92 208 q 52 475 52 378 q 75 684 52 589 q 144 846 98 779 q 255 951 189 913 q 404 989 320 989 q 516 966 465 989 q 608 900 567 943 l 678 1012 l 714 972 l 642 858 q 713 701 688 792 q 737 500 737 609 q 715 295 737 389 q 648 131 692 200 q 540 22 604 62 q 391 -17 475 -17 m 667 486 q 650 653 667 575 q 599 789 633 731 l 206 163 q 285 91 239 117 q 391 65 331 65 q 511 97 459 65 q 597 184 562 128 q 649 317 631 240 q 667 486 667 395 m 397 907 q 280 873 331 907 q 194 782 229 840 q 141 648 159 725 q 122 484 123 571 q 135 338 121 408 q 176 212 149 269 l 566 833 q 492 887 534 868 q 397 907 451 907 m 381 1052 l 326 1052 l 442 1274 l 511 1274 l 381 1052 z "},"ǿ":{"ha":597,"x_min":20,"x_max":589,"o":"m 500 589 q 550 350 550 494 q 532 199 550 267 q 481 84 514 132 q 401 10 448 36 q 297 -16 355 -16 q 135 56 199 -16 l 56 -60 l 20 -14 l 100 105 q 47 341 47 201 q 66 496 47 428 q 118 612 84 565 q 200 685 152 660 q 307 711 248 711 q 467 639 404 711 l 551 763 l 589 718 l 500 589 m 424 577 q 302 635 378 635 q 224 615 259 635 q 165 558 189 595 q 127 466 140 520 q 115 342 115 411 q 146 170 115 241 l 424 577 m 178 117 q 300 58 226 58 q 378 78 345 58 q 435 135 412 98 q 471 225 458 172 q 483 347 483 279 q 454 522 483 450 l 178 117 m 286 816 l 231 816 l 347 1038 l 415 1038 l 286 816 z "},"Ẁ":{"ha":953,"x_min":19,"x_max":933,"o":"m 723 0 l 652 0 l 496 721 q 488 770 491 747 q 484 817 484 794 l 481 817 q 467 722 479 777 l 305 0 l 235 0 l 19 972 l 94 972 l 255 210 q 264 162 261 184 q 269 118 267 139 l 271 118 q 288 210 275 149 l 459 972 l 513 972 l 673 207 q 681 162 677 184 q 686 119 684 140 l 688 119 q 693 149 690 132 q 700 187 696 166 l 859 972 l 933 972 l 723 0 m 492 1052 l 362 1274 l 431 1274 l 547 1052 l 492 1052 z "},"ẁ":{"ha":729,"x_min":15,"x_max":713,"o":"m 554 0 l 489 0 l 379 510 q 371 572 374 534 l 369 572 q 365 547 368 562 q 358 511 363 532 l 237 0 l 173 0 l 15 694 l 85 694 l 199 156 q 206 96 204 132 l 210 96 q 214 123 212 108 q 220 157 216 139 l 347 694 l 400 694 l 513 155 q 521 95 517 132 l 525 95 q 527 122 524 106 q 534 155 530 137 l 648 694 l 713 694 l 554 0 m 374 816 l 244 1038 l 313 1038 l 429 816 l 374 816 z "},"Ẃ":{"ha":953,"x_min":19,"x_max":933,"o":"m 723 0 l 652 0 l 496 721 q 488 770 491 747 q 484 817 484 794 l 481 817 q 467 722 479 777 l 305 0 l 235 0 l 19 972 l 94 972 l 255 210 q 264 162 261 184 q 269 118 267 139 l 271 118 q 288 210 275 149 l 459 972 l 513 972 l 673 207 q 681 162 677 184 q 686 119 684 140 l 688 119 q 693 149 690 132 q 700 187 696 166 l 859 972 l 933 972 l 723 0 m 477 1052 l 422 1052 l 538 1274 l 606 1274 l 477 1052 z "},"ẃ":{"ha":729,"x_min":15,"x_max":713,"o":"m 554 0 l 489 0 l 379 510 q 371 572 374 534 l 369 572 q 365 547 368 562 q 358 511 363 532 l 237 0 l 173 0 l 15 694 l 85 694 l 199 156 q 206 96 204 132 l 210 96 q 214 123 212 108 q 220 157 216 139 l 347 694 l 400 694 l 513 155 q 521 95 517 132 l 525 95 q 527 122 524 106 q 534 155 530 137 l 648 694 l 713 694 l 554 0 m 370 816 l 315 816 l 431 1038 l 500 1038 l 370 816 z "},"Ẅ":{"ha":953,"x_min":19,"x_max":933,"o":"m 723 0 l 652 0 l 496 721 q 488 770 491 747 q 484 817 484 794 l 481 817 q 467 722 479 777 l 305 0 l 235 0 l 19 972 l 94 972 l 255 210 q 264 162 261 184 q 269 118 267 139 l 271 118 q 288 210 275 149 l 459 972 l 513 972 l 673 207 q 681 162 677 184 q 686 119 684 140 l 688 119 q 693 149 690 132 q 700 187 696 166 l 859 972 l 933 972 l 723 0 m 570 1052 q 541 1068 553 1052 q 528 1109 528 1084 q 540 1151 528 1135 q 569 1166 553 1166 q 601 1150 587 1166 q 614 1109 614 1134 q 602 1068 614 1085 q 570 1052 589 1052 m 388 1052 q 371 1056 379 1052 q 357 1068 363 1061 q 348 1087 351 1076 q 344 1109 344 1097 q 357 1151 344 1135 q 387 1166 370 1166 q 404 1162 396 1166 q 418 1150 412 1158 q 428 1132 425 1143 q 431 1109 431 1122 q 419 1068 431 1085 q 388 1052 406 1052 z "},"ẅ":{"ha":729,"x_min":15,"x_max":713,"o":"m 554 0 l 489 0 l 379 510 q 371 572 374 534 l 369 572 q 365 547 368 562 q 358 511 363 532 l 237 0 l 173 0 l 15 694 l 85 694 l 199 156 q 206 96 204 132 l 210 96 q 214 123 212 108 q 220 157 216 139 l 347 694 l 400 694 l 513 155 q 521 95 517 132 l 525 95 q 527 122 524 106 q 534 155 530 137 l 648 694 l 713 694 l 554 0 m 458 816 q 429 832 441 816 q 416 873 416 848 q 428 915 416 899 q 457 930 441 930 q 489 914 475 930 q 502 873 502 898 q 490 832 502 849 q 458 816 477 816 m 276 816 q 259 820 267 816 q 245 832 252 825 q 236 851 239 840 q 232 873 232 861 q 245 915 232 899 q 275 930 258 930 q 292 926 284 930 q 307 914 300 922 q 316 896 313 907 q 319 873 319 886 q 307 832 319 849 q 276 816 294 816 z "},"Ỳ":{"ha":569,"x_min":17,"x_max":552,"o":"m 314 364 l 314 0 l 246 0 l 246 362 l 17 972 l 94 972 l 261 518 q 269 494 264 510 q 281 452 274 477 l 283 452 q 291 481 286 465 q 305 517 297 497 l 479 972 l 552 972 l 314 364 m 284 1052 l 155 1274 l 224 1274 l 339 1052 l 284 1052 z "},"ỳ":{"ha":488,"x_min":9,"x_max":481,"o":"m 235 -126 q 164 -277 204 -228 q 68 -326 125 -326 q 21 -317 41 -326 l 21 -236 q 44 -244 33 -241 q 67 -247 56 -247 q 123 -220 99 -247 q 163 -139 146 -193 l 209 3 l 9 694 l 81 694 l 230 144 q 236 120 233 134 q 241 92 239 106 l 243 92 q 249 116 246 104 q 255 142 251 127 l 413 694 l 481 694 l 235 -126 m 239 816 l 110 1038 l 179 1038 l 294 816 l 239 816 z "},"‛":{"ha":231,"x_min":52,"x_max":176,"o":"m 52 981 l 117 981 l 176 677 l 128 677 l 52 981 z "},"‾":{"ha":432,"x_min":0,"x_max":432,"o":"m 432 947 l 0 947 l 0 1028 l 432 1028 l 432 947 z "},"₤":{"ha":549,"x_min":47,"x_max":497,"o":"m 231 610 l 389 610 l 389 532 l 231 532 l 231 423 l 389 423 l 389 345 l 231 345 l 231 327 q 127 76 231 144 l 497 76 l 497 0 l 47 0 l 47 75 q 165 304 165 134 l 165 345 l 58 345 l 58 423 l 165 423 l 165 532 l 58 532 l 58 610 l 165 610 l 165 703 q 179 818 165 766 q 218 909 193 871 q 279 968 243 947 q 357 989 314 989 q 458 963 412 989 l 458 878 q 357 913 410 913 q 263 857 295 913 q 231 692 231 802 l 231 610 z "},"℮":{"ha":625,"x_min":43,"x_max":582,"o":"m 161 359 l 161 109 q 312 26 222 26 q 513 193 441 26 l 549 164 q 504 88 528 123 q 453 28 481 54 q 391 -10 425 3 q 312 -24 357 -24 q 201 5 251 -24 q 117 85 152 34 q 62 207 81 136 q 43 359 43 277 q 61 506 43 437 q 112 628 78 576 q 196 712 146 681 q 310 743 245 743 q 423 714 374 743 q 507 633 473 685 q 561 512 542 582 q 582 359 580 441 l 161 359 m 464 410 l 464 611 q 310 694 397 694 q 161 611 220 694 l 161 410 l 464 410 z "},"⅛":{"ha":861,"x_min":60,"x_max":797,"o":"m 313 396 l 65 396 l 65 462 l 162 462 l 162 895 l 60 852 l 60 924 l 217 989 l 217 462 l 313 462 l 313 396 m 252 0 l 205 0 l 534 972 l 579 972 l 252 0 m 739 148 q 646 273 739 231 q 581 223 603 253 q 558 151 558 194 q 565 110 558 127 q 585 80 572 92 q 614 62 597 68 q 648 56 630 56 q 682 63 666 56 q 711 81 699 69 q 732 110 724 92 q 739 148 739 127 m 725 441 q 705 502 725 481 q 651 523 685 523 q 621 517 635 523 q 596 500 607 511 q 580 475 586 490 q 574 442 574 460 q 594 382 574 407 q 649 338 613 357 q 706 382 686 358 q 725 441 725 407 m 797 153 q 785 81 797 112 q 752 29 773 50 q 704 -2 731 8 q 644 -12 676 -12 q 591 -2 617 -12 q 545 27 565 7 q 512 77 525 47 q 500 147 500 106 q 523 240 500 201 q 588 305 545 279 q 534 362 553 329 q 515 441 515 395 q 526 505 515 477 q 556 552 537 533 q 599 582 574 572 q 653 591 624 591 q 704 582 680 591 q 745 553 727 572 q 773 509 763 535 q 783 449 783 482 q 763 363 783 398 q 707 305 743 329 q 773 244 750 281 q 797 153 797 208 z "},"⅜":{"ha":861,"x_min":46,"x_max":797,"o":"m 300 555 q 289 485 300 517 q 259 430 279 453 q 212 393 239 406 q 149 380 184 380 q 46 414 87 380 l 46 495 q 151 448 98 448 q 219 476 195 448 q 243 553 243 505 q 128 658 243 658 l 89 658 l 89 725 l 125 725 q 230 829 230 725 q 154 916 230 916 q 63 874 111 916 l 63 952 q 165 985 110 985 q 215 975 193 985 q 253 945 237 964 q 277 900 269 926 q 285 842 285 873 q 211 699 285 735 l 211 696 q 277 646 255 683 q 300 555 300 610 m 252 0 l 205 0 l 534 972 l 579 972 l 252 0 m 739 148 q 646 273 739 231 q 581 223 603 253 q 558 151 558 194 q 565 110 558 127 q 585 80 572 92 q 614 62 597 68 q 648 56 630 56 q 682 63 666 56 q 711 81 699 69 q 732 110 724 92 q 739 148 739 127 m 725 441 q 705 502 725 481 q 651 523 685 523 q 621 517 635 523 q 596 500 607 511 q 580 475 586 490 q 574 442 574 460 q 594 382 574 407 q 649 338 613 357 q 706 382 686 358 q 725 441 725 407 m 797 153 q 785 81 797 112 q 752 29 773 50 q 704 -2 731 8 q 644 -12 676 -12 q 591 -2 617 -12 q 545 27 565 7 q 512 77 525 47 q 500 147 500 106 q 523 240 500 201 q 588 305 545 279 q 534 362 553 329 q 515 441 515 395 q 526 505 515 477 q 556 552 537 533 q 599 582 574 572 q 653 591 624 591 q 704 582 680 591 q 745 553 727 572 q 773 509 763 535 q 783 449 783 482 q 763 363 783 398 q 707 305 743 329 q 773 244 750 281 q 797 153 797 208 z "},"⅝":{"ha":861,"x_min":47,"x_max":797,"o":"m 304 574 q 292 493 304 529 q 259 432 280 457 q 208 394 237 407 q 143 380 178 380 q 47 410 85 380 l 47 488 q 99 457 75 467 q 144 448 123 448 q 186 456 168 448 q 219 481 205 465 q 239 520 232 498 q 247 570 247 543 q 136 680 247 680 q 117 679 127 680 q 96 677 106 678 q 77 676 86 677 q 61 673 68 675 l 61 974 l 283 974 l 283 903 l 114 903 l 114 746 q 147 748 131 748 q 212 736 183 748 q 261 703 240 725 q 293 648 281 681 q 304 574 304 616 m 252 0 l 205 0 l 534 972 l 579 972 l 252 0 m 739 148 q 646 273 739 231 q 581 223 603 253 q 558 151 558 194 q 565 110 558 127 q 585 80 572 92 q 614 62 597 68 q 648 56 630 56 q 682 63 666 56 q 711 81 699 69 q 732 110 724 92 q 739 148 739 127 m 725 441 q 705 502 725 481 q 651 523 685 523 q 621 517 635 523 q 596 500 607 511 q 580 475 586 490 q 574 442 574 460 q 594 382 574 407 q 649 338 613 357 q 706 382 686 358 q 725 441 725 407 m 797 153 q 785 81 797 112 q 752 29 773 50 q 704 -2 731 8 q 644 -12 676 -12 q 591 -2 617 -12 q 545 27 565 7 q 512 77 525 47 q 500 147 500 106 q 523 240 500 201 q 588 305 545 279 q 534 362 553 329 q 515 441 515 395 q 526 505 515 477 q 556 552 537 533 q 599 582 574 572 q 653 591 624 591 q 704 582 680 591 q 745 553 727 572 q 773 509 763 535 q 783 449 783 482 q 763 363 783 398 q 707 305 743 329 q 773 244 750 281 q 797 153 797 208 z "},"⅞":{"ha":825,"x_min":27,"x_max":761,"o":"m 144 392 l 85 392 l 252 908 l 27 908 l 27 976 l 319 976 l 319 939 l 144 392 m 201 0 l 155 0 l 483 972 l 528 972 l 201 0 m 703 148 q 610 273 703 231 q 545 223 567 253 q 522 151 522 194 q 529 110 522 127 q 549 80 536 92 q 578 62 562 68 q 612 56 594 56 q 646 63 630 56 q 675 81 663 69 q 696 110 688 92 q 703 148 703 127 m 689 441 q 669 502 689 481 q 615 523 649 523 q 585 517 599 523 q 561 500 571 511 q 544 475 550 490 q 538 442 538 460 q 558 382 538 407 q 613 338 577 357 q 670 382 650 358 q 689 441 689 407 m 761 153 q 749 81 761 112 q 716 29 737 50 q 668 -2 695 8 q 608 -12 640 -12 q 555 -2 581 -12 q 509 27 529 7 q 476 77 489 47 q 464 147 464 106 q 487 240 464 201 q 552 305 509 279 q 498 362 517 329 q 479 441 479 395 q 490 505 479 477 q 520 552 501 533 q 563 582 538 572 q 617 591 588 591 q 668 582 644 591 q 709 553 691 572 q 737 509 727 535 q 747 449 747 482 q 727 363 747 398 q 671 305 707 329 q 738 244 714 281 q 761 153 761 208 z "},"΄":{"ha":283,"x_min":94,"x_max":212,"o":"m 131 800 l 94 800 l 143 1048 l 212 1048 l 131 800 z "},"΅":{"ha":290,"x_min":-9,"x_max":311,"o":"m 311 894 q 298 853 311 869 q 267 836 286 836 q 252 840 259 836 q 238 852 244 844 q 228 870 232 860 q 224 894 224 881 q 228 917 224 907 q 238 935 232 928 q 251 947 243 943 q 267 951 259 951 q 298 935 285 951 q 311 894 311 918 m 145 806 l 109 806 l 157 1055 l 227 1055 l 145 806 m 77 894 q 64 853 77 869 q 33 836 52 836 q 17 840 25 836 q 3 852 9 844 q -6 870 -3 860 q -9 894 -9 881 q -6 917 -9 907 q 3 935 -3 928 q 17 947 9 943 q 33 951 24 951 q 50 946 41 951 q 64 935 58 942 q 74 917 70 927 q 77 894 77 906 z "},"Ά":{"ha":663,"x_min":20,"x_max":642,"o":"m 567 0 l 487 288 l 174 288 l 96 0 l 20 0 l 298 972 l 366 972 l 642 0 l 567 0 m 345 802 q 337 832 341 815 q 331 871 334 849 l 329 871 q 322 832 326 849 q 315 802 318 815 l 197 370 l 464 370 l 345 802 m 83 726 l 46 726 l 95 974 l 164 974 l 83 726 z "},"Έ":{"ha":583,"x_min":-22,"x_max":526,"o":"m 153 0 l 153 972 l 509 972 l 509 890 l 221 890 l 221 533 l 488 533 l 488 452 l 221 452 l 221 82 l 526 82 l 526 0 l 153 0 m 14 726 l -22 726 l 26 974 l 96 974 l 14 726 z "},"Ή":{"ha":782,"x_min":-22,"x_max":686,"o":"m 619 0 l 619 455 l 221 455 l 221 0 l 153 0 l 153 972 l 221 972 l 221 536 l 619 536 l 619 972 l 686 972 l 686 0 l 619 0 m 14 726 l -22 726 l 26 974 l 96 974 l 14 726 z "},"Ί":{"ha":359,"x_min":-22,"x_max":265,"o":"m 265 0 l 197 0 l 197 972 l 265 972 l 265 0 m 14 726 l -22 726 l 26 974 l 96 974 l 14 726 z "},"Ό":{"ha":839,"x_min":-9,"x_max":789,"o":"m 443 -17 q 301 21 364 -17 q 194 126 238 60 q 126 282 150 193 q 103 475 103 372 q 126 684 103 589 q 195 846 150 779 q 306 951 241 913 q 456 989 372 989 q 595 952 533 989 q 700 849 656 915 q 766 694 743 784 q 789 500 789 605 q 766 295 789 389 q 700 131 744 200 q 591 22 656 62 q 443 -17 527 -17 m 449 907 q 331 873 382 907 q 245 782 280 840 q 192 648 210 725 q 174 484 174 571 q 190 326 173 401 q 239 192 206 250 q 323 100 273 134 q 443 65 374 65 q 562 97 511 65 q 648 184 614 128 q 701 317 683 240 q 718 486 718 395 q 703 648 718 572 q 654 782 687 725 q 571 873 622 840 q 449 907 520 907 m 27 726 l -9 726 l 39 974 l 109 974 l 27 726 z "},"Ύ":{"ha":654,"x_min":-43,"x_max":640,"o":"m 401 364 l 401 0 l 334 0 l 334 362 l 104 972 l 182 972 l 349 518 q 356 494 351 510 q 369 452 361 477 l 370 452 q 379 481 373 465 q 393 517 385 497 l 567 972 l 640 972 l 401 364 m -6 726 l -43 726 l 6 974 l 75 974 l -6 726 z "},"Ώ":{"ha":849,"x_min":-9,"x_max":800,"o":"m 547 0 l 547 80 q 616 160 583 116 q 674 260 649 205 q 715 381 700 315 q 730 527 730 448 q 710 686 730 616 q 654 806 690 757 q 570 882 618 855 q 462 908 521 908 q 349 881 400 908 q 262 804 298 854 q 206 684 226 754 q 186 528 186 614 q 200 386 186 451 q 239 265 214 320 q 298 164 264 210 q 370 80 332 118 l 370 0 l 116 0 l 116 80 l 294 80 q 226 158 258 113 q 169 258 194 202 q 130 382 144 314 q 116 530 116 450 q 141 721 116 636 q 211 865 166 806 q 319 957 256 925 q 457 989 382 989 q 596 958 533 989 q 704 869 659 928 q 774 726 749 810 q 800 532 800 641 q 786 390 800 456 q 749 267 773 323 q 692 163 725 210 q 622 81 660 117 l 800 81 l 800 0 l 547 0 m 28 726 l -9 726 l 40 974 l 109 974 l 28 726 z "},"ΐ":{"ha":271,"x_min":-28,"x_max":292,"o":"m 248 4 q 221 -5 235 -2 q 197 -8 208 -8 q 111 39 138 -8 q 84 172 84 85 l 84 694 l 149 694 l 149 174 q 154 123 149 143 q 167 91 159 102 q 186 74 176 79 q 207 69 196 69 q 229 72 219 69 q 248 79 239 74 l 248 4 m 292 894 q 279 853 292 869 q 248 836 267 836 q 233 840 240 836 q 219 852 225 844 q 209 870 213 860 q 205 894 205 881 q 209 917 205 907 q 219 935 213 928 q 232 947 224 943 q 248 951 240 951 q 279 935 266 951 q 292 894 292 918 m 126 806 l 90 806 l 138 1055 l 208 1055 l 126 806 m 58 894 q 45 853 58 869 q 14 836 33 836 q -2 840 6 836 q -16 852 -9 844 q -25 870 -22 860 q -28 894 -28 881 q -25 917 -28 907 q -16 935 -22 928 q -2 947 -10 943 q 14 951 5 951 q 31 946 22 951 q 45 935 39 942 q 55 917 51 927 q 58 894 58 906 z "},"Α":{"ha":663,"x_min":20,"x_max":642,"o":"m 567 0 l 487 288 l 174 288 l 96 0 l 20 0 l 298 972 l 366 972 l 642 0 l 567 0 m 345 802 q 337 832 341 815 q 331 871 334 849 l 329 871 q 322 832 326 849 q 315 802 318 815 l 197 370 l 464 370 l 345 802 z "},"Β":{"ha":582,"x_min":94,"x_max":526,"o":"m 94 0 l 94 972 l 294 972 q 375 956 339 972 q 437 910 412 940 q 477 840 463 881 q 491 749 491 798 q 482 670 491 707 q 457 603 473 633 q 417 551 441 573 q 363 516 393 529 l 363 513 q 430 490 400 509 q 482 440 460 471 q 515 369 503 410 q 526 279 526 328 q 510 166 526 217 q 463 78 493 115 q 390 20 432 41 q 298 0 349 0 l 94 0 m 162 890 l 162 545 l 257 545 q 324 557 294 545 q 375 595 354 570 q 408 654 397 619 q 420 732 420 688 q 272 890 420 890 l 162 890 m 162 463 l 162 82 l 288 82 q 412 133 369 82 q 456 276 456 183 q 265 463 456 463 l 162 463 z "},"Ε":{"ha":524,"x_min":94,"x_max":467,"o":"m 94 0 l 94 972 l 450 972 l 450 890 l 162 890 l 162 533 l 429 533 l 429 452 l 162 452 l 162 82 l 467 82 l 467 0 l 94 0 z "},"Ζ":{"ha":593,"x_min":25,"x_max":562,"o":"m 127 82 l 553 82 l 553 0 l 25 0 l 25 26 l 458 890 l 60 890 l 60 972 l 562 972 l 562 949 l 127 82 z "},"Η":{"ha":722,"x_min":94,"x_max":627,"o":"m 560 0 l 560 455 l 162 455 l 162 0 l 94 0 l 94 972 l 162 972 l 162 536 l 560 536 l 560 972 l 627 972 l 627 0 l 560 0 z "},"Ι":{"ha":257,"x_min":94,"x_max":162,"o":"m 162 0 l 94 0 l 94 972 l 162 972 l 162 0 z "},"Κ":{"ha":576,"x_min":94,"x_max":571,"o":"m 477 0 l 180 455 q 164 483 168 475 l 162 483 l 162 0 l 94 0 l 94 972 l 162 972 l 162 515 l 164 515 q 172 529 168 522 q 180 543 176 536 l 465 972 l 550 972 l 234 503 l 571 0 l 477 0 z "},"Λ":{"ha":655,"x_min":21,"x_max":633,"o":"m 558 0 l 343 797 q 334 835 338 817 q 328 873 331 853 l 326 873 q 310 797 320 836 l 94 0 l 21 0 l 292 972 l 365 972 l 633 0 l 558 0 z "},"Μ":{"ha":901,"x_min":94,"x_max":806,"o":"m 740 0 l 740 671 q 746 838 740 723 l 744 838 q 731 785 737 807 q 720 748 725 762 l 466 0 l 437 0 l 182 743 q 159 839 171 777 l 157 839 q 160 768 159 808 q 161 679 161 728 l 161 0 l 94 0 l 94 972 l 174 972 l 422 241 q 437 194 430 218 q 450 143 444 170 l 454 143 q 467 193 460 170 q 481 241 473 215 l 731 972 l 806 972 l 806 0 l 740 0 z "},"Ν":{"ha":759,"x_min":94,"x_max":664,"o":"m 594 0 l 189 781 q 174 811 182 795 q 162 842 167 827 l 159 842 q 161 808 161 829 q 162 753 162 786 l 162 0 l 94 0 l 94 972 l 170 972 l 568 201 q 584 167 576 183 q 597 138 591 151 l 600 138 q 597 188 598 160 q 596 250 596 216 l 596 972 l 664 972 l 664 0 l 594 0 z "},"Ξ":{"ha":531,"x_min":32,"x_max":499,"o":"m 45 890 l 45 972 l 485 972 l 485 890 l 45 890 m 118 450 l 118 531 l 413 531 l 413 450 l 118 450 m 32 0 l 32 85 l 499 85 l 499 0 l 32 0 z "},"Ο":{"ha":789,"x_min":52,"x_max":737,"o":"m 391 -17 q 250 21 313 -17 q 142 126 186 60 q 75 282 98 193 q 52 475 52 372 q 75 684 52 589 q 144 846 98 779 q 255 951 189 913 q 404 989 320 989 q 543 952 481 989 q 648 849 605 915 q 714 694 691 784 q 737 500 737 605 q 715 295 737 389 q 648 131 692 200 q 540 22 604 62 q 391 -17 475 -17 m 397 907 q 280 873 331 907 q 194 782 229 840 q 141 648 159 725 q 122 484 123 571 q 138 326 121 401 q 188 192 155 250 q 272 100 221 134 q 391 65 323 65 q 511 97 459 65 q 597 184 562 128 q 649 317 631 240 q 667 486 667 395 q 651 648 667 572 q 603 782 635 725 q 519 873 570 840 q 397 907 469 907 z "},"Π":{"ha":732,"x_min":94,"x_max":637,"o":"m 570 0 l 570 888 l 163 888 l 163 0 l 94 0 l 94 972 l 637 972 l 637 0 l 570 0 z "},"Ρ":{"ha":574,"x_min":94,"x_max":522,"o":"m 162 378 l 162 0 l 94 0 l 94 972 l 283 972 q 385 954 340 972 q 459 899 429 935 q 506 810 490 863 q 522 691 522 758 q 504 566 522 623 q 452 467 486 509 q 371 402 419 425 q 263 378 323 378 l 162 378 m 162 890 l 162 461 l 259 461 q 401 519 353 461 q 450 684 450 578 q 271 890 450 890 l 162 890 z "},"Σ":{"ha":538,"x_min":16,"x_max":510,"o":"m 16 0 l 16 38 l 273 501 l 47 926 l 47 972 l 483 972 l 483 890 l 148 890 l 354 504 l 121 82 l 510 82 l 510 0 l 16 0 z "},"Τ":{"ha":539,"x_min":25,"x_max":513,"o":"m 303 890 l 303 0 l 235 0 l 235 890 l 25 890 l 25 972 l 513 972 l 513 890 l 303 890 z "},"Υ":{"ha":569,"x_min":17,"x_max":552,"o":"m 314 364 l 314 0 l 246 0 l 246 362 l 17 972 l 94 972 l 261 518 q 269 494 264 510 q 281 452 274 477 l 283 452 q 291 481 286 465 q 305 517 297 497 l 479 972 l 552 972 l 314 364 z "},"Χ":{"ha":600,"x_min":22,"x_max":574,"o":"m 492 0 l 324 372 q 312 400 318 385 q 302 429 306 415 l 300 429 q 289 401 294 416 q 277 372 283 387 l 104 0 l 22 0 l 259 490 l 39 972 l 121 972 l 277 618 q 291 586 284 603 q 304 552 297 570 l 306 552 q 319 589 313 572 q 333 620 326 606 l 492 972 l 570 972 l 347 491 l 574 0 l 492 0 z "},"Ψ":{"ha":808,"x_min":70,"x_max":738,"o":"m 436 352 l 474 352 q 620 418 568 352 q 671 618 671 485 l 671 972 l 738 972 l 738 616 q 720 481 738 544 q 669 371 703 418 q 586 298 635 325 q 474 271 536 271 l 436 271 l 436 0 l 372 0 l 372 271 l 334 271 q 221 298 271 271 q 139 372 172 325 q 87 481 105 418 q 70 616 70 544 l 70 972 l 137 972 l 137 618 q 149 507 137 556 q 186 423 161 457 q 247 370 210 389 q 334 352 284 352 l 372 352 l 372 972 l 436 972 l 436 352 z "},"Ω":{"ha":786,"x_min":52,"x_max":735,"o":"m 482 0 l 482 80 q 551 160 518 116 q 610 260 585 205 q 650 381 635 315 q 665 527 665 448 q 645 686 665 616 q 590 806 625 757 q 505 882 554 855 q 397 908 456 908 q 285 881 336 908 q 198 804 234 854 q 141 684 161 754 q 121 528 121 614 q 136 386 121 451 q 175 265 150 320 q 234 164 200 210 q 306 80 267 118 l 306 0 l 52 0 l 52 80 l 230 80 q 162 158 194 113 q 105 258 130 202 q 66 382 80 314 q 52 530 52 450 q 77 721 52 636 q 147 865 102 806 q 255 957 192 925 q 393 989 317 989 q 532 958 469 989 q 640 869 595 928 q 710 726 685 810 q 735 532 735 641 q 722 390 735 456 q 685 267 709 323 q 628 163 661 210 q 557 81 595 117 l 735 81 l 735 0 l 482 0 z "},"Ϊ":{"ha":257,"x_min":-5,"x_max":264,"o":"m 162 0 l 94 0 l 94 972 l 162 972 l 162 0 m 221 1052 q 191 1068 204 1052 q 178 1109 178 1084 q 191 1151 178 1135 q 220 1166 203 1166 q 251 1150 238 1166 q 264 1109 264 1134 q 252 1068 264 1085 q 221 1052 240 1052 m 39 1052 q 22 1056 30 1052 q 8 1068 14 1061 q -2 1087 2 1076 q -5 1109 -5 1097 q 7 1151 -5 1135 q 37 1166 20 1166 q 55 1162 47 1166 q 69 1150 63 1158 q 79 1132 75 1143 q 82 1109 82 1122 q 70 1068 82 1085 q 39 1052 57 1052 z "},"Ϋ":{"ha":569,"x_min":17,"x_max":552,"o":"m 314 364 l 314 0 l 246 0 l 246 362 l 17 972 l 94 972 l 261 518 q 269 494 264 510 q 281 452 274 477 l 283 452 q 291 481 286 465 q 305 517 297 497 l 479 972 l 552 972 l 314 364 m 374 1052 q 345 1068 357 1052 q 332 1109 332 1084 q 344 1151 332 1135 q 373 1166 357 1166 q 405 1150 391 1166 q 418 1109 418 1134 q 406 1068 418 1085 q 374 1052 393 1052 m 192 1052 q 175 1056 183 1052 q 161 1068 168 1061 q 152 1087 155 1076 q 148 1109 148 1097 q 161 1151 148 1135 q 191 1166 174 1166 q 208 1162 200 1166 q 222 1150 216 1158 q 232 1132 229 1143 q 235 1109 235 1122 q 223 1068 235 1085 q 192 1052 210 1052 z "},"ά":{"ha":631,"x_min":45,"x_max":613,"o":"m 446 347 q 420 464 435 410 q 387 555 406 517 q 342 615 368 593 q 282 636 317 636 q 211 613 243 636 q 158 549 180 590 q 124 452 136 508 q 113 329 113 395 q 123 220 113 269 q 153 135 134 170 q 199 80 172 100 q 260 60 227 60 q 353 115 313 60 q 424 267 393 170 l 446 347 m 567 -7 q 534 7 548 -7 q 507 48 519 20 q 485 119 495 76 q 467 219 475 161 l 465 219 q 421 114 444 158 q 372 40 398 69 q 315 -2 345 12 q 249 -16 284 -16 q 166 9 203 -16 q 101 79 128 34 q 60 186 75 123 q 45 323 45 248 q 62 479 45 408 q 108 602 78 551 q 182 682 138 653 q 281 711 226 711 q 352 692 321 711 q 407 640 383 673 q 447 565 430 608 q 476 473 464 522 l 477 473 l 534 694 l 604 694 l 503 348 q 528 206 517 260 q 548 122 538 152 q 567 83 557 93 q 589 74 576 74 q 601 75 595 74 q 613 79 607 77 l 613 2 q 592 -4 601 -2 q 567 -7 583 -7 m 302 800 l 265 800 l 314 1048 l 383 1048 l 302 800 z "},"έ":{"ha":456,"x_min":41,"x_max":420,"o":"m 420 17 q 386 3 406 9 q 346 -7 367 -3 q 301 -15 324 -12 q 256 -17 278 -17 q 163 -2 203 -17 q 96 40 123 14 q 55 104 68 67 q 41 186 41 142 q 52 251 41 222 q 80 303 62 281 q 122 340 98 326 q 174 361 146 355 l 174 364 q 132 383 152 370 q 96 417 112 397 q 71 464 81 437 q 62 520 62 490 q 77 606 62 570 q 120 666 93 642 q 183 700 147 689 q 259 711 218 711 q 295 709 277 711 q 332 702 314 706 q 367 691 350 697 q 397 679 383 686 l 397 591 q 328 623 366 611 q 256 635 291 635 q 159 606 191 635 q 128 520 128 577 q 143 462 128 486 q 181 424 157 438 q 234 402 205 409 q 292 396 263 396 q 324 396 307 396 q 352 398 341 397 l 352 319 q 323 320 342 320 q 281 321 304 321 q 152 288 195 321 q 109 187 109 256 q 118 136 109 159 q 146 95 127 113 q 195 68 165 78 q 263 58 224 58 q 346 72 304 58 q 420 106 387 85 l 420 17 m 252 800 l 216 800 l 264 1048 l 334 1048 l 252 800 z "},"ή":{"ha":573,"x_min":68,"x_max":500,"o":"m 435 -281 l 435 392 q 428 495 435 450 q 405 569 420 539 q 365 615 389 600 q 305 631 340 631 q 240 612 269 631 q 191 561 211 593 q 159 488 170 529 q 149 402 149 446 l 149 0 l 84 0 l 84 477 q 83 538 84 507 q 80 596 82 568 q 75 650 78 625 q 68 694 72 675 l 134 694 q 143 637 139 672 q 146 570 146 603 l 149 570 q 184 638 164 611 q 228 682 205 665 q 275 704 251 698 q 324 711 300 711 q 456 638 412 711 q 500 428 500 566 l 500 -281 l 435 -281 m 296 800 l 259 800 l 308 1048 l 377 1048 l 296 800 z "},"ί":{"ha":271,"x_min":84,"x_max":248,"o":"m 248 4 q 221 -5 235 -2 q 197 -8 208 -8 q 111 39 138 -8 q 84 172 84 85 l 84 694 l 149 694 l 149 174 q 154 123 149 143 q 167 91 159 102 q 186 74 176 79 q 207 69 196 69 q 229 72 219 69 q 248 79 239 74 l 248 4 m 122 800 l 85 800 l 134 1048 l 203 1048 l 122 800 z "},"ΰ":{"ha":584,"x_min":14,"x_max":530,"o":"m 58 699 q 106 681 88 699 q 134 634 125 663 q 146 566 143 604 q 149 484 149 527 l 149 311 q 190 122 149 184 q 307 60 231 60 q 370 77 341 60 q 420 125 399 93 q 453 205 441 157 q 465 315 465 252 q 446 511 465 414 q 393 694 428 607 l 465 694 q 513 518 496 613 q 530 320 530 423 q 514 178 530 241 q 469 72 498 115 q 398 6 439 28 q 307 -17 357 -17 q 210 5 252 -17 q 140 67 168 26 q 99 165 113 108 q 85 295 85 223 l 85 510 q 74 596 85 570 q 41 622 64 622 q 14 617 28 622 l 14 690 q 36 696 24 694 q 58 699 47 699 m 444 894 q 431 853 444 869 q 400 836 418 836 q 385 840 392 836 q 371 852 377 844 q 361 870 365 860 q 357 894 357 881 q 361 917 357 907 q 371 935 365 928 q 384 947 376 943 q 399 951 392 951 q 431 935 418 951 q 444 894 444 918 m 278 806 l 241 806 l 290 1055 l 359 1055 l 278 806 m 210 894 q 197 853 210 869 q 166 836 184 836 q 150 840 158 836 q 136 852 142 844 q 127 870 130 860 q 123 894 123 881 q 127 917 123 907 q 136 935 130 928 q 150 947 142 943 q 165 951 157 951 q 182 946 174 951 q 197 935 191 942 q 207 917 203 927 q 210 894 210 906 z "},"β":{"ha":555,"x_min":84,"x_max":513,"o":"m 513 270 q 498 156 513 208 q 456 65 484 103 q 389 5 428 26 q 300 -17 349 -17 q 217 0 255 -17 q 149 40 179 16 l 149 -297 l 84 -297 l 84 756 q 99 875 84 823 q 140 964 113 928 q 203 1020 166 1000 q 283 1039 240 1039 q 358 1023 325 1039 q 415 976 391 1006 q 450 904 438 946 q 463 810 463 862 q 453 729 463 768 q 425 657 443 690 q 381 598 406 624 q 325 558 355 573 l 325 555 q 406 517 371 543 q 465 454 441 491 q 501 371 489 418 q 513 270 513 324 m 446 264 q 434 354 446 313 q 398 427 422 395 q 335 481 373 459 q 244 513 297 503 l 244 585 q 304 611 277 592 q 353 657 332 629 q 385 721 373 685 q 396 798 396 756 q 389 866 396 836 q 368 918 382 896 q 332 951 354 939 q 281 963 310 963 q 227 949 251 963 q 185 909 202 936 q 158 841 168 882 q 149 746 149 800 l 149 125 q 219 78 182 98 q 298 59 257 59 q 360 73 332 59 q 407 113 387 87 q 436 177 426 139 q 446 264 446 215 z "},"γ":{"ha":541,"x_min":9,"x_max":505,"o":"m 505 646 q 495 504 505 572 q 469 375 486 436 q 430 258 452 313 q 384 151 408 202 q 333 51 359 99 q 282 -43 307 3 q 282 -128 282 -86 q 282 -207 282 -170 q 281 -274 281 -243 q 280 -326 281 -305 l 210 -326 q 213 -258 212 -296 q 215 -177 214 -220 q 215 -88 215 -134 q 216 5 216 -42 q 184 164 205 76 q 136 344 163 252 q 75 527 108 437 q 9 694 43 618 l 85 694 q 149 530 121 610 q 200 373 178 450 q 240 222 222 296 q 271 73 257 147 l 273 73 q 395 357 353 223 q 438 618 438 490 q 437 656 438 638 q 435 694 437 675 l 503 694 q 504 668 503 680 q 505 646 505 656 z "},"ζ":{"ha":460,"x_min":39,"x_max":455,"o":"m 455 -99 q 446 -160 455 -134 q 423 -210 437 -186 l 355 -210 q 383 -164 373 -185 q 393 -116 393 -142 q 386 -75 393 -93 q 362 -43 379 -57 q 316 -19 345 -29 q 245 -3 288 -9 q 93 90 147 14 q 39 302 39 165 q 61 466 39 385 q 124 628 83 547 q 223 789 165 709 q 355 951 281 870 l 355 954 l 120 954 l 120 1028 l 427 1028 l 427 954 q 307 802 365 882 q 204 639 249 722 q 133 472 160 556 q 106 305 106 387 q 117 217 106 255 q 146 153 127 180 q 196 109 166 125 q 265 83 225 92 q 343 60 308 73 q 403 25 378 46 q 441 -26 428 4 q 455 -99 455 -56 z "},"η":{"ha":573,"x_min":68,"x_max":500,"o":"m 435 -281 l 435 392 q 428 495 435 450 q 405 569 420 539 q 365 615 389 600 q 305 631 340 631 q 240 612 269 631 q 191 561 211 593 q 159 488 170 529 q 149 402 149 446 l 149 0 l 84 0 l 84 477 q 83 538 84 507 q 80 596 82 568 q 75 650 78 625 q 68 694 72 675 l 134 694 q 143 637 139 672 q 146 570 146 603 l 149 570 q 184 638 164 611 q 228 682 205 665 q 275 704 251 698 q 324 711 300 711 q 456 638 412 711 q 500 428 500 566 l 500 -281 l 435 -281 z "},"θ":{"ha":597,"x_min":47,"x_max":549,"o":"m 549 521 q 532 292 549 392 q 483 123 515 192 q 402 19 450 55 q 294 -16 355 -16 q 191 18 236 -16 q 113 119 145 53 q 64 282 81 185 q 47 503 47 378 q 64 731 47 631 q 114 901 81 831 q 196 1006 147 970 q 310 1042 245 1042 q 416 1008 371 1042 q 491 906 461 973 q 535 743 520 840 q 549 521 549 646 m 482 559 q 471 723 481 648 q 439 852 460 798 q 384 936 418 906 q 302 966 351 966 q 223 935 258 966 q 165 847 189 903 q 129 718 141 792 q 115 559 116 644 l 482 559 m 115 486 q 128 298 115 378 q 166 164 142 218 q 224 85 190 111 q 300 59 258 59 q 374 86 340 59 q 431 168 408 114 q 469 301 455 222 q 483 486 482 381 l 115 486 z "},"ι":{"ha":271,"x_min":84,"x_max":248,"o":"m 248 4 q 221 -5 235 -2 q 197 -8 208 -8 q 111 39 138 -8 q 84 172 84 85 l 84 694 l 149 694 l 149 174 q 154 123 149 143 q 167 91 159 102 q 186 74 176 79 q 207 69 196 69 q 229 72 219 69 q 248 79 239 74 l 248 4 z "},"κ":{"ha":546,"x_min":84,"x_max":513,"o":"m 431 0 l 233 351 l 149 234 l 149 0 l 84 0 l 84 694 l 149 694 l 149 329 l 306 569 q 333 610 318 587 q 366 654 349 633 q 402 689 383 675 q 442 703 422 703 q 463 703 452 703 q 481 699 474 702 l 481 622 q 467 625 474 625 q 452 626 460 626 q 406 597 432 626 q 343 513 379 568 l 277 414 l 513 0 l 431 0 z "},"λ":{"ha":519,"x_min":9,"x_max":500,"o":"m 430 0 l 273 593 l 80 0 l 9 0 l 243 693 l 208 831 q 193 879 201 857 q 173 917 184 901 q 147 942 161 933 q 115 951 133 951 q 89 949 102 951 q 60 941 75 946 l 60 1023 q 89 1029 75 1027 q 117 1031 103 1031 q 176 1016 152 1031 q 220 971 201 1001 q 254 895 239 941 q 286 789 270 850 l 500 0 l 430 0 z "},"μ":{"ha":588,"x_min":84,"x_max":564,"o":"m 433 121 q 369 19 409 54 q 275 -16 329 -16 q 232 -10 251 -16 q 197 7 212 -4 q 171 34 182 18 q 151 68 160 50 l 149 68 l 149 -297 l 84 -297 l 84 694 l 149 694 l 149 322 q 151 248 149 285 q 161 175 152 209 q 185 116 170 141 q 226 76 201 91 q 283 62 250 62 q 340 78 314 62 q 386 126 366 95 q 416 202 405 157 q 427 304 427 247 l 427 694 l 492 694 l 492 180 q 505 96 492 121 q 542 71 517 71 q 564 75 553 71 l 564 2 q 521 -6 543 -6 q 463 25 483 -6 q 435 121 442 57 l 433 121 z "},"ν":{"ha":548,"x_min":11,"x_max":489,"o":"m 221 0 l 11 694 l 84 694 l 266 85 q 324 192 296 134 q 374 312 352 250 q 409 437 395 374 q 422 563 422 501 q 419 633 422 602 q 408 694 416 665 l 479 694 q 487 642 484 671 q 489 577 489 612 q 472 425 489 502 q 426 272 454 347 q 363 128 398 197 q 291 0 328 59 l 221 0 z "},"ξ":{"ha":463,"x_min":41,"x_max":448,"o":"m 448 -102 q 439 -167 448 -138 q 416 -220 430 -196 l 347 -220 q 375 -171 366 -195 q 385 -119 385 -146 q 380 -81 385 -100 q 361 -48 376 -63 q 319 -20 347 -33 q 245 -1 292 -8 q 159 30 197 7 q 95 87 121 52 q 55 169 69 122 q 41 275 41 216 q 54 367 41 323 q 88 447 66 410 q 143 510 111 483 q 215 553 175 538 q 131 620 161 574 q 100 732 100 667 q 115 814 100 778 q 156 877 131 850 q 213 923 181 904 q 275 952 244 941 l 275 954 l 92 954 l 92 1028 l 393 1028 l 393 954 q 309 925 350 943 q 237 881 269 907 q 185 819 205 854 q 166 737 166 783 q 180 672 166 699 q 215 626 194 644 q 262 597 236 608 q 311 583 288 587 q 323 584 317 583 q 337 585 330 584 q 355 586 345 585 q 379 587 365 586 l 379 506 q 357 507 369 507 q 330 507 345 507 q 238 489 279 507 q 169 441 197 471 q 125 369 140 410 q 109 282 109 328 q 118 211 109 243 q 145 153 126 178 q 193 111 163 128 q 263 85 222 94 q 354 57 319 74 q 411 18 390 41 q 439 -35 431 -5 q 448 -102 448 -64 z "}}}
